<?xml version="1.0" standalone="no"?>
<!DOCTYPE svg PUBLIC "-//W3C//DTD SVG 1.1//EN" "http://www.w3.org/Graphics/SVG/1.1/DTD/svg11.dtd" >
<svg>
<metadata>
Created by FontForge 20090914 at Thu Jan 12 09:51:52 2023
 By www-data
Copyright (c) 2015 Dan Reynolds.
</metadata>
<defs>
<font id="Martel-Bold" horiz-adv-x="0" >
  <font-face 
    font-family="Martel"
    font-weight="700"
    font-stretch="normal"
    units-per-em="1000"
    panose-1="0 0 8 0 0 0 0 0 0 0"
    ascent="800"
    descent="-200"
    x-height="546"
    cap-height="758"
    bbox="-814 -554.998 1476 1079"
    underline-thickness="50"
    underline-position="-50"
    unicode-range="U+000D-U+FB02"
  />
<missing-glyph horiz-adv-x="596" 
 />
    <glyph glyph-name="fi" unicode="fi" horiz-adv-x="772" 
d="M404.5 829.5c15 -2.33301 25.501 -5.16602 31.501 -8.49902v-99c-8.66699 4.66699 -22.5 9.16699 -41.5 13.5s-37.5 6.5 -55.5 6.5c-19.333 0 -34.5 -2.83301 -45.5 -8.5s-19.167 -16.334 -24.5 -32.001s-8 -38.834 -8 -69.501v-86h147v-78h-147v-406l114 -11v-51h-328
v51l91 12v405h-101v43l101 32v44c0 44.667 10.833 85.834 32.5 123.501s49.167 67.5 82.5 89.5s66.666 33 99.999 33c19.333 0 36.5 -1.16699 51.5 -3.5zM665.501 799.5c13 -13 19.499 -30.499 19.499 -52.499c0 -24.667 -9.16699 -45 -27.5 -61s-39.5 -24 -63.5 -24
c-20 0 -37.5 6.66699 -52.5 20s-22.5 30.666 -22.5 51.999c0 23.333 9.33301 43.333 28 60s39.334 25 62.001 25c24.667 0 43.5 -6.5 56.5 -19.5zM673 548.001v-486l76 -11v-51h-273v51l77 11v365l-65 48v36l156 47z" />
    <glyph glyph-name="fl" unicode="fl" horiz-adv-x="775" 
d="M138 63l0.000976562 405h-101v43l101 32v44c0 44.667 10.833 85.834 32.5 123.501s49.167 67.5 82.5 89.5s66.666 33 99.999 33c19.333 0 36.5 -1.16699 51.5 -3.5s25.5 -5.16602 31.5 -8.49902v-99c-8.66699 4.66699 -22.5 9.16699 -41.5 13.5s-37.5 6.5 -55.5 6.5
c-19.333 0 -34.5 -2.83301 -45.5 -8.5s-19.167 -16.334 -24.5 -32.001s-8 -38.834 -8 -69.501v-86h147v-78h-147v-406l114 -11v-51h-328v51zM547.001 62v637l-73 21v53l174 21l23 -10v-721l86 -12v-51h-284v51z" />
    <glyph glyph-name="f_f" unicode="ff" horiz-adv-x="855" 
d="M138 63l0.000976562 405h-101v43l101 32v44c0 44.667 10.833 85.834 32.5 123.501s49.167 67.5 82.5 89.5s66.666 33 99.999 33c19.333 0 36.5 -1.16699 51.5 -3.5s25.5 -5.16602 31.5 -8.49902v-99c-8.66699 4.66699 -22.5 9.16699 -41.5 13.5s-37.5 6.5 -55.5 6.5
c-19.333 0 -34.5 -2.83301 -45.5 -8.5s-19.167 -16.334 -24.5 -32.001s-8 -38.834 -8 -69.501v-86h147v-78h-147v-406l114 -11v-51h-328v51zM566.001 63l-0.000976562 405.001h-101v43l101 32v44c0 44.667 10.667 85.834 32 123.501s48.833 67.5 82.5 89.5
s67.167 33 100.5 33c40.667 0 68.334 -4 83.001 -12v-99c-9.33301 4.66699 -23.333 9.16699 -42 13.5s-37 6.5 -55 6.5c-19.333 0 -34.5 -2.83301 -45.5 -8.5s-19.167 -16.334 -24.5 -32.001s-8 -38.834 -8 -69.501v-86h147v-78h-147v-406l114 -11v-51h-329v51z" />
    <glyph glyph-name="f_f_i" unicode="ffi" horiz-adv-x="1200" 
d="M404.5 829.5c15 -2.33301 25.501 -5.16602 31.501 -8.49902v-99c-8.66699 4.66699 -22.5 9.16699 -41.5 13.5s-37.5 6.5 -55.5 6.5c-19.333 0 -34.5 -2.83301 -45.5 -8.5s-19.167 -16.334 -24.5 -32.001s-8 -38.834 -8 -69.501v-86h147v-78h-147v-406l114 -11v-51h-328
v51l91 12v405h-101v43l101 32v44c0 44.667 10.833 85.834 32.5 123.501s49.167 67.5 82.5 89.5s66.666 33 99.999 33c19.333 0 36.5 -1.16699 51.5 -3.5zM864.001 821l-0.000976562 -98.999c-9.33301 4.66699 -23.333 9.16699 -42 13.5s-37 6.5 -55 6.5
c-19.333 0 -34.5 -2.83301 -45.5 -8.5s-19.167 -16.334 -24.5 -32.001s-8 -38.834 -8 -69.501v-86h147v-78h-147v-406l114 -11v-51h-329v51l92 12v405h-101v43l101 32v44c0 44.667 10.667 85.834 32 123.501s48.833 67.5 82.5 89.5s67.167 33 100.5 33
c40.667 0 68.334 -4 83.001 -12zM1092.5 799.501c13 -13 19.5 -30.499 19.5 -52.499c0 -25.333 -9 -45.833 -27 -61.5s-39 -23.5 -63 -23.5c-20.667 0 -38.5 6.66699 -53.5 20s-22.5 30.666 -22.5 51.999c0 23.333 9.5 43.333 28.5 60s39.5 25 61.5 25
c24.667 0 43.5 -6.5 56.5 -19.5zM1101 548.002v-486l76 -11v-51h-273v51l77 11v365l-65 48v36l156 47z" />
    <glyph glyph-name="f_f_l" unicode="ffl" horiz-adv-x="1202" 
d="M138 63l0.000976562 405h-101v43l101 32v44c0 44.667 10.833 85.834 32.5 123.501s49.167 67.5 82.5 89.5s66.666 33 99.999 33c19.333 0 36.5 -1.16699 51.5 -3.5s25.5 -5.16602 31.5 -8.49902v-99c-8.66699 4.66699 -22.5 9.16699 -41.5 13.5s-37.5 6.5 -55.5 6.5
c-19.333 0 -34.5 -2.83301 -45.5 -8.5s-19.167 -16.334 -24.5 -32.001s-8 -38.834 -8 -69.501v-86h147v-78h-147v-406l114 -11v-51h-328v51zM566.001 63l-0.000976562 405.001h-101v43l101 32v44c0 44.667 10.667 85.834 32 123.501s48.833 67.5 82.5 89.5
s67.167 33 100.5 33c40.667 0 68.334 -4 83.001 -12v-99c-9.33301 4.66699 -23.333 9.16699 -42 13.5s-37 6.5 -55 6.5c-19.333 0 -34.5 -2.83301 -45.5 -8.5s-19.167 -16.334 -24.5 -32.001s-8 -38.834 -8 -69.501v-86h147v-78h-147v-406l114 -11v-51h-329v51zM975 62.001
v637l-73 21v53l174 21l22 -10v-721l87 -12v-51h-284v51z" />
    <glyph glyph-name=".notdef" horiz-adv-x="596" 
 />
    <glyph glyph-name="nonmarkingreturn" unicode="&#xd;" 
 />
    <glyph glyph-name="space" unicode=" " horiz-adv-x="223" 
 />
    <glyph glyph-name="exclam" unicode="!" horiz-adv-x="363" 
d="M211 253h-69l-46 616h165zM244 125c13.333 -13.333 19.999 -30.999 19.999 -52.999c0 -24.667 -9.16699 -45 -27.5 -61s-39.166 -24 -62.499 -24c-20.667 0 -38.5 6.66699 -53.5 20s-22.5 30.666 -22.5 51.999c0 22.667 9.33301 42.667 28 60s39 26 61 26
c24.667 0 43.667 -6.66699 57 -20z" />
    <glyph glyph-name="quotedbl" unicode="&#x22;" horiz-adv-x="615" 
d="M258 870l-30 -400h-75l-30 400h135zM492 870l-30 -400h-75l-30 400h135z" />
    <glyph glyph-name="numbersign" unicode="#" horiz-adv-x="709" 
d="M67 174v80h112l15 172h-115v78h119l15 158h96l-12 -158h139l13 158h99l-13 -158h107v-78h-114l-14 -172h110l1 -80h-116l-15 -174h-96l13 174h-139l-15 -174h-97l14 174h-107zM430 426h-139l-14 -172h138z" />
    <glyph glyph-name="dollar" unicode="$" horiz-adv-x="637" 
d="M131 202l36.9961 -104.007c16.667 -19.333 37.834 -32.666 63.501 -39.999s55.167 -11 88.5 -11c38 0 70.167 10.333 96.5 31s39.5 50.667 39.5 90c0 31.333 -13.167 59 -39.5 83s-64.5 50.333 -114.5 79c-50 26.667 -90 50.334 -120 71.001s-54.667 44.834 -74 72.501
s-29 59.834 -29 96.501c0 55.333 20.333 99.5 61 132.5s89.667 53.167 147 60.5l2 89h88l-3 -89c32 -2 62.5 -6.16699 91.5 -12.5s50.5 -13.5 64.5 -21.5v-146h-56l-41 97c-9.33301 8.66699 -24.666 15.5 -45.999 20.5s-42.333 7.5 -63 7.5
c-32.667 0 -62.167 -8.66699 -88.5 -26s-39.833 -44.333 -40.5 -81c0 -33.333 13.5 -62.5 40.5 -87.5s65.5 -50.833 115.5 -77.5c54 -29.333 95.333 -53.666 124 -72.999s52.834 -42.666 72.501 -69.999s29.5 -59 29.5 -95c0 -64 -22.167 -113.833 -66.5 -149.5
s-101.166 -55.5 -170.499 -59.5l-5 -104h-89l4 106c-35.333 2.66699 -69.5 7.83398 -102.5 15.501s-56.5 15.5 -70.5 23.5v172h54z" />
    <glyph glyph-name="percent" unicode="%" horiz-adv-x="927" 
d="M356 -30h-92l296 841h93zM343.5 647.5c26.333 -33 39.5 -75.835 39.5 -128.502c0 -37.333 -8 -69.666 -24 -96.999s-37.667 -48.166 -65 -62.499s-57 -21.5 -89 -21.5c-30.667 0 -58 8 -82 24s-42.5 37.333 -55.5 64s-19.5 56 -19.5 88c0 38 8.33301 70.833 25 98.5
s38.667 48.667 66 63s57.333 21.5 90 21.5c50 0 88.167 -16.5 114.5 -49.5zM162 604.998c-12.667 -22.667 -18.999 -51.667 -18.999 -87c0 -33.333 6.83301 -62 20.5 -86s31.5 -36 53.5 -36c22.667 0 40.167 10.5 52.5 31.5s18.5 50.167 18.5 87.5
c0 36 -6.33301 65.667 -19 89s-30.334 35 -53.001 35c-23.333 0 -41.333 -11.333 -54 -34zM835.501 389.498c26.333 -33 39.5 -75.835 39.5 -128.502c0 -37.333 -8 -69.666 -24 -96.999s-37.5 -48.166 -64.5 -62.499s-56.5 -21.5 -88.5 -21.5c-31.333 0 -59 8 -83 24
s-42.5 37.333 -55.5 64s-19.5 56 -19.5 88c0 38 8.33301 70.833 25 98.5s38.667 48.667 66 63s57.333 21.5 90 21.5c50 0 88.167 -16.5 114.5 -49.5zM655.001 347.496c-12.667 -22.333 -18.999 -51.5 -18.999 -87.5c0 -33.333 7 -62 21 -86s31.667 -36 53 -36
c23.333 0 41.166 10.5 53.499 31.5s18.5 50.167 18.5 87.5c0 36 -6.5 65.667 -19.5 89s-30.5 35 -52.5 35c-24 0 -42.333 -11.167 -55 -33.5z" />
    <glyph glyph-name="ampersand" unicode="&#x26;" horiz-adv-x="770" 
d="M448 740.5c28 -14.333 49.333 -34.002 64 -59.002s22 -52.833 22 -83.5c0 -45.333 -15.667 -86.833 -47 -124.5s-70.333 -69.5 -117 -95.5c22.667 -29.333 54.667 -67.833 96 -115.5s73 -81.834 95 -102.501c5.33301 18 8 42 8 72c0 30.667 -1.83301 57.334 -5.5 80.001
s-8.16699 38.667 -13.5 48h114c10.667 -21.333 16 -51.666 16 -90.999c0 -28 -4.5 -56.667 -13.5 -86s-22.167 -55.666 -39.5 -78.999c36 -26 70 -41 102 -45v-52c-12.667 -5.33301 -29.334 -8 -50.001 -8c-22 0 -45.167 3 -69.5 9s-46.166 15.333 -65.499 28
c-22.667 -16 -50.167 -28.5 -82.5 -37.5s-65.166 -13.5 -98.499 -13.5c-78.667 0 -146.667 15.167 -204 45.5s-86 81.166 -86 152.499c0 44 13.667 81.167 41 111.5s66.666 57.833 117.999 82.5c-27.333 36.667 -48.5 69.834 -63.5 99.501s-22.5 60.5 -22.5 92.5
c0 40 9 74.5 27 103.5s42.5 51.167 73.5 66.5s65.167 23 102.5 23c38 0 71 -7.16699 99 -21.5zM281.5 681.998c-17 -16 -25.833 -39.333 -26.5 -70c-2 -37.333 4.33301 -70.5 19 -99.5s34.667 -58.5 60 -88.5c31.333 18.667 54.833 41.667 70.5 69s23.5 60 23.5 98
c0 30 -7 56.667 -21 80s-36.333 35 -67 35c-22 0 -41.5 -8 -58.5 -24zM209.5 268.998c-12.333 -18 -18.501 -40.999 -18.501 -68.999c0 -46.667 16.667 -83.167 50 -109.5s76.333 -39.5 129 -39.5c26 0 48.667 1.83301 68 5.5s36 10.5 50 20.5
c-30.667 26.667 -68.667 65.667 -114 117s-80.666 94.666 -105.999 129.999c-26.667 -18.667 -46.167 -37 -58.5 -55z" />
    <glyph glyph-name="quotesingle" unicode="'" horiz-adv-x="382" 
d="M258 870l-30 -400h-75l-30 400h135z" />
    <glyph glyph-name="parenleft" unicode="(" horiz-adv-x="431" 
d="M200 -63c-38 45.333 -70.167 103.334 -96.5 174.001s-39.5 151 -39.5 241c0 79.333 13.667 154 41 224s60 129.167 98 177.5s73.333 82.166 106 101.499l52 -36c-25.333 -18.667 -52 -50 -80 -94s-51.667 -98.333 -71 -163s-29 -135 -29 -211
c0 -74.667 10.333 -144.5 31 -209.5s45.5 -120 74.5 -165s57.167 -78.167 84.5 -99.5l-58 -39c-37.333 20.667 -75 53.667 -113 99z" />
    <glyph glyph-name="parenright" unicode=")" horiz-adv-x="431" 
d="M150 -30.5c28 44.333 51.667 98.8311 71 163.498s29 135 29 211c0 74 -10.333 143.5 -31 208.5s-45.667 120.167 -75 165.5s-57.333 78.333 -84 99l58 40c37.333 -21.333 75 -54.666 113 -99.999s70.167 -103.333 96.5 -174s39.5 -150.667 39.5 -240
c0 -79.333 -13.667 -154 -41 -224s-60 -129.167 -98 -177.5s-73.333 -82.166 -106 -101.499l-52 36c25.333 18 52 49.167 80 93.5z" />
    <glyph glyph-name="asterisk" unicode="*" horiz-adv-x="622" 
d="M288 594l-35 -42l-135 -107l-58 79l162 86l51 13l-50 13l-164 79l57 85l135 -107l37 -39l-19 59l-14 161h106l-13 -161l-23 -59l44 45l128 100l67 -85l-170 -76l-54 -15l54 -14l169 -85l-67 -78l-132 107l-38 41l19 -54l16 -167h-106l14 167z" />
    <glyph glyph-name="plus" unicode="+" horiz-adv-x="629" 
d="M270 354l-79 -4h-105v94h105l79 -6l-3 86v108h95v-108l-5 -86l70 6h116v-94h-116l-70 4l5 -85v-108h-95v108z" />
    <glyph glyph-name="comma" unicode="," horiz-adv-x="353" 
d="M163 144c37.333 -10.667 65.667 -32.6689 85 -66.002s29 -68.333 29 -105c-0.666992 -55.333 -17 -103.666 -49 -144.999s-71.667 -70.666 -119 -87.999l-28 31v18c24.667 8.66699 45.167 26 61.5 52s24.5 54.333 24.5 85c0 24 -7.5 46 -22.5 66s-32.5 30.667 -52.5 32
v28z" />
    <glyph glyph-name="hyphen" unicode="-" horiz-adv-x="620" 
d="M532 442v-88h-444v88h444z" />
    <glyph glyph-name="period" unicode="." horiz-adv-x="362" 
d="M244.5 125.5c13 -13.667 19.498 -31.498 19.498 -53.498c0 -24.667 -9.16699 -44.834 -27.5 -60.501s-39.166 -23.5 -62.499 -23.5c-20.667 0 -38.5 6.66699 -53.5 20s-22.5 30.666 -22.5 51.999c0 23.333 9.33301 43.5 28 60.5s39.334 25.5 62.001 25.5
c24.667 0 43.5 -6.83301 56.5 -20.5z" />
    <glyph glyph-name="slash" unicode="/" horiz-adv-x="400" 
d="M387 781l-270 -958h-102l270 958h102z" />
    <glyph glyph-name="zero" unicode="0" horiz-adv-x="661" 
d="M540 529.5c42 -54.333 63.001 -128.168 63.001 -221.501c0 -60.667 -12.167 -115.5 -36.5 -164.5s-57.5 -87.333 -99.5 -115s-88.333 -41.5 -139 -41.5c-58.667 0 -108.167 14.167 -148.5 42.5s-70.333 66.333 -90 114s-29.5 100.834 -29.5 159.501
c0 60.667 12.833 114.5 38.5 161.5s60.167 83.167 103.5 108.5s90.666 38 141.999 38c88.667 0 154 -27.167 196 -81.5zM223.501 489.998c-20.333 -40.667 -30.5 -99 -30.5 -175c0 -44 5.33301 -86.5 16 -127.5s26.5 -74.5 47.5 -100.5s46.833 -39.333 77.5 -40
c50 -1.33301 85 19.667 105 63s30 106.333 30 189c0 74 -11.667 134.5 -35 181.5s-59 70.5 -107 70.5c-48.667 0 -83.167 -20.333 -103.5 -61z" />
    <glyph glyph-name="one" unicode="1" horiz-adv-x="467" 
d="M193 68v411l-134 -21l-13 59c29.333 8.66699 71.333 25.167 126 49.5s88.667 41.5 102 51.5l41 -8l-2 -542l125 -15v-53h-382v53z" />
    <glyph glyph-name="two" unicode="2" horiz-adv-x="603" 
d="M282.5 229.5c61.667 65.667 92.4971 126.5 92.4971 182.5c0 34 -10.167 63.333 -30.5 88s-50.166 37 -89.499 37c-30.667 0 -60.667 -6.83301 -90 -20.5s-55.666 -30.5 -78.999 -50.5l-30 47c20 27.333 53.333 51.5 100 72.5s93.334 31.5 140.001 31.5
c42 0 78.667 -7.66699 110 -23s55.333 -36 72 -62s25 -54.667 25 -86c0 -66 -28 -130.833 -84 -194.5s-130.667 -124.5 -224 -182.5l270 26l46 64l53 -16l-33 -143h-457l-18 48c89.333 55.333 164.833 115.833 226.5 181.5z" />
    <glyph glyph-name="three" unicode="3" horiz-adv-x="531" 
d="M384 579c36.667 -27.333 54.9961 -67.666 54.9961 -120.999c0 -24.667 -7.66699 -50.167 -23 -76.5s-35.166 -49.5 -59.499 -69.5s-49.833 -33.667 -76.5 -41c42.667 0.666992 79.334 -6.33301 110.001 -21s54 -34.834 70 -60.501s24 -54.834 24 -87.501
c0 -47.333 -14.667 -91.166 -44 -131.499s-69.666 -72.5 -120.999 -96.5s-108 -36 -170 -36c-31.333 0 -61.333 2.66699 -90 8v66c20.667 -4.66699 43 -7 67 -7c42 0 80.833 7.83301 116.5 23.5s63.834 37.5 84.501 65.5s31 59.333 31 94c0 46 -11.833 80.667 -35.5 104
s-62.167 36 -115.5 38c-16 -4 -28 -6.66699 -36 -8l-48 -10v74c52.667 8 98 26 136 54s57 60.667 57 98c0 35.333 -9.83301 61.5 -29.5 78.5s-44.5 25.5 -74.5 25.5c-32 0 -58.833 -4.33301 -80.5 -13s-45.5 -21.667 -71.5 -39l-32 50c23.333 22 54.333 40.833 93 56.5
s81 23.5 127 23.5c54 0 99.333 -13.667 136 -41z" />
    <glyph glyph-name="four" unicode="4" horiz-adv-x="622" 
d="M95 153l145.5 259.501c35 64.333 69.5 134.166 103.5 209.499h37l77 -55l-283 -453l-35 -49l241 18l3 213l104 21v-225l97 7v-99h-97v-184h-112l3 184h-324l-18 52z" />
    <glyph glyph-name="five" unicode="5" horiz-adv-x="537" 
d="M92 -110c45.333 0 88.168 9.33301 128.501 28s72.833 44.834 97.5 78.501s37 72.5 37 116.5c0 55.333 -13.5 96 -40.5 122s-63.833 39 -110.5 39c-34 0 -70 -6 -108 -18l-33 16l35 332h281l14 12h59l-30 -111h-238l-34 -185c38 16 76.667 24 116 24
s75.666 -8.33301 108.999 -25s59.833 -41.334 79.5 -74.001s29.5 -71.667 29.5 -117c0 -52 -16.667 -101 -50 -147s-78.333 -82.833 -135 -110.5s-118 -41.5 -184 -41.5c-22.667 0 -40.667 2 -54 6l1 56c6.66699 -0.666992 16.667 -1 30 -1z" />
    <glyph glyph-name="six" unicode="6" horiz-adv-x="628" 
d="M516 699c-63.333 -18.667 -119.669 -47.9951 -169.002 -87.9951s-88.166 -85.833 -116.499 -137.5s-42.833 -103.167 -43.5 -154.5c-2 -81.333 7.33301 -146.833 28 -196.5s59.334 -74.5 116.001 -74.5c41.333 0 72.833 17.333 94.5 52s32.5 75.667 32.5 123
c0 51.333 -10.667 92.666 -32 123.999s-49 47 -83 47c-20 0 -36 -2 -48 -6s-24 -9.66699 -36 -17l-23 41c9.33301 16 29 30.167 59 42.5s60 18.5 90 18.5c40.667 0 75.334 -9.83301 104.001 -29.5s50.334 -45.834 65.001 -78.501s22 -68 22 -106
c0 -46.667 -10.833 -90.834 -32.5 -132.501s-52.334 -75 -92.001 -100s-85.5 -37.5 -137.5 -37.5c-50.667 0 -95.167 12.667 -133.5 38s-68 59.5 -89 102.5s-31.5 90.833 -31.5 143.5c0 79.333 20.5 153.166 61.5 221.499s94.667 125.166 161 170.499
s135.166 74.333 206.499 87z" />
    <glyph glyph-name="seven" unicode="7" horiz-adv-x="603" 
d="M302.5 184l154.5 356l-280 -12l-43 -95l-68 4l22 175h448l21 -23l-273 -747l-124 44c47.333 92.667 94.833 192 142.5 298z" />
    <glyph glyph-name="eight" unicode="8" horiz-adv-x="616" 
d="M428.5 739c32.333 -14 57.833 -33.999 76.5 -59.999s28 -56.333 28 -91c0 -36 -13 -73 -39 -111s-57.333 -65.667 -94 -83c52.667 -32.667 93.5 -64.334 122.5 -95.001s43.5 -64.667 43.5 -102c0 -46 -11.833 -84.833 -35.5 -116.5s-54.5 -55.167 -92.5 -70.5
s-79 -23 -123 -23s-85.667 7.16699 -125 21.5s-71.166 36.166 -95.499 65.499s-36.5 65.333 -36.5 108c0 39.333 13.667 77 41 113s65.333 65 114 87c-37.333 26.667 -66.333 55 -87 85s-31 64.333 -31 103c0 40.667 10.5 75.334 31.5 104.001s48.833 50.167 83.5 64.5
s71.667 21.5 111 21.5s75.166 -7 107.499 -21zM232 674.001c-24 -20.667 -35.999 -47.001 -35.999 -79.001c0 -29.333 13 -57 39 -83s62.333 -53.333 109 -82c25.333 10.667 46.166 29.334 62.499 56.001s24.5 55 24.5 85c0 38.667 -11.167 70.667 -33.5 96
s-49.833 38 -82.5 38c-31.333 0 -59 -10.333 -83 -31zM197.501 289c-17.667 -24 -26.501 -49.665 -26.501 -76.998c0 -30.667 6.33301 -58.667 19 -84s31 -45.5 55 -60.5s51.667 -22.5 83 -22.5c22 0 42.667 5 62 15s34.833 24 46.5 42s17.5 38.667 17.5 62
c0 22 -6.83301 42.167 -20.5 60.5s-30.667 34.666 -51 48.999s-48.166 32.166 -83.499 53.499l-34 21c-27.333 -15.333 -49.833 -35 -67.5 -59z" />
    <glyph glyph-name="nine" unicode="9" horiz-adv-x="627" 
d="M285.5 -47.5c47.667 46.333 84.668 99.1689 111.001 158.502s40.166 116.666 41.499 171.999l1 34c0 72 -10.333 129.5 -31 172.5s-57 64.5 -109 64.5c-41.333 0 -73 -17.5 -95 -52.5s-33 -76.167 -33 -123.5c0 -50.667 11 -91.834 33 -123.501s49.667 -47.5 83 -47.5
c16.667 0 32.667 2.33301 48 7s27.333 10.334 36 17.001l23 -42c-12.667 -18 -32.834 -32.5 -60.501 -43.5s-57.167 -16.5 -88.5 -16.5c-40 0 -74.5 9.83301 -103.5 29.5s-50.833 45.667 -65.5 78s-22 67.5 -22 105.5c0 47.333 10.833 91.666 32.5 132.999
s52.334 74.5 92.001 99.5s85.5 37.5 137.5 37.5c51.333 0 95.666 -12.667 132.999 -38s66 -59.5 86 -102.5s30 -90.5 30 -142.5c0 -83.333 -19.833 -163.333 -59.5 -240s-91.667 -140.667 -156 -192s-131.5 -83.333 -201.5 -96l-25 54
c60.667 18.667 114.834 51.167 162.501 97.5z" />
    <glyph glyph-name="colon" unicode=":" horiz-adv-x="362" 
d="M245 507c12.667 -13.333 19.332 -30.667 19.999 -52c0 -24.667 -9.16699 -45 -27.5 -61s-39.166 -24 -62.499 -24c-20.667 0 -38.667 6.5 -54 19.5s-23 30.167 -23 51.5c0 23.333 9.66699 43.5 29 60.5s40.333 25.5 63 25.5c24 0 42.333 -6.66699 55 -20z
M244.498 124.499c13 -13.667 19.8311 -31.498 20.498 -53.498c0 -24.667 -9.16699 -45 -27.5 -61s-39.166 -24 -62.499 -24c-20.667 0 -38.667 6.66699 -54 20s-23 30.666 -23 51.999c0 23.333 9.33301 43.666 28 60.999s39.334 26 62.001 26
c24.667 0 43.5 -6.83301 56.5 -20.5z" />
    <glyph glyph-name="semicolon" unicode=";" horiz-adv-x="366" 
d="M245.5 507c13 -13.333 19.499 -30.999 19.499 -52.999c0 -24.667 -9.16699 -44.834 -27.5 -60.501s-39.166 -23.5 -62.499 -23.5c-20.667 0 -38.5 6.5 -53.5 19.5s-22.5 30.5 -22.5 52.5c0 23.333 9.33301 43.333 28 60s39 25 61 25c25.333 0 44.5 -6.66699 57.5 -20z
M266.499 79.001c19.667 -32.667 29.499 -66.999 29.499 -102.999c0 -56 -16.167 -105 -48.5 -147s-71.833 -71.667 -118.5 -89l-29 31v18c24.667 8.66699 45.167 26.167 61.5 52.5s24.5 54.5 24.5 84.5c0 24 -7.5 46 -22.5 66s-32.167 30.667 -51.5 32v28l70 92
c36.667 -10.667 64.834 -32.334 84.501 -65.001z" />
    <glyph glyph-name="less" unicode="&#x3c;" horiz-adv-x="649" 
d="M545 646v-110l-354 -166l354 -161v-111l-473 239v66z" />
    <glyph glyph-name="equal" unicode="=" horiz-adv-x="620" 
d="M532 544v-87h-444v87h444zM532 327v-88h-444v88h444z" />
    <glyph glyph-name="greater" unicode="&#x3e;" horiz-adv-x="649" 
d="M458 371l-354 160v112l473 -239v-67l-473 -242v109z" />
    <glyph glyph-name="question" unicode="?" horiz-adv-x="503" 
d="M323 859c45.333 -26.667 79.167 -61.0049 101.5 -103.005s33.5 -87 33.5 -135c0 -22 -1.5 -39 -4.5 -51s-8.83301 -22.667 -17.5 -32s-22.334 -19 -41.001 -29c-11.333 -6 -28.333 -14.333 -51 -25c-36.667 -18 -63 -32.667 -79 -44s-24 -24.666 -24 -39.999
c0 -18.667 3.33301 -38.167 10 -58.5s14 -39.666 22 -57.999s13 -30.166 15 -35.499h-77c-20 17.333 -39.333 43.5 -58 78.5s-28 63.5 -28 85.5c0.666992 22.667 14.834 42.167 42.501 58.5s66.167 33.5 115.5 51.5c24 8.66699 42 15.667 54 21
c14 6.66699 23.667 12.334 29 17.001s8 10.334 8 17.001c0.666992 36.667 -9.16602 71.667 -29.499 105s-48.833 60.333 -85.5 81s-78 31 -124 31c-36.667 0 -63.334 -4.33301 -80.001 -13l-3 97c6 6.66699 19.5 12.167 40.5 16.5s41.833 6.5 62.5 6.5
c66.667 -1.33301 122.667 -15.333 168 -42zM331.001 125.495c13.333 -13.667 19.999 -31.498 19.999 -53.498c0 -24.667 -9.16699 -45 -27.5 -61s-39.166 -24 -62.499 -24c-20.667 0 -38.5 6.66699 -53.5 20s-22.5 30.666 -22.5 51.999c0 23.333 9.33301 43.666 28 60.999
s39 26 61 26c24.667 0 43.667 -6.83301 57 -20.5z" />
    <glyph glyph-name="at" unicode="@" horiz-adv-x="1067" 
d="M793 670c55.333 -24 99.002 -59.3359 131.002 -106.003s48 -102.334 48 -167.001c0 -77.333 -14 -144.666 -42 -201.999s-63.833 -101 -107.5 -131s-88.5 -45 -134.5 -45c-22 0 -38.5 8 -49.5 24s-16.5 41.333 -16.5 76c0 22.667 3.33301 54 10 94
c-24 -56 -53 -103.5 -87 -142.5s-69 -58.5 -105 -58.5c-23.333 0 -45.333 8.16699 -66 24.5s-37.5 38.833 -50.5 67.5s-19.5 61.334 -19.5 98.001c0 49.333 10 98.333 30 147s48 88.667 84 120s76.333 47 121 47c20 0 40.833 -2 62.5 -6s40.834 -10.333 57.501 -19
c7.33301 18 15.666 26 24.999 24l79 -26c-20 -102 -33.333 -202.333 -40 -301c-1.33301 -9.33301 -2 -22.666 -2 -39.999c0 -18 1.33301 -32.667 4 -44s6.33398 -17 11.001 -17c18.667 0 39.667 13 63 39s43.166 59.833 59.499 101.5s24.5 84.834 24.5 129.501
c0 97.333 -29.5 168.333 -88.5 213s-135.167 67 -228.5 67c-65.333 0 -126.333 -16.667 -183 -50s-102 -80.5 -136 -141.5s-51 -130.5 -51 -208.5c0 -119.333 31.667 -207.5 95 -264.5s148.333 -85.5 255 -85.5c27.333 0 60.166 3.66699 98.499 11s65.166 15.333 80.499 24
l23 -50c-22 -16.667 -54.5 -30.334 -97.5 -41.001s-88.167 -16 -135.5 -16c-80 0 -151.5 15.333 -214.5 46s-112.5 74.834 -148.5 132.501s-54 125.5 -54 203.5c0 97.333 23.5 184.833 70.5 262.5s109.5 138.167 187.5 181.5s161.667 65 251 65
c68.667 0 130.667 -12 186 -36zM438.002 381.497c-22 -35 -33 -79.833 -33 -134.5c0 -36 4.33301 -68.833 13 -98.5s24.334 -44.5 47.001 -44.5c17.333 0 38.666 17.5 63.999 52.5s48.333 76.5 69 124.5s33 90 37 126c-8.66699 8 -23 14.5 -43 19.5s-37.333 7.5 -52 7.5
c-46 0 -80 -17.5 -102 -52.5z" />
    <glyph glyph-name="A" unicode="A" horiz-adv-x="747" 
d="M69 68l249 690h112l239 -690l77 -17v-51h-286v51l75 17l-40 127h-282l-42 -126l78 -17v-52h-248v52zM399 496l-43 143l-121 -374h237z" />
    <glyph glyph-name="B" unicode="B" horiz-adv-x="699" 
d="M127 68l-0.000976562 620.998l-78 9v60h134c10.667 0 20.667 0.333008 30 1s17.666 1.33398 24.999 2.00098c44 2.66699 80 4 108 4c84.667 0 150 -14.667 196 -44s69 -73 69 -131c0 -46 -11.667 -85.167 -35 -117.5s-57.333 -53.5 -102 -63.5
c34.667 -0.666992 66.334 -9.16699 95.001 -25.5s51.167 -38.333 67.5 -66s24.5 -58.834 24.5 -93.501c0 -74.667 -28 -131.667 -84 -171s-137 -59 -243 -59c-15.333 0 -33.166 0.333008 -53.499 1s-35.833 1.33398 -46.5 2.00098
c-8.66699 0.666992 -18.667 1.33398 -30 2.00098s-24 1 -38 1h-119v52zM304.999 426.998h43.001c48.667 0 85.167 12.5 109.5 37.5s36.5 61.5 36.5 109.5c0 42.667 -13.833 75 -41.5 97s-65.834 33 -114.501 33c-12.667 0 -28 -0.333008 -46 -1s-31.333 -2.66699 -40 -6
l-1 -267c10.667 -2 28.667 -3 54 -3zM296.5 59.998c23 -3.33301 45.833 -5 68.5 -5c50.667 0 91 13.167 121 39.5s45 64.5 45 114.5c0 50.667 -14 88.667 -42 114s-68.333 38 -121 38h-54c-30 0 -51.333 -1 -64 -3v-286c8 -4.66699 23.5 -8.66699 46.5 -12z" />
    <glyph glyph-name="C" unicode="C" horiz-adv-x="699" 
d="M539 757c28 -5.33301 57.0039 -12.0049 87.0039 -20.0049l24 -6l-9 -158h-69l-30 87c-16 12.667 -33.5 21.834 -52.5 27.501s-45.833 8.5 -80.5 8.5c-44.667 0 -84.834 -12.667 -120.501 -38s-63.834 -61.166 -84.501 -107.499s-31 -100.166 -31 -161.499
c0 -60.667 9.5 -116.834 28.5 -168.501s47 -93 84 -124s81.5 -46.5 133.5 -46.5c72 0 119.333 17 142 51l32 83h58v-152c-10.667 -0.666992 -28.334 -5 -53.001 -13c-31.333 -10 -62.166 -18 -92.499 -24s-65.5 -9 -105.5 -9c-70 0 -132.333 15.333 -187 46
s-97.334 73.834 -128.001 129.501s-46 119.834 -46 192.501c0 79.333 18.333 150.333 55 213s86.167 111.334 148.5 146.001s130.166 52 203.499 52c34 0 65 -2.66699 93 -8z" />
    <glyph glyph-name="D" unicode="D" horiz-adv-x="782" 
d="M127 68l-0.000976562 620.999l-76 9v60h140c26.667 0 59.334 1.33301 98.001 4c8.66699 0.666992 21.334 1.33398 38.001 2.00098s32 1 46 1c122 0 214 -31.667 276 -95s93 -153.333 93 -270c0 -82 -16.333 -153.667 -49 -215s-77.834 -108.333 -135.501 -141
s-123.5 -49 -197.5 -49c-16 0 -40.667 0.666992 -74 2c-28.667 2 -59.667 3 -93 3h-144v52zM351.999 56.999c12 0 21.334 0.331055 28.001 0.998047c44 2 83.5 15.833 118.5 41.5s62.5 61.834 82.5 108.501s30 101 30 163c0 108.667 -22.167 190.834 -66.5 246.501
s-107.5 83.5 -189.5 83.5c-42.667 0 -77.334 -3.33301 -104.001 -10v-618c27.333 -10.667 61 -16 101 -16z" />
    <glyph glyph-name="E" unicode="E" horiz-adv-x="662" 
d="M128 68v621l-76 9v60h524l14 -149h-70l-31 80l-237 8v-274l161 5l19 75h64v-220h-64l-19 75l-161 3v-299l262 11l54 99l66 -14l-23 -158h-561v52z" />
    <glyph glyph-name="F" unicode="F" horiz-adv-x="619" 
d="M127 66v623l-78 9v60h537l11 -150l-62 -1l-27 78l-257 8v-278l188 5l24 72h57v-220h-64l-16 75l-189 3v-281l146 -11v-58h-349v52z" />
    <glyph glyph-name="G" unicode="G" horiz-adv-x="758" 
d="M564.5 756c40.333 -6 74.501 -12.668 102.501 -20.001l-9 -152h-65l-32 84c-6.66699 8 -23.334 15.5 -50.001 22.5s-60.334 10.167 -101.001 9.5c-46 0 -87.167 -13.167 -123.5 -39.5s-64.833 -62.833 -85.5 -109.5s-31 -100 -31 -160c0 -61.333 8.5 -118 25.5 -170
s43.333 -93.833 79 -125.5s79.834 -47.5 132.501 -47.5c30.667 0 59.834 4.5 87.501 13.5s47.5 22.833 59.5 41.5v173l-112 10v60h284v-60l-55 -10v-241c-10 0.666992 -24.167 -1 -42.5 -5l-57.5 -13c-38.667 -10 -72.834 -17.667 -102.501 -23s-59.167 -8 -88.5 -8
c-66.667 0 -126 16 -178 48s-92.333 76.333 -121 133s-43 120.334 -43 191.001c0 81.333 17.333 152.833 52 214.5s82 109.167 142 142.5s127.333 50 202 50c46.667 0 90.167 -3 130.5 -9z" />
    <glyph glyph-name="H" unicode="H" horiz-adv-x="846" 
d="M127 68v621l-82 9v60h288v-60l-81 -9v-280h343v281l-81 8v60h286v-60l-81 -9v-621l86 -17v-51h-296v51l86 17v271h-343v-271l85 -16v-52h-292v52z" />
    <glyph glyph-name="I" unicode="I" horiz-adv-x="388" 
d="M132 68v621l-89 9v60h298v-60l-85 -9v-621l91 -16v-52h-305v52z" />
    <glyph glyph-name="J" unicode="J" horiz-adv-x="363" 
d="M330 698l-75.002 -8.99609v-421c0 -62.667 -1 -114.334 -3 -155.001s-6.33301 -75.334 -13 -104.001c-10.667 -38.667 -29.667 -72.5 -57 -101.5s-58.666 -51.833 -93.999 -68.5s-70.666 -26.667 -105.999 -30l-28 39c78 27.333 129 69 153 125
c9.33301 27.333 15.5 57.666 18.5 90.999s4.5 77.666 4.5 132.999v492l-78 9v60h278v-60z" />
    <glyph glyph-name="K" unicode="K" horiz-adv-x="713" 
d="M127 68l0.000976562 620.999l-85 9v60h291v-60l-82 -9v-315l257 315l-76 9l-1 60h265v-60l-84 -9l-221 -252c16 -16 34.667 -40 56 -72s46.666 -72.333 75.999 -121c34.667 -56 62 -98.5 82 -127.5s34.667 -44.5 44 -46.5l73 -18v-52h-171
c-10 0.666992 -23.333 14.334 -40 41.001s-39 67 -67 121c-27.333 52 -50.333 93.833 -69 125.5s-36 55.5 -52 71.5l-72 -82v-209l93 -16v-52h-303v52z" />
    <glyph glyph-name="L" unicode="L" horiz-adv-x="615" 
d="M127 67v616l-75 8v67h287v-67l-86 -9l-1 -618l229 14l68 117l55 -24l-33 -171h-521v52z" />
    <glyph glyph-name="M" unicode="M" horiz-adv-x="980" 
d="M119 68l43 614l-93 9v67h264l154 -479l20 -82l22 83l147 478h243v-67l-91 -9l53 -614l81 -17v-51h-279v51l81 17l-36 426l-3 180l-19 -76l-194 -606h-44l-178 515c-16 46 -34.333 102.333 -55 169l-3 -155l-21 -452l92 -17v-52h-268v52z" />
    <glyph glyph-name="N" unicode="N" horiz-adv-x="819" 
d="M785 692l-76 -9v-683h-134l-301 485l-62 135l1 -551l96 -17v-52h-263v52l81 17v613l-78 9v67h201l314 -525l59 -127v576l-82 10v66h244v-66z" />
    <glyph glyph-name="O" unicode="O" horiz-adv-x="767" 
d="M575 717c49.333 -32 87.333 -75.998 114 -131.998s40 -119.333 40 -190c0 -82 -15.167 -153.833 -45.5 -215.5s-72.166 -109.334 -125.499 -143.001s-113.333 -50.5 -180 -50.5s-125.667 16 -177 48s-91 76.167 -119 132.5s-42 120.166 -42 191.499
c0 80 16.167 151 48.5 213s75.5 109.333 129.5 142c57.333 34.667 119 52 185 52c65.333 0 122.666 -16 171.999 -48zM230.5 613.502c-35.667 -59.667 -53.5 -141.501 -53.5 -245.501c0 -54.667 8.5 -106.5 25.5 -155.5s41.5 -88.667 73.5 -119s70 -45.5 114 -45.5
c68.667 0 119.5 29.5 152.5 88.5s49.5 141.5 49.5 247.5c0 58 -8.16699 111.333 -24.5 160s-40 87.334 -71 116.001s-67.167 43 -108.5 43c-69.333 0 -121.833 -29.833 -157.5 -89.5z" />
    <glyph glyph-name="P" unicode="P" horiz-adv-x="645" 
d="M127 68l0.000976562 614.001l-81 11v65h144c18 0 39.333 1 64 3c44 2.66699 80 4 108 4c86.667 0 153.167 -17 199.5 -51s69.5 -91.667 69.5 -173c0 -50.667 -12.667 -94.834 -38 -132.501s-59.333 -66.5 -102 -86.5s-89.334 -30 -140.001 -30h-50
c-24.667 0 -41.667 -0.666992 -51 -2v-222l126 -16v-52h-339v52zM345.001 354.001c49.333 0 88.667 14.668 118 44.001s44 77.333 44 144c0 53.333 -15.5 93.666 -46.5 120.999s-74.5 40.333 -130.5 39c-38 -2.66699 -64.667 -5.66699 -80 -9v-334
c21.333 -3.33301 53 -5 95 -5z" />
    <glyph glyph-name="Q" unicode="Q" horiz-adv-x="767" 
d="M576 717c49.333 -32 87.334 -76.002 114.001 -132.002s40 -119.333 40 -190c0 -70 -11.333 -133 -34 -189s-54.5 -102 -95.5 -138s-88.833 -60.333 -143.5 -73c22.667 -51.333 78 -77 166 -77c34 0 63.667 6.33301 89 19l6 -77c-10 -12 -26 -21.667 -48 -29
s-46.333 -11 -73 -11c-110 0 -178 55.333 -204 166h-10c-67.333 0 -127 15.833 -179 47.5s-92.167 75.334 -120.5 131.001s-42.5 117.834 -42.5 186.501c0 86 17.167 161.333 51.5 226s80.833 113 139.5 145c52.667 28.667 110 43 172 43c65.333 0 122.666 -16 171.999 -48z
M230.501 613.498c-35.667 -59.667 -53.499 -141.5 -53.499 -245.5c0 -54.667 8.5 -106.5 25.5 -155.5s41.5 -88.667 73.5 -119s70 -45.5 114 -45.5c68 0 118.667 29.5 152 88.5s50 141.5 50 247.5c0 55.333 -7.83301 107.333 -23.5 156s-38.834 88 -69.501 118
s-67.667 45 -111 45c-69.333 0 -121.833 -29.833 -157.5 -89.5z" />
    <glyph glyph-name="R" unicode="R" horiz-adv-x="711" 
d="M542.5 719c47.667 -30.667 71.498 -82.0029 71.498 -154.003c0 -53.333 -14.333 -99.166 -43 -137.499s-68.667 -66.166 -120 -83.499c2 -0.666992 7.33301 -3.66699 16 -9c20 -12.667 38.5 -31.667 55.5 -57s38.167 -60.333 63.5 -105
c18.667 -33.333 33.667 -58.5 45 -75.5s22 -27.167 32 -30.5l57 -15v-52h-165c-10.667 0 -22 10.167 -34 30.5s-28 52.5 -48 96.5c-28 62 -53.167 110.333 -75.5 145s-46.5 52 -72.5 52l-74 -1v-255l99 -16v-52h-312v52l89 16v616l-78 9v65h122c14 0 27.333 0.333008 40 1
s24.334 1.33398 35.001 2.00098c41.333 2.66699 74 4 98 4c84.667 0 150.834 -15.333 198.501 -46zM304.998 701.997c-26.667 -1.33301 -44.667 -3.66797 -54 -7.00098v-308c15.333 -2 39.666 -3 72.999 -3c54.667 0 96 13.167 124 39.5s42 68.833 42 127.5
c0 49.333 -13.167 87.333 -39.5 114s-67.5 39.334 -123.5 38.001c-5.33301 -0.666992 -12.666 -1 -21.999 -1z" />
    <glyph glyph-name="S" unicode="S" horiz-adv-x="615" 
d="M170.5 1c-46.333 8.66699 -79.1709 18.3281 -98.5039 28.9951v172h54l37 -104c16.667 -19.333 37.834 -32.666 63.501 -39.999s55.167 -11 88.5 -11c38 0 70.167 10.333 96.5 31s39.5 50.667 39.5 90c0 31.333 -13.167 59.166 -39.5 83.499s-64.5 50.5 -114.5 78.5
c-50 26.667 -90 50.334 -120 71.001s-54.667 44.834 -74 72.501s-29 59.834 -29 96.501c0 42 12.167 77.667 36.5 107s55.333 51.333 93 66s76.167 22 115.5 22c40 0 79.833 -3.66699 119.5 -11s68.5 -15.666 86.5 -24.999v-146h-57l-40 97
c-10 8.66699 -25.167 15.5 -45.5 20.5s-41.166 7.5 -62.499 7.5c-33.333 0 -63.333 -8.83301 -90 -26.5s-40 -44.5 -40 -80.5c0 -35.333 14.5 -65.666 43.5 -90.999s73.167 -53.666 132.5 -84.999c42.667 -22.667 78.334 -44 107.001 -64s52.334 -43.5 71.001 -70.5
s28 -57.833 28 -92.5c0 -68.667 -25.167 -120.834 -75.5 -156.501s-113.833 -53.5 -190.5 -53.5c-44 0 -89.167 4.33301 -135.5 13z" />
    <glyph glyph-name="T" unicode="T" horiz-adv-x="652" 
d="M274 67v627l-162 -12l-34 -90l-60 -2l12 168h606v-167l-51 -6l-30 98l-158 11v-626l121 -16v-52h-361v52z" />
    <glyph glyph-name="U" unicode="U" horiz-adv-x="776" 
d="M761 698l-75 -10v-356c0 -114.667 -24.667 -201 -74 -259s-119.333 -87 -210 -87c-108 0 -186.5 27.333 -235.5 82s-73.5 137.667 -73.5 249l2 372l-78 9v60h287v-60l-86 -10v-375c0 -92.667 17.333 -159.667 52 -201s84.667 -62 150 -62c120 0 180 94 180 282l-1 356
l-86 10v60h248v-60z" />
    <glyph glyph-name="V" unicode="V" horiz-adv-x="708" 
d="M3 698v60h286v-59l-85 -10l143 -451l33 -116l30 116l129 451l-79 9v60h243v-60l-58 -8l-232 -699h-95l-253 699z" />
    <glyph glyph-name="W" unicode="W" horiz-adv-x="1057" 
d="M4 698v60h278v-59l-80 -10l138 -482l25 -91l26 87l99 402l-25 84l-73 9v60h284v-59l-82 -10l120 -489l22 -90l23 103l121 476l-81 9v60h254v-60l-72 -9l-206 -698h-112l-129 458l-128 -458h-107l-232 698z" />
    <glyph glyph-name="X" unicode="X" horiz-adv-x="716" 
d="M96 68l205 307l-206 314l-74 9v60h299v-59l-81 -10l135 -236l139 236l-72 9v60h259v-60l-78 -8l-205 -290l217 -331l81 -18v-51h-304v51l83 16l-150 247l-138 -246l92 -17v-51h-289v51z" />
    <glyph glyph-name="Y" unicode="Y" horiz-adv-x="682" 
d="M293 69v221l-232 400l-55 8v60h265v-59l-67 -9l143 -277l21 -49l20 51l126 273l-81 10v60h243v-60l-64 -15l-196 -388v-225l115 -18v-52h-345v52z" />
    <glyph glyph-name="Z" unicode="Z" horiz-adv-x="666" 
d="M637 704l-398 -574l-55 -66l331 20l75 127l58 -15l-42 -196h-552l-16 52l401 574l61 70l-323 -16l-52 -114l-60 11l17 181h537z" />
    <glyph glyph-name="bracketleft" unicode="[" horiz-adv-x="463" 
d="M118.5 809.5c7 18.333 18.668 31.333 35.001 39s39.166 11.5 68.499 11.5c20.667 0 39.834 -1.83301 57.501 -5.5s34.167 -7.83398 49.5 -12.501s25.666 -7.66699 30.999 -9l-1 -49h-145v-807l145 -2l2 -49c-49.333 -17.333 -95.333 -26 -138 -26
c-30.667 0 -54.167 4.16699 -70.5 12.5s-27.833 22.333 -34.5 42s-10 47.834 -10 84.501v691c0 34.667 3.5 61.167 10.5 79.5z" />
    <glyph glyph-name="backslash" unicode="\" horiz-adv-x="400" 
d="M387 -177h-102l-270 958h102z" />
    <glyph glyph-name="bracketright" unicode="]" horiz-adv-x="463" 
d="M247 784l-143.998 0.000976562l-1 49c5.33301 1.33301 17.166 4.83301 35.499 10.5s36 9.83398 53 12.501s33.5 4 49.5 4c29.333 0 52.166 -3.83301 68.499 -11.5s28.166 -20.834 35.499 -39.501s11 -45 11 -79v-691c0 -36.667 -3.33301 -64.834 -10 -84.501
s-18.167 -33.667 -34.5 -42s-40.166 -12.5 -71.499 -12.5c-43.333 0 -89 8.66699 -137 26l1 49l144 2v807z" />
    <glyph glyph-name="asciicircum" unicode="^" horiz-adv-x="677" 
d="M400 748l189 -473h-111l-146 353l-146 -353h-98l190 473h122z" />
    <glyph glyph-name="underscore" unicode="_" horiz-adv-x="692" 
d="M701 -182h-711v88h711v-88z" />
    <glyph glyph-name="grave" unicode="`" horiz-adv-x="432" 
d="M205.5 709.5c-42.333 29.667 -73.833 59.833 -94.5 90.5l91 82l147 -196l-32 -32c-32 7.33301 -69.167 25.833 -111.5 55.5z" />
    <glyph glyph-name="a" unicode="a" horiz-adv-x="573" 
d="M437 515c35.333 -28.667 53.0039 -76.668 53.0039 -144.001v-320h62v-40c-12 -7.33301 -27.667 -13.166 -47 -17.499s-38.333 -6.5 -57 -6.5c-24 0 -41.333 4.83301 -52 14.5s-16.334 25.5 -17.001 47.5c-36.667 -41.333 -88.334 -62 -155.001 -62
c-34 0 -64.333 6.5 -91 19.5s-47.334 31.167 -62.001 54.5s-22 49.666 -22 78.999c0 44 16.333 80.333 49 109s73.334 49.5 122.001 62.5s97.667 19.5 147 19.5v30c0 45.333 -10.333 77 -31 95s-51.334 27 -92.001 27c-22 0 -47 -3.66699 -75 -11
s-52.333 -16.666 -73 -27.999l-23 55c22.667 18.667 55.167 33.167 97.5 43.5s81.166 15.5 116.499 15.5c64.667 0 114.667 -14.333 150 -43zM232.504 243.999c-39.667 -18 -59.5 -46.667 -59.5 -86c0 -64.667 34.333 -97 103 -97c16 0 32.5 3.33301 49.5 10
s30.5 14.667 40.5 24l1 176c-50 0 -94.833 -9 -134.5 -27z" />
    <glyph glyph-name="b" unicode="b" horiz-adv-x="628" 
d="M14 722l-0.000976562 52.001l175 20l23 -8v-275c20.667 15.333 42.834 27.833 66.501 37.5s50.834 14.5 81.501 14.5c42.667 0 80.834 -9.83301 114.501 -29.5s60.167 -49.5 79.5 -89.5s29 -89.667 29 -149c0 -56 -12.333 -107.667 -37 -155
s-58.834 -84.833 -102.501 -112.5s-92.834 -41.5 -147.501 -41.5c-42.667 0 -85 4.16699 -127 12.5s-68.667 17.166 -80 26.499v676zM246.999 55.001c17.333 -6.66699 38.335 -10.001 63.002 -10.001c29.333 0 55.333 9.66699 78 29s40.5 47.5 53.5 84.5
s19.5 80.5 19.5 130.5c0 42 -6.83301 78 -20.5 108s-31.834 52.667 -54.501 68s-47.667 23 -75 23c-20.667 0 -39.5 -3.16699 -56.5 -9.5s-30.833 -14.166 -41.5 -23.499v-370c5.33301 -13.333 16.666 -23.333 33.999 -30z" />
    <glyph glyph-name="c" unicode="c" horiz-adv-x="525" 
d="M415.5 556c29 -4.66699 50.499 -11 64.499 -19v-132h-62l-30 73c-16.667 12.667 -41.334 19 -74.001 19c-43.333 0 -78.5 -18 -105.5 -54s-40.5 -84.667 -40.5 -146c0 -49.333 7.83301 -91.333 23.5 -126s36.5 -60.667 62.5 -78s54.333 -26 85 -26
c25.333 0 51.333 2.83301 78 8.5s46.667 12.834 60 21.501l21 -49c-21.333 -18.667 -50.166 -33.167 -86.499 -43.5s-75.5 -15.5 -117.5 -15.5c-51.333 0 -95.666 11.667 -132.999 35s-65.833 55.833 -85.5 97.5s-29.5 89.167 -29.5 142.5c0 58.667 12.333 110.167 37 154.5
s58.5 78.833 101.5 103.5s91.833 37.667 146.5 39c27.333 1.33301 55.5 -0.333984 84.5 -5.00098z" />
    <glyph glyph-name="d" unicode="d" horiz-adv-x="639" 
d="M541 782l-0.000976562 -730.999h67v-43c-12 -6.66699 -29 -12.334 -51 -17.001s-44.667 -7 -68 -7c-21.333 0 -36.666 4 -45.999 12s-15.333 22 -18 42c-14.667 -13.333 -36.5 -25.166 -65.5 -35.499s-60.833 -15.5 -95.5 -15.5c-40.667 0 -77.667 11 -111 33
s-59.833 53.833 -79.5 95.5s-29.5 91.167 -29.5 148.5s13.167 108.666 39.5 153.999s62 80.833 107 106.5s94.5 38.5 148.5 38.5c30 0 56.333 -3.33301 79 -10v146l-106 21v53l203 21zM249.999 480.001c-24 -16.667 -43.5 -41.3311 -58.5 -73.998
s-22.5 -72.334 -22.5 -119.001c0 -45.333 6.33301 -85.333 19 -120s30.167 -61.334 52.5 -80.001s47.5 -28 75.5 -28c20 0 39.167 2.66699 57.5 8s33.5 13 45.5 23v384c-23.333 20.667 -54.333 31 -93 31c-26.667 0 -52 -8.33301 -76 -25z" />
    <glyph glyph-name="e" unicode="e" horiz-adv-x="575" 
d="M475.5 506c35.667 -38 53.5 -91.334 53.5 -160.001c0 -29.333 -2.33301 -57 -7 -83h-353c1.33301 -62 17.166 -110.333 47.499 -145s73.5 -52 129.5 -52c24.667 0 51 2.83301 79 8.5s50.667 12.834 68 21.501l21 -48c-21.333 -18.667 -52.333 -33.5 -93 -44.5
s-81 -16.5 -121 -16.5c-81.333 0.666992 -144.333 26 -189 76s-67 118 -67 204c0 56.667 12 107.5 36 152.5s57.333 80.167 100 105.5s91.334 38 146.001 38c64 0 113.833 -19 149.5 -57zM212.5 458.999c-23.667 -30 -37.833 -73.333 -42.5 -130h234
c0.666992 7.33301 1 18.333 1 33c0 49.333 -10.667 84 -32 104c-13.333 25.333 -36.666 38 -69.999 38c-36.667 0 -66.834 -15 -90.501 -45z" />
    <glyph glyph-name="f" unicode="f" horiz-adv-x="428" 
d="M138 63l0.000976562 405h-101v43l101 32v44c0 44.667 10.833 85.834 32.5 123.501s49.167 67.5 82.5 89.5s66.666 33 99.999 33c19.333 0 36.5 -1.16699 51.5 -3.5s25.5 -5.16602 31.5 -8.49902v-99c-8.66699 4.66699 -22.5 9.16699 -41.5 13.5s-37.5 6.5 -55.5 6.5
c-19.333 0 -34.5 -2.83301 -45.5 -8.5s-19.167 -16.334 -24.5 -32.001s-8 -38.834 -8 -69.501v-86h147v-78h-147v-406l114 -11v-51h-328v51z" />
    <glyph glyph-name="g" unicode="g" horiz-adv-x="600" 
d="M450 524c13.333 21.333 43.001 32 89.001 32h53v-90h-97c11.333 -22.667 17 -49.667 17 -81c0 -42 -10.333 -78 -31 -108s-48.334 -52.5 -83.001 -67.5s-73.334 -22.5 -116.001 -22.5c-34.667 0 -67 4.66699 -97 14c-4 -10.667 -6 -21.667 -6 -33v-19
c0 -18.667 5.16699 -32.667 15.5 -42s26.833 -14.333 49.5 -15c22 -1.33301 62.667 -2 122 -2c80 0 134.667 -13.667 164 -41s44 -65.666 44 -114.999c0 -40 -12 -74.5 -36 -103.5s-57.167 -51.167 -99.5 -66.5s-90.833 -23 -145.5 -23c-70 0 -127.667 11.333 -173 34
s-68 59.667 -68 111c0 27.333 8.16699 52.833 24.5 76.5s35.833 42.167 58.5 55.5c-17.333 6 -30 13.5 -38 22.5s-12.833 18.333 -14.5 28s-2.5 22.167 -2.5 37.5c0 14 6 32.5 18 55.5s26.667 42.167 44 57.5c-56 32 -84 81.667 -84 149c0 43.333 11.333 79.666 34 108.999
s52.334 51.333 89.001 66s76.667 22 120 22c62 0 111.667 -13.667 149 -41zM207.001 480c-18.667 -18.667 -27.999 -47.332 -27.999 -85.999c0 -43.333 9.33301 -78.333 28 -105s48 -40 88 -40c35.333 0 60.666 10.667 75.999 32s23 52.666 23 93.999
c0 88.667 -37.333 133 -112 133c-31.333 0 -56.333 -9.33301 -75 -28zM164.002 -76.998c0 -40 14.001 -69.833 42.001 -89.5s63.667 -29.5 107 -29.5c50.667 0 89.167 8 115.5 24s39.5 41.333 39.5 76c0 23.333 -3.66699 42 -11 56s-20.333 24.333 -39 31
s-45.334 10 -80.001 10l-70 1c-34.667 0 -61.667 1.33301 -81 4c-15.333 -22 -23 -49.667 -23 -83z" />
    <glyph glyph-name="h" unicode="h" horiz-adv-x="690" 
d="M122 62l-0.00292969 637.001l-78 21v53l176 21l25 -10l-1 -224l-5 -73c26.667 22.667 57 40.167 91 52.5s66 18.5 96 18.5c44.667 0 78.834 -9.33301 102.501 -28s39.834 -46.334 48.501 -83.001s12.667 -85.667 12 -147v-238l70 -11v-51h-271v51l78 11v202
c0 52 -2 92.167 -6 120.5s-13.667 50.333 -29 66s-39 23.5 -71 23.5c-45.333 0 -83.666 -11.333 -114.999 -34v-378l62 -11v-51h-257v51z" />
    <glyph glyph-name="i" unicode="i" horiz-adv-x="344" 
d="M237.5 799.5c13 -13 19.499 -30.499 19.499 -52.499c0 -24.667 -9 -45 -27 -61s-39 -24 -63 -24c-20.667 0 -38.5 6.66699 -53.5 20s-22.5 30.666 -22.5 51.999c0 23.333 9.33301 43.333 28 60s39.334 25 62.001 25c24.667 0 43.5 -6.5 56.5 -19.5zM245.999 548.001v-486
l76 -11v-51h-273v51l77 11v365l-66 48v36l157 47z" />
    <glyph glyph-name="j" unicode="j" horiz-adv-x="323" 
d="M227.5 809.5c13 -13 19.502 -30.499 19.502 -52.499c0 -24.667 -8.83301 -45 -26.5 -61s-38.834 -24 -63.501 -24c-20.667 0 -38.334 6.66699 -53.001 20s-22 30.666 -22 51.999c0 23.333 9.33301 43.333 28 60s39 25 61 25c24.667 0 43.5 -6.5 56.5 -19.5z
M241.002 547.001v-559.999c0 -74.667 -16 -133.834 -48 -177.501s-76 -65.5 -132 -65.5c-11.333 0 -24.833 1.16699 -40.5 3.5s-25.5 4.83301 -29.5 7.5v76c4 -1.33301 12.167 -2.5 24.5 -3.5s22.5 -1.5 30.5 -1.5c28.667 0 48.167 13.167 58.5 39.5s15.5 70.5 15.5 132.5
v429l-63 49v34l156 48z" />
    <glyph glyph-name="k" unicode="k" horiz-adv-x="637" 
d="M122 63v630l-85 24v53l184 24l24 -12v-438l-5 -72l196 205l-79 8v64h259v-64l-83 -8l-148 -148l192 -268l61 -10v-51h-257v51l59 12l-132 199l-67 -70l3 -75v-56l66 -10v-51h-263v51z" />
    <glyph glyph-name="l" unicode="l" horiz-adv-x="347" 
d="M120 62v637l-73 21v53l173 21l23 -10v-721l87 -12v-51h-284v51z" />
    <glyph glyph-name="m" unicode="m" horiz-adv-x="1028" 
d="M124 62l0.000976562 369l-68 41v42l149 44l27 -9v-71c22 21.333 51 39.833 87 55.5s69.667 23.834 101 24.501c37.333 2 68.166 -2.5 92.499 -13.5s42.5 -30.167 54.5 -57.5c25.333 20.667 56.333 37.667 93 51s71.334 20 104.001 20c58.667 0 100.5 -18.833 125.5 -56.5
s37.5 -96.5 37.5 -176.5v-263l77 -11v-51h-263v51l63 11v244c0 41.333 -2.66699 73.666 -8 96.999s-15.5 40.666 -30.5 51.999s-36.833 17 -65.5 17c-19.333 0 -39 -3.16699 -59 -9.5s-39 -15.166 -57 -26.499c6 -24.667 9 -58.667 9 -102v-272l73 -11v-51h-268v51l72 12
v249c0 38.667 -2.83301 69.5 -8.5 92.5s-15.834 40 -30.501 51s-35.667 16.5 -63 16.5c-18.667 0 -38.667 -3.33301 -60 -10s-41.333 -17 -60 -31v-369l69 -11v-51h-257v51z" />
    <glyph glyph-name="n" unicode="n" horiz-adv-x="694" 
d="M124 61l-0.000976562 370.001l-68 41v42l149 44l27 -9v-71c25.333 22.667 57.5 41.667 96.5 57s75.5 23 109.5 23c57.333 0 97.5 -18 120.5 -54s34.5 -93.333 34.5 -172v-271l74 -10v-51h-270v51l73 11v251c0 39.333 -2.66699 70.166 -8 92.499s-15.333 38.833 -30 49.5
s-36 16 -64 16c-17.333 0 -37.166 -3.33301 -59.499 -10s-42.5 -16.667 -60.5 -30v-369l68 -11v-51h-256v51z" />
    <glyph glyph-name="o" unicode="o" horiz-adv-x="619" 
d="M510 487.5c43.333 -50.333 64.999 -117.499 64.999 -201.499c0 -58.667 -11.667 -110.5 -35 -155.5s-55.333 -80 -96 -105s-86.667 -37.5 -138 -37.5c-86 0 -151 26.5 -195 79.5s-66 122.167 -66 207.5c0 58.667 12.333 109.667 37 153s57.834 76.666 99.501 99.999
s88.167 35 139.5 35c82.667 0 145.667 -25.167 189 -75.5zM175.999 289.001c0 -65.333 11.332 -121.33 33.999 -167.997s56.334 -70.334 101.001 -71.001c48.667 -0.666992 83.167 18.666 103.5 57.999s30.5 95.666 30.5 168.999c0 67.333 -10.833 121.833 -32.5 163.5
s-55.5 62.5 -101.5 62.5c-90 0 -135 -71.333 -135 -214z" />
    <glyph glyph-name="p" unicode="p" horiz-adv-x="651" 
d="M547.5 494c39.667 -46 59.501 -113.668 59.501 -203.001c0 -55.333 -12.5 -106.166 -37.5 -152.499s-59.333 -82.833 -103 -109.5s-92.834 -40 -147.501 -40c-25.333 0 -53.333 3.66699 -84 11l4 -112v-75l98 -11v-52h-286v52l66 12v617l-68 41v42l148 44l26 -9v-60
c14 19.333 36.833 36.5 68.5 51.5s64.5 22.5 98.5 22.5c65.333 0 117.833 -23 157.5 -69zM281.001 475.999c-17.333 -9.33301 -31.6689 -19.667 -43.002 -31l1 -353c6.66699 -12 18.834 -21.5 36.501 -28.5s38.167 -10.5 61.5 -10.5c27.333 0 52.333 8.83301 75 26.5
s40.5 43.5 53.5 77.5s19.5 74.667 19.5 122c0 68 -13.667 120.167 -41 156.5s-62.333 54.5 -105 54.5c-21.333 0 -40.666 -4.66699 -57.999 -14z" />
    <glyph glyph-name="q" unicode="q" horiz-adv-x="622" 
d="M407.5 556.5c21 -4.33301 37.834 -9.83301 50.501 -16.5l63 19l21 -11v-733l65 -11v-54h-285v54l97 10v163l4 70c-16 -16 -37.333 -30 -64 -42s-56.667 -18 -90 -18c-38.667 0 -74.834 8.66699 -108.501 26s-61.5 47 -83.5 89s-33 97.333 -33 166
c0 55.333 13 105.5 39 150.5s61.833 80.333 107.5 106s97.167 38.5 154.5 38.5c20.667 0 41.5 -2.16699 62.5 -6.5zM211.501 444c-28.333 -38.667 -42.499 -94.668 -42.499 -168.001c0 -65.333 12.333 -116.666 37 -153.999s59.667 -56 105 -56c24 0 45.167 3.5 63.5 10.5
s33.166 15.833 44.499 26.5v365c-17.333 22.667 -46 34 -86 34c-52.667 0 -93.167 -19.333 -121.5 -58z" />
    <glyph glyph-name="r" unicode="r" horiz-adv-x="458" 
d="M125 62v369l-69 41v42l148 44l28 -9v-83c10.667 22 32.5 42.833 65.5 62.5s63.5 29.5 91.5 29.5c25.333 0 41.666 -1.33301 48.999 -4v-120c-24 12 -52.667 18 -86 18c-41.333 0 -75.666 -9 -102.999 -27v-361l129 -13v-51h-325v51z" />
    <glyph glyph-name="s" unicode="s" horiz-adv-x="520" 
d="M126 149l25 -57.998c18 -16 34.667 -27.5 50 -34.5s34.333 -10.5 57 -10.5c32.667 0 58.334 6.83301 77.001 20.5s28 33.834 28 60.501c-0.666992 20 -9.83398 36.333 -27.501 49s-45.167 27.334 -82.5 44.001l-25 11c-50 24 -89 49.667 -117 77s-42 61 -42 101
c0 33.333 10.667 61.666 32 84.999s48.5 40.666 81.5 51.999s66.833 17 101.5 17c29.333 0 59 -3.16699 89 -9.5s54 -13.833 72 -22.5v-116h-57l-23 57c-23.333 24.667 -50 37 -80 37c-28.667 0 -51.834 -5.83301 -69.501 -17.5s-26.5 -29.167 -26.5 -52.5
c0 -17.333 5.83301 -32.5 17.5 -45.5s25 -23.5 40 -31.5s41.167 -21 78.5 -39c34.667 -16 62.167 -30.333 82.5 -43s37.5 -28.834 51.5 -48.501s21 -43.834 21 -72.501c0 -56 -21.667 -98.5 -65 -127.5s-98.666 -43.5 -165.999 -43.5c-30.667 0 -62.167 3.83301 -94.5 11.5
s-60.5 18.167 -84.5 31.5v118h56z" />
    <glyph glyph-name="t" unicode="t" horiz-adv-x="432" 
d="M231 546l164.001 0.00195312v-71h-161v-223c0 -51.333 1.16699 -89 3.5 -113s7.33301 -41.833 15 -53.5s20.5 -17.5 38.5 -17.5c14 0 31.167 2.33301 51.5 7s34.5 9.66699 42.5 15l20 -48c-16.667 -16.667 -41.5 -29.834 -74.5 -39.501s-64.5 -14.5 -94.5 -14.5
c-42.667 0 -73.667 12.333 -93 37s-29 63.667 -29 117v333h-74v43c31.333 8 52.166 14.167 62.499 18.5s19.5 12.833 27.5 25.5c10 17.333 23.667 55.666 41 114.999h60v-131z" />
    <glyph glyph-name="u" unicode="u" horiz-adv-x="638" 
d="M44 479v46.001l148 33l20 -9v-337c0 -52 6.5 -89.167 19.5 -111.5s37.833 -33.5 74.5 -33.5c21.333 0 43.5 4.66699 66.5 14s39.833 19 50.5 29v342l-61 22v50l163 34l18 -8v-499h58v-44c-10 -6 -26.333 -11.333 -49 -16s-42.334 -7 -59.001 -7
c-18 0 -32.167 3.83301 -42.5 11.5s-15.5 19.167 -15.5 34.5v33c-23.333 -22.667 -50.666 -40.667 -81.999 -54s-61.333 -20 -90 -20c-48 0 -84.167 8.83301 -108.5 26.5s-40.5 42.167 -48.5 73.5s-12.333 72.666 -13 123.999v244z" />
    <glyph glyph-name="v" unicode="v" horiz-adv-x="597" 
d="M1 482v64h239v-64l-54 -12l97 -248l39 -123l36 120l85 252l-62 11v64h214v-64l-54 -13l-192 -477h-93l-207 480z" />
    <glyph glyph-name="w" unicode="w" horiz-adv-x="852" 
d="M1 482v64h236v-64l-60 -12l78 -270l24 -96l18 91l91 351h106l92 -350l23 -94l89 368l-61 12v64h214v-64l-64 -13l-138 -477h-114l-94 327l-18 84l-18 -84l-87 -327h-108l-157 479z" />
    <glyph glyph-name="x" unicode="x" horiz-adv-x="593" 
d="M77 63l159 201l-168 208l-65 10v64h267v-64l-59 -10l67 -100l36 -51l17 29l86 123l-67 9v64h239v-64l-81 -12l-152 -189l173 -219l63 -11v-51h-263v51l57 12l-67 94l-43 58l-16 -30l-84 -121l82 -13v-51h-256v51z" />
    <glyph glyph-name="y" unicode="y" horiz-adv-x="576" 
d="M123 -157c29.333 0 56.668 12.333 82.001 37s46 65 62 121h-24l-194 470l-48 11v64h248v-64l-65 -11l107 -304l24 -80l24 81l91 304l-73 10v64h224v-64l-51 -9l-108 -301l-74 -194c-24 -60 -47.333 -106.667 -70 -140s-49 -56.333 -79 -69
c-20.667 -16.667 -45.334 -25 -74.001 -25c-10 0 -20.5 0.666992 -31.5 2s-18.167 3 -21.5 5v98c16 -4.66699 33 -6.66699 51 -6z" />
    <glyph glyph-name="z" unicode="z" horiz-adv-x="539" 
d="M510 499l-266 -374l-53 -67l228 13l31 82h64l-7 -153h-451l-19 43l42 62l244 339l41 46l-212 -8l-31 -93h-61v157h433z" />
    <glyph glyph-name="braceleft" unicode="{" horiz-adv-x="522" 
d="M116 316.5c-21.333 11 -47 19.499 -77 25.499v78c72.667 13.333 109 32.666 109 57.999v260c0 46.667 8 78.834 24 96.501s44.333 26.5 85 26.5c19.333 0 36.333 -1.33301 51 -4s35.667 -7.66699 63 -15l29 -8v-49h-145v-311c0 -21.333 -7 -37.666 -21 -48.999
s-30.167 -21.166 -48.5 -29.499l-36.5 -16.5c35.333 -15.333 61.833 -30 79.5 -44s26.5 -32 26.5 -54v-310h145v-50c-34.667 -10 -61 -16.833 -79 -20.5s-38.333 -5.5 -61 -5.5c-42 0 -71.167 9.16699 -87.5 27.5s-24.5 51.166 -24.5 98.499v259
c0 13.333 -10.667 25.5 -32 36.5z" />
    <glyph glyph-name="bar" unicode="|" horiz-adv-x="463" 
d="M292 869v-960h-116v960h116z" />
    <glyph glyph-name="braceright" unicode="}" horiz-adv-x="498" 
d="M242 281c0 23.333 8.66699 41.832 26 55.499s43.666 27.834 78.999 42.501c-27.333 12 -47.5 21.667 -60.5 29s-23.667 16.166 -32 26.499s-12.5 23.5 -12.5 39.5v311h-145l-1 49c6 1.33301 19.333 4.83301 40 10.5s39.5 9.83398 56.5 12.501s32.833 4 47.5 4
c40.667 0 69 -9 85 -27s24 -50 24 -96v-260c0 -24.667 36.333 -44 109 -58v-78c-30 -6 -55.667 -14.5 -77 -25.5s-32 -23.167 -32 -36.5v-259c0 -48 -8.33301 -81 -25 -99s-45.667 -27 -87 -27c-21.333 0 -41.166 1.83301 -59.499 5.5s-45.5 10.5 -81.5 20.5l1 50h145v310z
" />
    <glyph glyph-name="asciitilde" unicode="~" horiz-adv-x="624" 
d="M139.5 492.5c33.667 21 67.1641 31.5 100.497 31.5c18.667 0 35 -3.66699 49 -11s29.667 -18 47 -32c14.667 -11.333 27.167 -19.833 37.5 -25.5s21.5 -8.5 33.5 -8.5c32.667 0 67.334 16.333 104.001 49l41 -50c-12 -26.667 -34.5 -50.5 -67.5 -71.5
s-66.167 -31.5 -99.5 -31.5c-19.333 0 -35.666 3.5 -48.999 10.5s-28.333 17.167 -45 30.5c-13.333 12 -25.666 21 -36.999 27s-24 9 -38 9c-20 0 -37.833 -4.33301 -53.5 -13s-32.5 -20.667 -50.5 -36l-40 50c11.333 26.667 33.833 50.5 67.5 71.5z" />
    <glyph glyph-name="DEL" 
 />
    <glyph glyph-name="uni00A0" unicode="&#xa0;" horiz-adv-x="223" 
 />
    <glyph glyph-name="exclamdown" unicode="&#xa1;" horiz-adv-x="365" 
d="M249.5 683c13 -13.333 19.5 -30.999 19.5 -52.999c0 -24.667 -9 -45 -27 -61s-38.667 -24 -62 -24c-21.333 0 -39.5 6.5 -54.5 19.5s-22.5 30.167 -22.5 51.5c0 23.333 9.33301 43.666 28 60.999s39 26 61 26c25.333 0 44.5 -6.66699 57.5 -20zM261 -205.999h-165l50 639
h69z" />
    <glyph glyph-name="cent" unicode="&#xa2;" horiz-adv-x="562" 
d="M107 83c-34 48.667 -50.999 108.666 -50.999 179.999c0 53.333 10.333 101.166 31 143.499s49.5 76.5 86.5 102.5s78.833 42.333 125.5 49l7 107h73l-6 -104c23.333 -1.33301 45.833 -4 67.5 -8s38.167 -9.33301 49.5 -16v-132h-62l-30 73
c-16.667 12.667 -41.334 19 -74.001 19c-44 0 -79.333 -17.833 -106 -53.5s-40 -84.167 -40 -145.5c0 -49.333 7.83301 -91.5 23.5 -126.5s36.5 -61.167 62.5 -78.5s54.333 -26 85 -26c25.333 0 51.333 2.83301 78 8.5s47 12.834 61 21.501l20 -49
c-19.333 -16.667 -45.333 -30.167 -78 -40.5s-68 -16.5 -106 -18.5l-5 -94h-73l5 99c-62 10.667 -110 40.334 -144 89.001z" />
    <glyph glyph-name="sterling" unicode="&#xa3;" horiz-adv-x="722" 
d="M528 755.5c23.333 -6.33301 44.333 -17.501 63 -33.501l-57 -108c-10 18.667 -27.5 37.167 -52.5 55.5s-52.5 27.5 -82.5 27.5c-28 0 -49 -17.167 -63 -51.5s-21 -88.5 -21 -162.5v-53h146v-82h-145v-18c0 -58 -4 -103.5 -12 -136.5s-22.667 -65.833 -44 -98.5
c11.333 -0.666992 24.833 -3.66699 40.5 -9s25.167 -8.66602 28.5 -9.99902c14 -5.33301 28.667 -10.333 44 -15s30 -8 44 -10c7.33301 -1.33301 17.666 -2 30.999 -2c34.667 0 61.5 9 80.5 27s28.5 39.667 28.5 65c0 13.333 -3.66699 26.5 -11 39.5
s-16.666 23.167 -27.999 30.5l54 103c28.667 -8.66699 51.834 -26.667 69.501 -54s26.5 -57.666 26.5 -90.999c0 -31.333 -7.16699 -61.333 -21.5 -90s-37.833 -52.167 -70.5 -70.5s-75 -27.5 -127 -27.5c-35.333 0 -66.166 4 -92.499 12s-55.5 19 -87.5 33
c-18 8 -31.5 13.5 -40.5 16.5s-17.5 4.16699 -25.5 3.5c-31.333 -40 -69.333 -60.333 -114 -61c-16 0 -30.167 3.5 -42.5 10.5s-18.5 19.167 -18.5 36.5c0 14 6.66699 27.167 20 39.5s31.666 22.166 54.999 29.499s48.666 10.666 75.999 9.99902
c9.33301 22 14 60.667 14 116v121h-84v82h84v44c0 50.667 10.667 98.334 32 143.001s51.333 80.5 90 107.5s82.667 40.5 132 40.5c30.667 0 57.667 -3.16699 81 -9.5z" />
    <glyph glyph-name="currency" unicode="&#xa4;" horiz-adv-x="711" 
d="M247 500c31.333 19.333 66 29.001 104 29.001c42 0 78.333 -11.333 109 -34l100 98l54 -56l-99 -98c20 -30.667 30 -64.667 30 -102c0 -38 -10.667 -73.667 -32 -107l94 -94l-55 -55l-94 94c-33.333 -21.333 -69 -32 -107 -32c-37.333 0 -72 10.333 -104 31l-95 -95
l-55 54l93 94c-22.667 33.333 -34 70 -34 110c0 39.333 11.333 75.666 34 108.999l-92 94l53 55zM276.5 414.001c-21 -22 -31.5 -47.667 -31.5 -77c0 -30 10.5 -56 31.5 -78s45.833 -33 74.5 -33s53.334 11 74.001 33s31 48 31 78s-10.333 55.833 -31 77.5
s-45.334 32.5 -74.001 32.5s-53.5 -11 -74.5 -33z" />
    <glyph glyph-name="yen" unicode="&#xa5;" horiz-adv-x="708" 
d="M288 69v110h-196v69h196v75l-6 30h-190v70h153l-170 266l-60 9v60h268v-59l-65 -9l118 -207l25 -60h11l30 64l63 119c10 17.333 24.667 45 44 83l-73 9v60h241v-60l-68 -16l-157 -259h153v-70h-191l-1 -22v-83h192v-69h-192v-109l108 -18v-52h-335v52z" />
    <glyph glyph-name="brokenbar" unicode="&#xa6;" horiz-adv-x="463" 
d="M292 869v-432h-116v432h116zM292 342v-433h-116v433h116z" />
    <glyph glyph-name="section" unicode="&#xa7;" horiz-adv-x="653" 
d="M452 855.5c34 -7 60.3311 -15.501 78.998 -25.501v-141h-52l-46 90c-6.66699 8.66699 -19.167 15.5 -37.5 20.5s-39.166 7.5 -62.499 7.5c-18.667 0 -37.5 -4.5 -56.5 -13.5s-35 -22.667 -48 -41s-19.5 -40.5 -19.5 -66.5c0 -21.333 7 -40.166 21 -56.499
s31.5 -30.5 52.5 -42.5s49.167 -26 84.5 -42c44.667 -20.667 80.334 -39 107.001 -55s49.5 -36.833 68.5 -62.5s28.5 -56.5 28.5 -92.5c0 -28 -4.66699 -56.333 -14 -85s-22 -52 -38 -70c34.667 -31.333 52 -68.333 52 -111c0 -68.667 -23.5 -118.834 -70.5 -150.501
s-109.5 -47.5 -187.5 -47.5c-43.333 0 -87.833 4 -133.5 12s-77.167 17 -94.5 27v172h52l39 -97c16 -20.667 35.833 -34.5 59.5 -41.5s51.5 -10.5 83.5 -10.5c36 0 67.167 8.16699 93.5 24.5s39.5 41.5 39.5 75.5c0 23.333 -7.33301 44 -22 62s-33.167 33.5 -55.5 46.5
s-52.166 28.5 -89.499 46.5c-44 21.333 -79.5 40.166 -106.5 56.499s-49.833 37 -68.5 62s-28 54.833 -28 89.5c0 26 6.16699 53.333 18.5 82s27.166 51.334 44.499 68.001c-35.333 32 -53 70.667 -53 116c0 42.667 12.5 79.334 37.5 110.001s56.833 54 95.5 70
s77.667 24 117 24s76 -3.5 110 -10.5zM191.998 420.999c0 -22 7.50098 -41.5 22.501 -58.5s33.167 -31.5 54.5 -43.5s50.666 -26.667 87.999 -44c34.667 -15.333 65 -30.333 91 -45c10 23.333 15 46 15 68c0 22.667 -7 42.834 -21 60.501s-31.833 33.167 -53.5 46.5
s-51.5 29.333 -89.5 48c-35.333 17.333 -65 32.666 -89 45.999c-12 -26.667 -18 -52.667 -18 -78z" />
    <glyph glyph-name="dieresis" unicode="&#xa8;" horiz-adv-x="520" 
d="M84.5 685c-13.667 11.333 -20.502 26.334 -20.502 45.001c0 21.333 8.5 39.166 25.5 53.499s36.167 21.5 57.5 21.5c22.667 0 40.334 -5.66699 53.001 -17s19 -27 19 -47c0 -22 -8.66699 -39.667 -26 -53s-36.666 -20 -57.999 -20c-20 0 -36.833 5.66699 -50.5 17z
M321.998 685.001c-13.333 11.333 -19.998 26.666 -19.998 45.999c0 20.667 8.66699 38.167 26 52.5s36 21.5 56 21.5c23.333 0 41.166 -5.66699 53.499 -17s18.5 -26.666 18.5 -45.999c0 -22.667 -8.33301 -40.667 -25 -54s-36.334 -20 -59.001 -20
c-20 0 -36.667 5.66699 -50 17z" />
    <glyph glyph-name="copyright" unicode="&#xa9;" horiz-adv-x="1009" 
d="M713.5 882c63.667 -37.333 114.335 -87.832 152.002 -151.499s56.5 -133.167 56.5 -208.5c0 -74 -19 -142.833 -57 -206.5s-88.833 -114.334 -152.5 -152.001s-132.834 -56.5 -207.501 -56.5c-76.667 0 -146.834 18.5 -210.501 55.5s-114 87.333 -151 151
s-55.5 133.167 -55.5 208.5s18.667 144.833 56 208.5s88 114.167 152 151.5s133.667 56 209 56s144.833 -18.667 208.5 -56zM331.501 824.501c-52.333 -31.667 -93.833 -74.168 -124.5 -127.501s-46 -111.666 -46 -174.999c0 -62.667 15.5 -120.667 46.5 -174
s72.667 -95.833 125 -127.5s109.5 -47.5 171.5 -47.5s119.333 15.833 172 47.5s94.334 74.167 125.001 127.5s46 111.333 46 174c0 63.333 -15.333 121.833 -46 175.5s-72.334 96.167 -125.001 127.5s-110 47 -172 47c-62.667 0 -120.167 -15.833 -172.5 -47.5z
M604.001 767.5c27.333 -3.66699 47.666 -11.5 60.999 -23.5v-120h-70l-27 67c-7.33301 4.66699 -15.666 8 -24.999 10s-23.666 3 -42.999 3c-32 0 -56.5 -14.5 -73.5 -43.5s-25.5 -68.5 -25.5 -118.5c0 -33.333 6.33301 -63.166 19 -89.499s30 -46.833 52 -61.5
s47 -22 75 -22c20.667 0 41.167 2.33301 61.5 7s35.833 10.667 46.5 18l16 -45c-14.667 -18 -37.5 -33.167 -68.5 -45.5s-62.833 -18.5 -95.5 -18.5c-70.667 0 -125.5 21.167 -164.5 63.5s-58.5 98.833 -58.5 169.5c0 45.333 11.167 87 33.5 125s51.666 68.333 87.999 91
s74.5 35 114.5 37c28.667 1.33301 56.667 0.166016 84 -3.50098z" />
    <glyph glyph-name="ordfeminine" unicode="&#xaa;" horiz-adv-x="506" 
d="M381.5 748c28.333 -20 42.501 -58.332 42.501 -114.999l-1 -214h42v-43c-13.333 -4.66699 -29.833 -9 -49.5 -13s-35.5 -6 -47.5 -6c-17.333 0 -29.5 3.5 -36.5 10.5s-11.167 19.5 -12.5 37.5c-14 -12.667 -32.667 -23.5 -56 -32.5s-52 -13.5 -86 -13.5
c-19.333 0 -38.5 4.66699 -57.5 14s-34.667 23 -47 41s-18.5 39.333 -18.5 64c0 51.333 24.833 87.666 74.5 108.999s111.834 32 186.501 32v10c0 33.333 -8 55 -24 65s-40.667 15 -74 15c-22.667 0 -44.834 -2.66699 -66.501 -8s-38.5 -12.333 -50.5 -21l-21 54
c14.667 12 39.667 22.333 75 31s68.666 13 99.999 13c56.667 0 99.167 -10 127.5 -30zM164.001 493.001c0 -21.333 6 -37.999 18 -49.999s27 -18 45 -18c14 0 29.333 2.16699 46 6.5s30 10.166 40 17.499v120c-99.333 -2.66699 -149 -28 -149 -76z" />
    <glyph glyph-name="guillemotleft" unicode="&#xab;" horiz-adv-x="971" 
d="M449 537l31 -51l-240 -186l240 -178l-31 -55l-332 177v106zM823 537l31 -51l-239 -186l239 -178l-31 -55l-332 177v106z" />
    <glyph glyph-name="logicalnot" unicode="&#xac;" horiz-adv-x="630" 
d="M542 441v-269h-107v191h-347v78h454z" />
    <glyph glyph-name="uni00AD" unicode="&#xad;" horiz-adv-x="616" 
d="M532 442v-88h-444v88h444z" />
    <glyph glyph-name="registered" unicode="&#xae;" horiz-adv-x="1009" 
d="M713.5 882c63.667 -37.333 114.335 -87.832 152.002 -151.499s56.5 -133.167 56.5 -208.5c0 -74 -19 -142.833 -57 -206.5s-88.833 -114.334 -152.5 -152.001s-132.834 -56.5 -207.501 -56.5c-76.667 0 -146.834 18.5 -210.501 55.5s-114 87.333 -151 151
s-55.5 133.167 -55.5 208.5s18.667 144.833 56 208.5s88 114.167 152 151.5s133.667 56 209 56s144.833 -18.667 208.5 -56zM331.501 824.501c-52.333 -31.667 -93.832 -74.1689 -124.499 -127.502s-46 -111.666 -46 -174.999c0 -62.667 15.5 -120.667 46.5 -174
s72.667 -95.833 125 -127.5s109.5 -47.5 171.5 -47.5c62.667 0 120.167 15.667 172.5 47s93.833 73.833 124.5 127.5s46 111.834 46 174.501c0 63.333 -15.333 121.833 -46 175.5s-72.334 96.167 -125.001 127.5s-110 47 -172 47c-62.667 0 -120.167 -15.833 -172.5 -47.5z
M702.002 646.999c0 -36.667 -9.99805 -68.332 -29.998 -94.999s-52 -43 -96 -49c20.667 -7.33301 37.167 -18.5 49.5 -33.5s24.5 -34.167 36.5 -57.5c12 -22.667 23 -39.334 33 -50.001s23.333 -16 40 -16v-52h-103c-15.333 0 -27.333 5.66699 -36 17s-18.334 29 -29.001 53
c-9.33301 22.667 -18.333 41 -27 55s-20 25.333 -34 34c-14.667 20.667 -31.334 32.334 -50.001 35.001v-136l40 -10v-49h-195v49l43 15v340l-43 11v55h89c9.33301 -0.666992 28.333 -0.333984 57 0.999023l75 1c118 0 178 -39.333 180 -118zM483.004 705.001
c-10 0 -19 -1.33301 -27 -4v-154c11.333 -2.66699 29.333 -4 54 -4c23.333 0 42.333 8 57 24s22 35.333 22 58c0 28.667 -7.83301 49.167 -23.5 61.5s-39.167 18.5 -70.5 18.5h-12z" />
    <glyph glyph-name="macron" unicode="&#xaf;" horiz-adv-x="465" 
d="M371 776v-89h-265v89h265z" />
    <glyph glyph-name="degree" unicode="&#xb0;" horiz-adv-x="371" 
d="M266 756c24.667 -14.667 44.334 -34.3311 59.001 -58.998s22 -51 22 -79c0 -28.667 -7.33301 -55.334 -22 -80.001s-34.334 -44.334 -59.001 -59.001s-51.667 -22 -81 -22c-28.667 0 -55.5 7.33301 -80.5 22s-44.833 34.334 -59.5 59.001s-22 51.334 -22 80.001
c0 29.333 7.33301 56.166 22 80.499s34.5 43.666 59.5 57.999s51.833 21.5 80.5 21.5c29.333 0 56.333 -7.33301 81 -22zM119.5 684.503c-17 -17.667 -25.501 -39.833 -25.501 -66.5c0 -26 8.66699 -47.833 26 -65.5s39 -26.5 65 -26.5s47.5 8.66699 64.5 26
s25.5 39.333 25.5 66c0 26 -8.66699 48 -26 66s-38.666 27 -63.999 27c-26.667 0 -48.5 -8.83301 -65.5 -26.5z" />
    <glyph glyph-name="plusminus" unicode="&#xb1;" horiz-adv-x="630" 
d="M271 354l-79 -4h-105v94h105l79 -6l-3 86v108h95v-108l-5 -86l70 6h116v-94h-116l-70 4l5 -85v-108h-95v108zM536 96v-87h-444v87h444z" />
    <glyph glyph-name="uni00B2" unicode="&#xb2;" horiz-adv-x="610" 
d="M275 546c63.333 48 95 91.3301 95 129.997c0 28.667 -9.33301 49.834 -28 63.501s-42.667 20.5 -72 20.5c-27.333 0 -55.5 -7.33301 -84.5 -22s-53.833 -34 -74.5 -58l-38 49c18.667 30 49.334 56.667 92.001 80s86.334 35 131.001 35c70 0 120.667 -13.5 152 -40.5
s47 -59.167 47 -96.5c0 -38 -12.833 -73.167 -38.5 -105.5s-58.834 -62.166 -99.501 -89.499s-95 -59.666 -163 -96.999l246 28l54 69l61 -21l-29 -139h-432l-24 64c73.333 38.667 141.666 82 204.999 130z" />
    <glyph glyph-name="uni00B3" unicode="&#xb3;" horiz-adv-x="558" 
d="M166 371.5c24.667 -4.33301 44.999 -6.50098 60.999 -6.50098c44.667 1.33301 80.167 10.833 106.5 28.5s39.5 41.5 39.5 71.5c0 24.667 -8.33301 43.834 -25 57.501s-38.334 21.834 -65.001 24.501l-35 -7l-67 -15l1 67c51.333 10.667 90.5 26 117.5 46
s40.5 45.333 40.5 76c0 19.333 -8.33301 33.166 -25 41.499s-36.667 12.5 -60 12.5c-22 0 -46.333 -4.33301 -73 -13s-49 -19 -67 -31l-28 50c23.333 18.667 55 34.167 95 46.5s76.333 18.5 109 18.5c32 0 60.5 -5.33301 85.5 -16s44.667 -25.167 59 -43.5
s21.5 -38.5 21.5 -60.5c0 -29.333 -8.66699 -54.5 -26 -75.5s-43.666 -38.5 -78.999 -52.5c31.333 0 57.5 -6.66699 78.5 -20s36.5 -29.833 46.5 -49.5s15 -38.834 15 -57.501c0 -32.667 -9.66699 -61.667 -29 -87s-46.666 -45 -81.999 -59s-76 -21 -122 -21
c-25.333 0 -52 2.66699 -80 8s-52.333 12.333 -73 21v60c15.333 -5.33301 35.333 -10.166 60 -14.499z" />
    <glyph glyph-name="acute" unicode="&#xb4;" horiz-adv-x="432" 
d="M279 882l91.001 -82c-18.667 -29.333 -47.834 -57.333 -87.501 -84s-79.167 -47.667 -118.5 -63l-32 33z" />
    <glyph glyph-name="paragraph" unicode="&#xb6;" horiz-adv-x="703" 
d="M474 762c54.667 -2.66699 88.333 -4 101 -4h91v-61l-88 -21v-606l81 -18v-52h-181l-1 682h-91v-682h-201v52l99 18v256c-70.667 0 -124.667 18.5 -162 55.5s-56 92.167 -56 165.5c0 70.667 22 125.167 66 163.5s108.667 57.5 194 57.5c24 0 73.333 -2 148 -6z" />
    <glyph glyph-name="periodcentered" unicode="&#xb7;" horiz-adv-x="358" 
d="M241 473c13.333 -13.333 20 -31.3311 20 -53.998c0 -24.667 -9 -44.834 -27 -60.501s-38.667 -23.5 -62 -23.5c-21.333 0 -39.5 6.5 -54.5 19.5s-22.5 30.167 -22.5 51.5c0 23.333 9.33301 43.666 28 60.999s39 26 61 26c24.667 0 43.667 -6.66699 57 -20z" />
    <glyph glyph-name="cedilla" unicode="&#xb8;" horiz-adv-x="310" 
d="M168 -34c0 -13.333 0.333008 -22.668 1 -28.001c37.333 -0.666992 66.166 -10.334 86.499 -29.001s30.5 -40 30.5 -64c0 -34.667 -13.667 -60.5 -41 -77.5s-63 -25.5 -107 -25.5c-21.333 0 -39.666 1.83301 -54.999 5.5s-25.333 5.83398 -30 6.50098l1 58
c5.33301 -2 14 -3.66699 26 -5s22 -2 30 -2c18 0 31.833 3 41.5 9s14.5 17.667 14.5 35c0 12.667 -5.16699 22.667 -15.5 30s-25.166 11 -44.499 11c-6 0 -11.167 -0.333008 -15.5 -1s-7.5 -1 -9.5 -1c0 14.667 2.16699 33.334 6.5 56.001s9.16602 42 14.499 58h68
c-1.33301 -6 -2 -18 -2 -36z" />
    <glyph glyph-name="uni00B9" unicode="&#xb9;" horiz-adv-x="537" 
d="M232 418l0.000976562 293c-46.667 -6.66699 -88.334 -14 -125.001 -22l-13 59c30 8 72.333 23.167 127 45.5s88 38.5 100 48.5l31 -8l-1 -417l122 -15v-51h-371v51z" />
    <glyph glyph-name="ordmasculine" unicode="&#xba;" horiz-adv-x="517" 
d="M414 721.5c36 -37.667 54 -89.166 54 -154.499c0 -45.333 -10.333 -83.833 -31 -115.5s-47.5 -55.167 -80.5 -70.5s-67.5 -23 -103.5 -23c-60.667 0 -109.667 18.167 -147 54.5s-56 87.166 -56 152.499c0 46.667 10.167 86 30.5 118s47 55.833 80 71.5
s68.167 23.5 105.5 23.5c62.667 0 112 -18.833 148 -56.5zM191.5 683.501c-15.667 -25.667 -23.499 -62.5 -23.499 -110.5c0 -45.333 8.33301 -83.166 25 -113.499s37.667 -45.5 63 -45.5c34 0 58.333 10.833 73 32.5s22 59.5 22 113.5c0 46.667 -8 85.5 -24 116.5
s-38 46.5 -66 46.5c-30.667 -0.666992 -53.834 -13.834 -69.501 -39.501z" />
    <glyph glyph-name="guillemotright" unicode="&#xbb;" horiz-adv-x="971" 
d="M355 303l-239 179l31 55l332 -177v-106l-332 -187l-31 50zM490 482l31 55l332 -177v-106l-332 -187l-31 50l239 186z" />
    <glyph glyph-name="onequarter" unicode="&#xbc;" horiz-adv-x="1300" 
d="M859 894l-384 -1061l-78 27l383 1058zM259 418l0.000976562 293c-44.667 -6 -86.334 -13.333 -125.001 -22l-13 59c30 8 72.333 23.167 127 45.5s88 38.5 100 48.5l31 -8l-1 -417l122 -15v-51h-371v51zM1013 534l59 -60l-240 -286l-37 -48l182 17l3 113l100 11v-114
l120 10l1 -99h-121v-164h-108l3 164h-250l-26 56l271 399z" />
    <glyph glyph-name="onehalf" unicode="&#xbd;" horiz-adv-x="1300" 
d="M859 895l-384 -1062l-78 23l383 1062zM259 418l0.000976562 293c-44.667 -6 -86.334 -13.333 -125.001 -22l-13 59c30 8 72.333 23.167 127 45.5s88 38.5 100 48.5l31 -8l-1 -417l122 -15v-51h-371v51zM939.001 195c62 46.667 93.002 89.3311 93.002 127.998
c0 28.667 -9.33301 50 -28 64s-42.334 21 -71.001 21c-27.333 0 -55.5 -7.33301 -84.5 -22s-53.833 -34 -74.5 -58l-38 48c18.667 30 49.167 56.833 91.5 80.5s86.166 35.5 131.499 35.5c69.333 0 119.833 -13.667 151.5 -41s47.5 -59.666 47.5 -96.999
c0 -38 -12.833 -73.167 -38.5 -105.5s-59 -62.166 -100 -89.499s-95.167 -59.333 -162.5 -96l245 26l55 70l61 -21l-29 -139h-432l-24 64c75.333 41.333 144 85.333 206 132z" />
    <glyph glyph-name="threequarters" unicode="&#xbe;" horiz-adv-x="1329" 
d="M858 895l-384 -1062l-78 23l383 1062zM190 371.5c24.667 -4.33301 44.999 -6.50098 60.999 -6.50098c44.667 1.33301 80.167 10.833 106.5 28.5s39.5 41.5 39.5 71.5c0 24.667 -8.33301 43.834 -25 57.501s-38.334 21.834 -65.001 24.501l-35 -7l-67 -15l1 67
c51.333 10.667 90.5 26 117.5 46s40.5 45.333 40.5 76c0 19.333 -8.33301 33.166 -25 41.499s-36.667 12.5 -60 12.5c-22 0 -46.333 -4.33301 -73 -13s-49 -19 -67 -31l-28 50c23.333 18.667 55 34.167 95 46.5s76.333 18.5 109 18.5c32 0 60.5 -5.33301 85.5 -16
s44.667 -25.167 59 -43.5s21.5 -38.5 21.5 -60.5c0 -29.333 -8.66699 -54.5 -26 -75.5s-43.666 -38.5 -78.999 -52.5c31.333 0 57.5 -6.66699 78.5 -20s36.5 -29.833 46.5 -49.5s15 -38.834 15 -57.501c0 -32.667 -9.66699 -61.667 -29 -87s-46.666 -45 -81.999 -59
s-76 -21 -122 -21c-25.333 0 -52 2.66699 -80 8s-52.333 12.333 -73 21v60c15.333 -5.33301 35.333 -10.166 60 -14.499zM1013 533.999l59 -60l-240 -286l-37 -48l182 17l3 113l100 11v-114l120 10l1 -99h-121v-164h-108l3 164h-250l-26 56l271 399z" />
    <glyph glyph-name="questiondown" unicode="&#xbf;" horiz-adv-x="503" 
d="M297 685.5c13.333 -13.667 19.999 -31.498 19.999 -53.498c0 -24.667 -9.16699 -45 -27.5 -61s-39.166 -24 -62.499 -24c-20.667 0 -38.5 6.66699 -53.5 20s-22.5 30.666 -22.5 51.999c0 23.333 9.33301 43.666 28 60.999s39 26 61 26c24.667 0 43.667 -6.83301 57 -20.5
zM295.999 447.002c20 -16.667 39.3311 -42.4951 57.998 -77.4951s28 -63.833 28 -86.5c-0.666992 -22.667 -14.334 -41.834 -41.001 -57.501s-64.334 -32.5 -113.001 -50.5l-27 -10c-12.667 -4.66699 -23 -9 -31 -13c-14 -6.66699 -23.667 -12.334 -29 -17.001
s-8 -10.334 -8 -17.001c-1.33301 -36.667 8.33398 -71.667 29.001 -105s49.334 -60.333 86.001 -81s77.667 -31 123 -31c37.333 0 64.333 4.33301 81 13l3 -96c-6 -7.33301 -19.5 -13 -40.5 -17s-42.167 -6 -63.5 -6c-66 0.666992 -121.667 14.334 -167 41.001
s-79.166 61.167 -101.499 103.5s-33.5 87.5 -33.5 135.5c0 21.333 1.33301 38 4 50s8.33398 22.667 17.001 32s22.334 19 41.001 29c10 5.33301 19.5 10.166 28.5 14.499s17.167 8.5 24.5 12.5c36 17.333 62 31.5 78 42.5s24 24.5 24 40.5c0 18 -3.5 37.167 -10.5 57.5
s-14.333 39.666 -22 57.999s-12.834 30.166 -15.501 35.499h78z" />
    <glyph glyph-name="Agrave" unicode="&#xc0;" horiz-adv-x="747" 
d="M278 809c-39.333 14 -72.667 30 -100 48l81 81l161 -120l-35 -35c-32 3.33301 -67.667 12 -107 26zM68.999 68l249 690h112l239 -690l77 -17v-51h-286v51l75 17l-40 127h-282l-42 -126l78 -17v-52h-248v52zM398.999 496l-43 143l-121 -374h237z" />
    <glyph glyph-name="Aacute" unicode="&#xc1;" horiz-adv-x="747" 
d="M493 938l79.999 -81c-26.667 -18 -60.167 -33.833 -100.5 -47.5s-77.166 -22.5 -110.499 -26.5l-34 35zM68.999 68l249 690h112l239 -690l77 -17v-51h-286v51l75 17l-40 127h-282l-42 -126l78 -17v-52h-248v52zM398.999 496l-43 143l-121 -374h237z" />
    <glyph glyph-name="Acircumflex" unicode="&#xc2;" horiz-adv-x="747" 
d="M324 938h101l127 -124l-47 -28l-130 74l-134 -74l-44 27zM69 68l249 690h112l239 -690l77 -17v-51h-286v51l75 17l-40 127h-282l-42 -126l78 -17v-52h-248v52zM399 496l-43 143l-121 -374h237z" />
    <glyph glyph-name="Atilde" unicode="&#xc3;" horiz-adv-x="747" 
d="M234.5 910.5c28.333 18.333 55.5029 27.5 81.5029 27.5c15.333 0 28.5 -2.83301 39.5 -8.5s23.5 -13.5 37.5 -23.5c11.333 -8.66699 21.166 -15 29.499 -19s17.166 -6 26.499 -6c32 0 60.667 12.667 86 38l32 -41c-11.333 -24 -30.833 -44.5 -58.5 -61.5
s-54.5 -25.5 -80.5 -25.5c-15.333 0 -28.833 2.83301 -40.5 8.5s-24.5 13.834 -38.5 24.501c-11.333 8.66699 -21 15.167 -29 19.5s-16.667 6.5 -26 6.5c-14.667 0 -30 -3.83301 -46 -11.5s-29.667 -16.834 -41 -27.501l-32 36c11.333 24 31.166 45.167 59.499 63.5z
M69.0029 68l249 690h112l239 -690l77 -17v-51h-286v51l75 17l-40 127h-282l-42 -126l78 -17v-52h-248v52zM399.003 496l-43 143l-121 -374h237z" />
    <glyph glyph-name="Adieresis" unicode="&#xc4;" horiz-adv-x="747" 
d="M311.5 921.5c13 -11.667 19.5 -27.499 19.5 -47.499c0 -21.333 -8.5 -39 -25.5 -53s-36.833 -21 -59.5 -21c-19.333 0 -35.833 5.66699 -49.5 17s-20.5 26.666 -20.5 45.999c0 20.667 8.66699 38.5 26 53.5s36.333 22.5 57 22.5c22 0 39.5 -5.83301 52.5 -17.5z
M553.5 921.501c12.333 -11.667 18.501 -27.501 18.501 -47.501c0 -21.333 -8.16699 -39 -24.5 -53s-35.833 -21 -58.5 -21c-20 0 -37 5.83301 -51 17.5s-21 26.834 -21 45.501c0 21.333 8.66699 39.333 26 54s36.666 22 57.999 22c22.667 0 40.167 -5.83301 52.5 -17.5z
M669.001 68l77 -17v-51h-286v51l75 17l-40 127h-282l-42 -126l78 -17v-52h-248v52l68 16l249 690h112zM235.001 265h237l-73 231l-43 143z" />
    <glyph glyph-name="Aring" unicode="&#xc5;" horiz-adv-x="747" 
d="M466.5 904.5c25.667 -22.333 38.5 -50.5 38.5 -84.5c0 -22 -5.66699 -41.667 -17 -59s-26.333 -31 -45 -41l226 -652l77 -17v-51h-286v51l75 17l-40 127h-282l-42 -126l78 -17v-52h-248v52l68 16l236 652c-18.667 10 -33.667 23.667 -45 41s-17 37 -17 59
c0 34.667 12.5 63 37.5 85s56.167 33 93.5 33c36 0 66.833 -11.167 92.5 -33.5zM329 862.5c-12 -11.667 -17.999 -26.167 -17.999 -43.5s6 -31.666 18 -42.999s27 -17 45 -17c17.333 0 32.166 5.66699 44.499 17s18.5 25.666 18.5 42.999c0 16.667 -6 31 -18 43
s-27 18 -45 18s-33 -5.83301 -45 -17.5zM235.001 265h237l-73 231l-43 143z" />
    <glyph glyph-name="AE" unicode="&#xc6;" horiz-adv-x="947" 
d="M67 67l279 691h491l15 -149l-65 -1l-26 79l-265 8l80 -266l164 3l16 75h57v-218h-57l-16 70l-144 4l91 -302l129 10l51 98l59 -20l-23 -149h-430v52l78 16l-41 134h-296l-50 -134l83 -16v-52h-246v52zM401 565l-17 87l-142 -379h247z" />
    <glyph glyph-name="Ccedilla" unicode="&#xc7;" horiz-adv-x="698" 
d="M537.5 757c28.333 -5.33301 57.5049 -12 87.5049 -20l24 -6l-9 -158h-69l-30 87c-16 12.667 -33.5 21.834 -52.5 27.501s-45.833 8.5 -80.5 8.5c-44.667 0 -84.834 -12.833 -120.501 -38.5s-63.834 -61.667 -84.501 -108s-31 -99.833 -31 -160.5
s9.5 -116.834 28.5 -168.501s47 -93 84 -124s81.5 -46.5 133.5 -46.5c70.667 0 118 17 142 51l32 83h58v-152c-10 -0.666992 -28 -5 -54 -13c-30.667 -9.33301 -57.834 -16.666 -81.501 -21.999s-50.5 -8.33301 -80.5 -9c-0.666992 -12 -0.333984 -28.667 0.999023 -50
c37.333 -0.666992 66.166 -10.334 86.499 -29.001s30.5 -40 30.5 -64c0 -34.667 -13.667 -60.5 -41 -77.5s-63.333 -25.5 -108 -25.5c-20.667 0 -38.667 1.83301 -54 5.5s-25.333 5.83398 -30 6.50098v58c5.33301 -2 14.166 -3.66699 26.499 -5s22.5 -2 30.5 -2
c18 0 31.833 3 41.5 9s14.5 17.667 14.5 35c0 12.667 -5.16699 22.667 -15.5 30s-25.166 11 -44.499 11c-6 0 -11.333 -0.333008 -16 -1s-8 -1 -10 -1c1.33301 31.333 7 64.666 17 99.999c-64.667 4.66699 -121.5 23 -170.5 55s-87 74.833 -114 128.5
s-40.5 114.5 -40.5 182.5c0 80 18.5 151.167 55.5 213.5s86.5 110.833 148.5 145.5s129.333 52 202 52c34 0 65.167 -2.66699 93.5 -8z" />
    <glyph glyph-name="Egrave" unicode="&#xc8;" horiz-adv-x="662" 
d="M263.5 808.5c-41.667 14.333 -75.5 30.5 -101.5 48.5l80 81l161 -120l-35 -35c-28 2.66699 -62.833 11.167 -104.5 25.5zM128 68v621l-76 9v60h524l14 -149h-70l-31 80l-237 8v-274l161 5l19 75h64v-220h-64l-19 75l-161 3v-299l262 11l54 99l66 -14l-23 -158h-561v52z
" />
    <glyph glyph-name="Eacute" unicode="&#xc9;" horiz-adv-x="662" 
d="M476 938l80.001 -81c-26 -18 -59.333 -33.833 -100 -47.5s-77.334 -22.5 -110.001 -26.5l-34 35zM128.001 68v621l-76 9v60h524l14 -149h-70l-31 80l-237 8v-274l161 5l19 75h64v-220h-64l-19 75l-161 3v-299l262 11l54 99l66 -14l-23 -158h-561v52z" />
    <glyph glyph-name="Ecircumflex" unicode="&#xca;" horiz-adv-x="662" 
d="M307 938h101l127 -124l-47 -28l-130 74l-134 -74l-44 27zM128 68v621l-76 9v60h524l14 -149h-70l-31 80l-237 8v-274l161 5l19 75h64v-220h-64l-19 75l-161 3v-299l262 11l54 99l66 -14l-23 -158h-561v52z" />
    <glyph glyph-name="Edieresis" unicode="&#xcb;" horiz-adv-x="662" 
d="M295.5 921c13 -12 19.5 -27.666 19.5 -46.999c0 -21.333 -8.66699 -39 -26 -53s-37.333 -21 -60 -21c-18.667 0 -35 5.66699 -49 17s-21 26.666 -21 45.999c0 20.667 8.66699 38.5 26 53.5s36.333 22.5 57 22.5c22.667 0 40.5 -6 53.5 -18zM536.5 921.501
c12.333 -11.667 18.501 -27.501 18.501 -47.501c0 -21.333 -8.16699 -39 -24.5 -53s-35.833 -21 -58.5 -21c-20 0 -37 5.83301 -51 17.5s-21 26.834 -21 45.501c0 21.333 8.66699 39.333 26 54s36.666 22 57.999 22c22.667 0 40.167 -5.83301 52.5 -17.5zM590.001 609h-70
l-31 80l-237 8v-274l161 5l19 75h64v-220h-64l-19 75l-161 3v-299l262 11l54 99l66 -14l-23 -158h-561v52l78 16v621l-76 9v60h524z" />
    <glyph glyph-name="Igrave" unicode="&#xcc;" horiz-adv-x="388" 
d="M100 808.5c-42 14.333 -76 30.5 -102 48.5l80 81l161 -120l-34 -35c-28 2.66699 -63 11.167 -105 25.5zM132 68v621l-89 9v60h298v-60l-85 -9v-621l91 -16v-52h-305v52z" />
    <glyph glyph-name="Iacute" unicode="&#xcd;" horiz-adv-x="388" 
d="M312 938l80.001 -81c-26 -18 -59.333 -33.833 -100 -47.5s-77.334 -22.5 -110.001 -26.5l-34 35zM132.001 68v621l-89 9v60h298v-60l-85 -9v-621l91 -16v-52h-305v52z" />
    <glyph glyph-name="Icircumflex" unicode="&#xce;" horiz-adv-x="388" 
d="M143 938h101l127 -124l-47 -28l-130 74l-134 -74l-44 27zM132 68v621l-89 9v60h298v-60l-85 -9v-621l91 -16v-52h-305v52z" />
    <glyph glyph-name="Idieresis" unicode="&#xcf;" horiz-adv-x="388" 
d="M131.5 921.5c13 -11.667 19.5 -27.499 19.5 -47.499c0 -21.333 -8.66699 -39 -26 -53s-37 -21 -59 -21c-19.333 0 -36 5.66699 -50 17s-21 26.666 -21 45.999c0 20.667 8.66699 38.5 26 53.5s36.333 22.5 57 22.5c22.667 0 40.5 -5.83301 53.5 -17.5zM372.5 921.501
c12.333 -11.667 18.501 -27.501 18.501 -47.501c0 -21.333 -8.16699 -39 -24.5 -53s-35.833 -21 -58.5 -21c-20 0 -37 5.83301 -51 17.5s-21 26.834 -21 45.501c0 21.333 8.66699 39.333 26 54s36.666 22 57.999 22c22.667 0 40.167 -5.83301 52.5 -17.5zM341.001 698
l-85 -9v-621l91 -16v-52h-305v52l90 16v621l-89 9v60h298v-60z" />
    <glyph glyph-name="Eth" unicode="&#xd0;" horiz-adv-x="781" 
d="M127 68v281.999h-87v82h87v257l-75 9v60h139c27.333 0 60.333 1.33301 99 4c8.66699 0.666992 21.334 1.33398 38.001 2.00098s31.667 1 45 1c122.667 0 215 -31.667 277 -95s93 -153.333 93 -270c0 -82 -16.333 -153.667 -49 -215s-77.834 -108.333 -135.501 -141
s-123.5 -49 -197.5 -49c-15.333 0 -40.333 0.666992 -75 2c-28 2 -58.667 3 -92 3h-144v52zM352 56.999c12 0 21.334 0.331055 28.001 0.998047c44 2 83.5 15.833 118.5 41.5s62.5 61.834 82.5 108.501s30 101 30 163c0 108.667 -22.333 190.834 -67 246.501
s-108.334 83.5 -191.001 83.5c-42 0 -76 -3.33301 -102 -10v-259h128v-82h-128v-277c27.333 -10.667 61 -16 101 -16z" />
    <glyph glyph-name="Ntilde" unicode="&#xd1;" horiz-adv-x="819" 
d="M785 692l-76 -9v-683h-134l-301 485l-62 135l1 -551l96 -17v-52h-263v52l81 17v613l-78 9v67h201l314 -525l59 -127v576l-82 10v66h244v-66zM274.5 910.5c28.333 18.333 55.501 27.5 81.501 27.5c14.667 0 27.667 -2.66699 39 -8s24.333 -13.333 39 -24
c11.333 -8.66699 20.833 -15 28.5 -19s16.167 -6 25.5 -6c32.667 0 61.667 12.667 87 38l32 -41c-12 -24 -31.667 -44.5 -59 -61.5s-54 -25.5 -80 -25.5c-15.333 0 -28.833 2.83301 -40.5 8.5s-24.5 13.834 -38.5 24.501c-11.333 8.66699 -21 15.167 -29 19.5
s-16.667 6.5 -26 6.5c-14.667 0 -30 -3.83301 -46 -11.5s-30 -16.834 -42 -27.501l-31 36c11.333 24 31.166 45.167 59.499 63.5z" />
    <glyph glyph-name="Ograve" unicode="&#xd2;" horiz-adv-x="767" 
d="M575 717c49.333 -32 87.333 -75.998 114 -131.998s40 -119.333 40 -190c0 -82 -15.167 -153.833 -45.5 -215.5s-72.166 -109.334 -125.499 -143.001s-113.333 -50.5 -180 -50.5s-125.667 16 -177 48s-91 76.167 -119 132.5s-42 120.166 -42 191.499
c0 80 16.167 151 48.5 213s75.5 109.333 129.5 142c57.333 34.667 119 52 185 52c65.333 0 122.666 -16 171.999 -48zM230.5 613.502c-35.667 -59.667 -53.5 -141.501 -53.5 -245.501c0 -54.667 8.5 -106.5 25.5 -155.5s41.5 -88.667 73.5 -119s70 -45.5 114 -45.5
c68.667 0 119.5 29.5 152.5 88.5s49.5 141.5 49.5 247.5c0 58 -8.16699 111.333 -24.5 160s-40 87.334 -71 116.001s-67.167 43 -108.5 43c-69.333 0 -121.833 -29.833 -157.5 -89.5zM297 808.501c-42 14.333 -76 30.5 -102 48.5l80 81l162 -120l-35 -35
c-28 2.66699 -63 11.167 -105 25.5z" />
    <glyph glyph-name="Oacute" unicode="&#xd3;" horiz-adv-x="767" 
d="M589 857c-26.667 -18 -60.168 -33.833 -100.501 -47.5s-77.166 -22.5 -110.499 -26.5l-34 35l165 120zM574.499 717c49.667 -32 87.834 -76.001 114.501 -132.001s40 -119.333 40 -190c0 -81.333 -15.167 -153 -45.5 -215s-72.333 -109.833 -126 -143.5
s-114.167 -50.5 -181.5 -50.5c-66.667 0 -125.334 16 -176.001 48s-90 76.167 -118 132.5s-42 120.166 -42 191.499c0 80.667 16 151.834 48 213.501s75.667 109.334 131 143.001s116.333 50.5 183 50.5c65.333 0 122.833 -16 172.5 -48zM230.499 613.499
c-35.667 -59.667 -53.5 -141.501 -53.5 -245.501c0 -54.667 8.5 -106.5 25.5 -155.5s41.5 -88.667 73.5 -119s70 -45.5 114 -45.5c68.667 0 119.5 29.5 152.5 88.5s49.5 141.5 49.5 247.5c0 58 -8.16699 111.333 -24.5 160s-40 87.334 -71 116.001s-67.167 43 -108.5 43
c-69.333 0 -121.833 -29.833 -157.5 -89.5z" />
    <glyph glyph-name="Ocircumflex" unicode="&#xd4;" horiz-adv-x="767" 
d="M568 814l-47 -28l-130 74l-134 -74l-44 27l127 125h101zM574.5 717c49.667 -32 87.834 -76.001 114.501 -132.001s40 -119.333 40 -190c0 -81.333 -15.167 -153 -45.5 -215s-72.333 -109.833 -126 -143.5s-114.167 -50.5 -181.5 -50.5c-66.667 0 -125.334 16 -176.001 48
s-90 76.167 -118 132.5s-42 120.166 -42 191.499c0 80.667 16 151.834 48 213.501s75.667 109.334 131 143.001s116.333 50.5 183 50.5c65.333 0 122.833 -16 172.5 -48zM230.5 613.499c-35.667 -59.667 -53.5 -141.501 -53.5 -245.501c0 -54.667 8.5 -106.5 25.5 -155.5
s41.5 -88.667 73.5 -119s70 -45.5 114 -45.5c68.667 0 119.5 29.5 152.5 88.5s49.5 141.5 49.5 247.5c0 58 -8.16699 111.333 -24.5 160s-40 87.334 -71 116.001s-67.167 43 -108.5 43c-69.333 0 -121.833 -29.833 -157.5 -89.5z" />
    <glyph glyph-name="Otilde" unicode="&#xd5;" horiz-adv-x="767" 
d="M575 717c49.333 -32 87.333 -75.998 114 -131.998s40 -119.333 40 -190c0 -82 -15.167 -153.833 -45.5 -215.5s-72.166 -109.334 -125.499 -143.001s-113.333 -50.5 -180 -50.5s-125.667 16 -177 48s-91 76.167 -119 132.5s-42 120.166 -42 191.499
c0 80 16.167 151 48.5 213s75.5 109.333 129.5 142c57.333 34.667 119 52 185 52c65.333 0 122.666 -16 171.999 -48zM230.5 613.502c-35.667 -59.667 -53.5 -141.501 -53.5 -245.501c0 -54.667 8.5 -106.5 25.5 -155.5s41.5 -88.667 73.5 -119s70 -45.5 114 -45.5
c68.667 0 119.5 29.5 152.5 88.5s49.5 141.5 49.5 247.5c0 58 -8.16699 111.333 -24.5 160s-40 87.334 -71 116.001s-67.167 43 -108.5 43c-69.333 0 -121.833 -29.833 -157.5 -89.5zM250.5 910.501c28.333 18.333 55.501 27.5 81.501 27.5c14.667 0 27.667 -2.66699 39 -8
s24.333 -13.333 39 -24c11.333 -8.66699 20.833 -15 28.5 -19s16.167 -6 25.5 -6c32.667 0 61.667 12.667 87 38l32 -41c-12 -24 -31.667 -44.5 -59 -61.5s-54 -25.5 -80 -25.5c-15.333 0 -28.833 2.83301 -40.5 8.5s-24.5 13.834 -38.5 24.501
c-11.333 8.66699 -21 15.167 -29 19.5s-16.667 6.5 -26 6.5c-14.667 0 -30 -3.83301 -46 -11.5s-30 -16.834 -42 -27.501l-31 36c11.333 24 31.166 45.167 59.499 63.5z" />
    <glyph glyph-name="Odieresis" unicode="&#xd6;" horiz-adv-x="767" 
d="M575 717c49.333 -32 87.333 -75.998 114 -131.998s40 -119.333 40 -190c0 -82 -15.167 -153.833 -45.5 -215.5s-72.166 -109.334 -125.499 -143.001s-113.333 -50.5 -180 -50.5s-125.667 16 -177 48s-91 76.167 -119 132.5s-42 120.166 -42 191.499
c0 80 16.167 151 48.5 213s75.5 109.333 129.5 142c57.333 34.667 119 52 185 52c65.333 0 122.666 -16 171.999 -48zM230.5 613.502c-35.667 -59.667 -53.5 -141.501 -53.5 -245.501c0 -54.667 8.5 -106.5 25.5 -155.5s41.5 -88.667 73.5 -119s70 -45.5 114 -45.5
c68.667 0 119.5 29.5 152.5 88.5s49.5 141.5 49.5 247.5c0 58 -8.16699 111.333 -24.5 160s-40 87.334 -71 116.001s-67.167 43 -108.5 43c-69.333 0 -121.833 -29.833 -157.5 -89.5zM318.5 921.001c13 -12 19.5 -27.666 19.5 -46.999c0 -21.333 -8.66699 -39 -26 -53
s-37 -21 -59 -21c-19.333 0 -36 5.66699 -50 17s-21 26.666 -21 45.999c0 21.333 8.66699 39.333 26 54s36.333 22 57 22c22.667 0 40.5 -6 53.5 -18zM578.5 921.502c12.333 -11.667 18.5 -27.501 18.5 -47.501c0 -21.333 -8 -39 -24 -53s-35.667 -21 -59 -21
c-20 0 -36.833 5.83301 -50.5 17.5s-20.5 26.834 -20.5 45.501c0 21.333 8.66699 39.333 26 54s36.333 22 57 22c22.667 0 40.167 -5.83301 52.5 -17.5z" />
    <glyph glyph-name="multiply" unicode="&#xd7;" horiz-adv-x="637" 
d="M258 394l-170 163l68 71l162 -174l162 174l69 -71l-170 -163l170 -162l-69 -72l-162 174l-162 -174l-68 72z" />
    <glyph glyph-name="Oslash" unicode="&#xd8;" horiz-adv-x="767" 
d="M92.5 145.5c-35 60.333 -52.501 130.166 -52.501 209.499c0 81.333 16 153 48 215s75.667 110 131 144s117 51 185 51c32 0 65.333 -5 100 -15l27 77l49 -19l-28 -78c56 -29.333 99.5 -73.666 130.5 -132.999s46.5 -126.666 46.5 -201.999
c0 -80.667 -15 -151.834 -45 -213.501s-71.333 -109.5 -124 -143.5s-112 -51.333 -178 -52c-29.333 0 -59.666 3.33301 -90.999 10l-37 -96l-49 18l35 95c-63.333 28 -112.5 72.167 -147.5 132.5zM387.999 703c-69.333 0 -121.833 -29.833 -157.5 -89.5
s-53.5 -141.5 -53.5 -245.5c0 -53.333 8.5 -104.5 25.5 -153.5s40.833 -87.833 71.5 -116.5l200 579c-27.333 17.333 -56 26 -86 26zM389.999 48c68 0 118.666 29.5 151.999 88.5s50 141.5 50 247.5c0 49.333 -6.5 96.333 -19.5 141s-31.833 82 -56.5 112l-197 -573
c20.667 -10.667 44.334 -16 71.001 -16z" />
    <glyph glyph-name="Ugrave" unicode="&#xd9;" horiz-adv-x="776" 
d="M761 698l-75 -10v-356c0 -114.667 -24.667 -201 -74 -259s-119.333 -87 -210 -87c-108 0 -186.5 27.333 -235.5 82s-73.5 137.667 -73.5 249l2 372l-78 9v60h287v-60l-86 -10v-375c0 -92.667 17.333 -159.667 52 -201s84.667 -62 150 -62c120 0 180 94 180 282l-1 356
l-86 10v60h248v-60zM316 808.5c-42 14.333 -76 30.5 -102 48.5l80 81l162 -120l-35 -35c-28 2.66699 -63 11.167 -105 25.5z" />
    <glyph glyph-name="Uacute" unicode="&#xda;" horiz-adv-x="776" 
d="M761 698l-75 -10v-356c0 -114.667 -24.667 -201 -74 -259s-119.333 -87 -210 -87c-108 0 -186.5 27.333 -235.5 82s-73.5 137.667 -73.5 249l2 372l-78 9v60h287v-60l-86 -10v-375c0 -92.667 17.333 -159.667 52 -201s84.667 -62 150 -62c120 0 180 94 180 282l-1 356
l-86 10v60h248v-60zM527 938l81.002 -81c-26.667 -18 -60.334 -33.833 -101.001 -47.5s-77.334 -22.5 -110.001 -26.5l-34 35z" />
    <glyph glyph-name="Ucircumflex" unicode="&#xdb;" horiz-adv-x="774" 
d="M588 814l-48 -28l-130 74l-133 -74l-45 27l128 125h100zM761 698l-75 -10v-356c0 -114.667 -24.667 -201 -74 -259s-119.333 -87 -210 -87c-108 0 -186.5 27.333 -235.5 82s-73.5 137.667 -73.5 249l2 372l-78 9v60h287v-60l-86 -10v-375
c0 -92.667 17.333 -159.667 52 -201s84.667 -62 150 -62c120 0 180 94 180 282l-1 356l-86 10v60h248v-60z" />
    <glyph glyph-name="Udieresis" unicode="&#xdc;" horiz-adv-x="776" 
d="M761 698l-75 -10v-356c0 -114.667 -24.667 -201 -74 -259s-119.333 -87 -210 -87c-108 0 -186.5 27.333 -235.5 82s-73.5 137.667 -73.5 249l2 372l-78 9v60h287v-60l-86 -10v-375c0 -92.667 17.333 -159.667 52 -201s84.667 -62 150 -62c120 0 180 94 180 282l-1 356
l-86 10v60h248v-60zM337.5 921c13 -12 19.5 -27.666 19.5 -46.999c0 -21.333 -8.66699 -39 -26 -53s-37 -21 -59 -21c-19.333 0 -36 5.66699 -50 17s-21 26.666 -21 45.999c0 21.333 8.66699 39.333 26 54s36.333 22 57 22c22.667 0 40.5 -6 53.5 -18zM597.5 921.501
c12.333 -11.667 18.5 -27.501 18.5 -47.501c0 -21.333 -8 -39 -24 -53s-35.667 -21 -59 -21c-20 0 -36.833 5.83301 -50.5 17.5s-20.5 26.834 -20.5 45.501c0 21.333 8.66699 39.333 26 54s36.333 22 57 22c22.667 0 40.167 -5.83301 52.5 -17.5z" />
    <glyph glyph-name="Yacute" unicode="&#xdd;" horiz-adv-x="682" 
d="M293 69v221l-232 400l-55 8v60h265v-59l-67 -9l143 -277l21 -49l20 51l126 273l-81 10v60h243v-60l-64 -15l-196 -388v-225l115 -18v-52h-345v52zM473 938l81.002 -81c-26.667 -18 -60.334 -33.833 -101.001 -47.5s-77.334 -22.5 -110.001 -26.5l-34 35z" />
    <glyph glyph-name="Thorn" unicode="&#xde;" horiz-adv-x="647" 
d="M127 68l0.000976562 620.999l-92 9v60h305v-60l-89 -9v-91c9.33301 1.33301 16.333 2 21 2c42.667 5.33301 75.667 8 99 8c81.333 0 145.166 -17.167 191.499 -51.5s69.5 -86.166 69.5 -155.499c0 -51.333 -12.5 -95.333 -37.5 -132s-58.5 -64.5 -100.5 -83.5
s-88.333 -28.5 -139 -28.5c-41.333 0 -76 0.666992 -104 2v-91l128 -16v-52h-340v52zM339.001 216.999c48.667 0 88.5 14.332 119.5 42.999s46.5 74 46.5 136c0 46.667 -14.667 82.834 -44 108.501s-70.666 38.5 -123.999 38.5c-18.667 0 -47.334 -3.33301 -86.001 -10v-311
c18.667 -3.33301 48 -5 88 -5z" />
    <glyph glyph-name="germandbls" unicode="&#xdf;" horiz-adv-x="676" 
d="M106 71l-0.00292969 356.002c0 74 12.167 136.667 36.5 188s57.833 89.833 100.5 115.5s91.334 38.5 146.001 38.5c46.667 0 85.834 -11.333 117.501 -34s47.5 -58.334 47.5 -107.001c0 -28 -5.33301 -51.5 -16 -70.5s-26 -39.167 -46 -60.5
c-16.667 -18.667 -29 -34.5 -37 -47.5s-12 -28.167 -12 -45.5c0 -21.333 7.5 -38.333 22.5 -51s38.5 -26.334 70.5 -41.001c26.667 -12.667 48.5 -24.5 65.5 -35.5s31.5 -25.667 43.5 -44s18 -41.166 18 -68.499c0 -58 -19.5 -101.5 -58.5 -130.5
s-89.833 -43.5 -152.5 -43.5c-58.667 0 -99.667 4.33301 -123 13v89c16 -10 35.333 -19.167 58 -27.5s43 -12.5 61 -12.5c28 0 51.167 7 69.5 21s27.5 35.667 27.5 65c0 21.333 -7.66699 38.166 -23 50.499s-38.666 25.833 -69.999 40.5
c-25.333 11.333 -45.833 21.833 -61.5 31.5s-29 22.5 -40 38.5s-16.5 36 -16.5 60c0 16.667 4.16699 32.667 12.5 48s20.833 34 37.5 56c20 27.333 34.833 50.5 44.5 69.5s14.5 40.5 14.5 64.5c0 32 -7.16699 57.833 -21.5 77.5s-35.5 29.5 -63.5 29.5
c-33.333 0 -59.5 -8.83301 -78.5 -26.5s-32.333 -45.167 -40 -82.5s-11.5 -87 -11.5 -149v-446h-199v52z" />
    <glyph glyph-name="agrave" unicode="&#xe0;" horiz-adv-x="573" 
d="M437 515c35.333 -28.667 53.0039 -76.668 53.0039 -144.001v-320h62v-40c-12 -7.33301 -27.667 -13.166 -47 -17.499s-38.333 -6.5 -57 -6.5c-24 0 -41.333 4.83301 -52 14.5s-16.334 25.5 -17.001 47.5c-36.667 -41.333 -88.334 -62 -155.001 -62
c-34 0 -64.333 6.5 -91 19.5s-47.334 31.167 -62.001 54.5s-22 49.666 -22 78.999c0 44 16.333 80.333 49 109s73.334 49.5 122.001 62.5s97.667 19.5 147 19.5v30c0 45.333 -10.333 77 -31 95s-51.334 27 -92.001 27c-22 0 -47 -3.66699 -75 -11
s-52.333 -16.666 -73 -27.999l-23 55c22.667 18.667 55.167 33.167 97.5 43.5s81.166 15.5 116.499 15.5c64.667 0 114.667 -14.333 150 -43zM232.504 243.999c-39.667 -18 -59.5 -46.667 -59.5 -86c0 -64.667 34.333 -97 103 -97c16 0 32.5 3.33301 49.5 10
s30.5 14.667 40.5 24l1 176c-50 0 -94.833 -9 -134.5 -27zM238.504 709.499c-42.333 29.667 -73.833 59.833 -94.5 90.5l91 82l147 -196l-32 -32c-32 7.33301 -69.167 25.833 -111.5 55.5z" />
    <glyph glyph-name="aacute" unicode="&#xe1;" horiz-adv-x="573" 
d="M437 515c35.333 -28.667 53.0039 -76.668 53.0039 -144.001v-320h62v-40c-12 -7.33301 -27.667 -13.166 -47 -17.499s-38.333 -6.5 -57 -6.5c-24 0 -41.333 4.83301 -52 14.5s-16.334 25.5 -17.001 47.5c-36.667 -41.333 -88.334 -62 -155.001 -62
c-34 0 -64.333 6.5 -91 19.5s-47.334 31.167 -62.001 54.5s-22 49.666 -22 78.999c0 44 16.333 80.333 49 109s73.334 49.5 122.001 62.5s97.667 19.5 147 19.5v30c0 45.333 -10.333 77 -31 95s-51.334 27 -92.001 27c-22 0 -47 -3.66699 -75 -11
s-52.333 -16.666 -73 -27.999l-23 55c22.667 18.667 55.167 33.167 97.5 43.5s81.166 15.5 116.499 15.5c64.667 0 114.667 -14.333 150 -43zM232.504 243.999c-39.667 -18 -59.5 -46.667 -59.5 -86c0 -64.667 34.333 -97 103 -97c16 0 32.5 3.33301 49.5 10
s30.5 14.667 40.5 24l1 176c-50 0 -94.833 -9 -134.5 -27zM365.004 881.999l91.001 -82c-18.667 -29.333 -47.834 -57.333 -87.501 -84s-79.167 -47.667 -118.5 -63l-32 33z" />
    <glyph glyph-name="acircumflex" unicode="&#xe2;" horiz-adv-x="573" 
d="M437 515c35.333 -28.667 53.0039 -76.668 53.0039 -144.001v-320h62v-40c-12 -7.33301 -27.667 -13.166 -47 -17.499s-38.333 -6.5 -57 -6.5c-24 0 -41.333 4.83301 -52 14.5s-16.334 25.5 -17.001 47.5c-36.667 -41.333 -88.334 -62 -155.001 -62
c-34 0 -64.333 6.5 -91 19.5s-47.334 31.167 -62.001 54.5s-22 49.666 -22 78.999c0 44 16.333 80.333 49 109s73.334 49.5 122.001 62.5s97.667 19.5 147 19.5v30c0 45.333 -10.333 77 -31 95s-51.334 27 -92.001 27c-22 0 -47 -3.66699 -75 -11
s-52.333 -16.666 -73 -27.999l-23 55c22.667 18.667 55.167 33.167 97.5 43.5s81.166 15.5 116.499 15.5c64.667 0 114.667 -14.333 150 -43zM232.504 243.999c-39.667 -18 -59.5 -46.667 -59.5 -86c0 -64.667 34.333 -97 103 -97c16 0 32.5 3.33301 49.5 10
s30.5 14.667 40.5 24l1 176c-50 0 -94.833 -9 -134.5 -27zM236.004 866.999h106l130 -187l-53 -28l-130 120l-138 -120l-47 27z" />
    <glyph glyph-name="atilde" unicode="&#xe3;" horiz-adv-x="573" 
d="M437 515c35.333 -28.667 53.0039 -76.668 53.0039 -144.001v-320h62v-40c-12 -7.33301 -27.667 -13.166 -47 -17.499s-38.333 -6.5 -57 -6.5c-24 0 -41.333 4.83301 -52 14.5s-16.334 25.5 -17.001 47.5c-36.667 -41.333 -88.334 -62 -155.001 -62
c-34 0 -64.333 6.5 -91 19.5s-47.334 31.167 -62.001 54.5s-22 49.666 -22 78.999c0 44 16.333 80.333 49 109s73.334 49.5 122.001 62.5s97.667 19.5 147 19.5v30c0 45.333 -10.333 77 -31 95s-51.334 27 -92.001 27c-22 0 -47 -3.66699 -75 -11
s-52.333 -16.666 -73 -27.999l-23 55c22.667 18.667 55.167 33.167 97.5 43.5s81.166 15.5 116.499 15.5c64.667 0 114.667 -14.333 150 -43zM232.504 243.999c-39.667 -18 -59.5 -46.667 -59.5 -86c0 -64.667 34.333 -97 103 -97c16 0 32.5 3.33301 49.5 10
s30.5 14.667 40.5 24l1 176c-50 0 -94.833 -9 -134.5 -27zM149.504 786.999c28.333 18.667 55.167 27.998 80.5 27.998c16 0 29.5 -2.83301 40.5 -8.5s23.5 -14.167 37.5 -25.5c2 -1.33301 6.66699 -4.66602 14 -9.99902s14.333 -9.33301 21 -12s13.334 -4 20.001 -4
c16 0 30.833 3.83301 44.5 11.5s27.5 17.834 41.5 30.501l32 -40c-12 -24 -31.833 -45.333 -59.5 -64s-54.167 -28 -79.5 -28c-16.667 0 -30.834 3 -42.501 9s-24.167 14.333 -37.5 25c-10.667 8.66699 -20 15.167 -28 19.5s-16.667 6.5 -26 6.5
c-25.333 0 -54.333 -14 -87 -42l-32 41c12 23.333 32.167 44.333 60.5 63z" />
    <glyph glyph-name="adieresis" unicode="&#xe4;" horiz-adv-x="573" 
d="M437 515c35.333 -28.667 53.0039 -76.668 53.0039 -144.001v-320h62v-40c-12 -7.33301 -27.667 -13.166 -47 -17.499s-38.333 -6.5 -57 -6.5c-24 0 -41.333 4.83301 -52 14.5s-16.334 25.5 -17.001 47.5c-36.667 -41.333 -88.334 -62 -155.001 -62
c-34 0 -64.333 6.5 -91 19.5s-47.334 31.167 -62.001 54.5s-22 49.666 -22 78.999c0 44 16.333 80.333 49 109s73.334 49.5 122.001 62.5s97.667 19.5 147 19.5v30c0 45.333 -10.333 77 -31 95s-51.334 27 -92.001 27c-22 0 -47 -3.66699 -75 -11
s-52.333 -16.666 -73 -27.999l-23 55c22.667 18.667 55.167 33.167 97.5 43.5s81.166 15.5 116.499 15.5c64.667 0 114.667 -14.333 150 -43zM232.504 243.999c-39.667 -18 -59.5 -46.667 -59.5 -86c0 -64.667 34.333 -97 103 -97c16 0 32.5 3.33301 49.5 10
s30.5 14.667 40.5 24l1 176c-50 0 -94.833 -9 -134.5 -27zM112.504 684.999c-13.667 11.333 -20.502 26.334 -20.502 45.001c0 21.333 8.5 39.166 25.5 53.499s36.167 21.5 57.5 21.5c22.667 0 40.334 -5.66699 53.001 -17s19 -27 19 -47c0 -22 -8.66699 -39.667 -26 -53
s-36.666 -20 -57.999 -20c-20 0 -36.833 5.66699 -50.5 17zM350.002 685c-13.333 11.333 -19.998 26.666 -19.998 45.999c0 20.667 8.66699 38.167 26 52.5s36 21.5 56 21.5c23.333 0 41.166 -5.66699 53.499 -17s18.5 -26.666 18.5 -45.999
c0 -22.667 -8.33301 -40.667 -25 -54s-36.334 -20 -59.001 -20c-20 0 -36.667 5.66699 -50 17z" />
    <glyph glyph-name="aring" unicode="&#xe5;" horiz-adv-x="573" 
d="M437 515c35.333 -28.667 53.0039 -76.668 53.0039 -144.001v-320h62v-40c-12 -7.33301 -27.667 -13.166 -47 -17.499s-38.333 -6.5 -57 -6.5c-24 0 -41.333 4.83301 -52 14.5s-16.334 25.5 -17.001 47.5c-36.667 -41.333 -88.334 -62 -155.001 -62
c-34 0 -64.333 6.5 -91 19.5s-47.334 31.167 -62.001 54.5s-22 49.666 -22 78.999c0 44 16.333 80.333 49 109s73.334 49.5 122.001 62.5s97.667 19.5 147 19.5v30c0 45.333 -10.333 77 -31 95s-51.334 27 -92.001 27c-22 0 -47 -3.66699 -75 -11
s-52.333 -16.666 -73 -27.999l-23 55c22.667 18.667 55.167 33.167 97.5 43.5s81.166 15.5 116.499 15.5c64.667 0 114.667 -14.333 150 -43zM232.504 243.999c-39.667 -18 -59.5 -46.667 -59.5 -86c0 -64.667 34.333 -97 103 -97c16 0 32.5 3.33301 49.5 10
s30.5 14.667 40.5 24l1 176c-50 0 -94.833 -9 -134.5 -27zM343.504 868.999c20.333 -11.333 36.334 -26.501 48.001 -45.501s17.5 -39.5 17.5 -61.5c0 -22.667 -6 -43.5 -18 -62.5s-28 -33.833 -48 -44.5s-41.667 -16 -65 -16s-44.833 5.5 -64.5 16.5
s-35.5 25.833 -47.5 44.5s-18 39.334 -18 62.001s6 43.5 18 62.5s27.833 34 47.5 45s41.167 16.5 64.5 16.5s45.166 -5.66699 65.499 -17zM232.505 806.998c-12.333 -12.667 -18.5 -28 -18.5 -46s6.16699 -33.167 18.5 -45.5s27.833 -18.5 46.5 -18.5
c18 0 33.167 6.16699 45.5 18.5s18.5 27.5 18.5 45.5c0 17.333 -6.33301 32.5 -19 45.5s-27.667 19.5 -45 19.5c-18.667 0 -34.167 -6.33301 -46.5 -19z" />
    <glyph glyph-name="ae" unicode="&#xe6;" horiz-adv-x="895" 
d="M797.5 508c35 -36.667 53.1641 -88.667 54.4971 -156c1.33301 -21.333 0.833008 -40.5 -1.5 -57.5s-3.83301 -27.5 -4.5 -31.5h-355c2 -70 19.833 -120.333 53.5 -151s75.167 -46 124.5 -46c24.667 0 52 3 82 9s54 13.333 72 22l21 -49
c-21.333 -18.667 -53 -33.5 -95 -44.5s-82.667 -16.5 -122 -16.5c-84.667 0 -150.667 27 -198 81c-21.333 -25.333 -50.166 -45.166 -86.499 -59.499s-75.833 -21.5 -118.5 -21.5c-34 0 -64.333 6.66699 -91 20s-47.334 31.5 -62.001 54.5s-22 49.167 -22 78.5
c0 45.333 17.167 82.333 51.5 111s75.833 49.167 124.5 61.5s96 18.5 142 18.5v30c0 45.333 -10.167 76.666 -30.5 93.999s-51.166 26 -92.499 26c-22 0 -47.333 -3.66699 -76 -11s-52.667 -16.333 -72 -27l-24 56c22.667 18.667 55.334 33.167 98.001 43.5
s81.334 15.5 116.001 15.5c39.333 0 73.5 -5.16699 102.5 -15.5s52.167 -27.833 69.5 -52.5c25.333 23.333 54.333 41.333 87 54s68 19 106 19c62.667 0 111.5 -18.333 146.5 -55zM534.997 458.5c-24.667 -30.333 -38.999 -73.5 -42.999 -129.5h236
c0.666992 6.66699 1 17.334 1 32.001c0 49.333 -10.667 81.666 -32 96.999c-12 30.667 -35.333 46 -70 46c-36.667 0 -67.334 -15.167 -92.001 -45.5zM232.498 244c-39.667 -18 -59.5 -46.667 -59.5 -86c0 -64.667 34.333 -97 103 -97c14.667 0 31 3.16699 49 9.5
s31.667 13.5 41 21.5l1 179c-50 0 -94.833 -9 -134.5 -27z" />
    <glyph glyph-name="ccedilla" unicode="&#xe7;" horiz-adv-x="525" 
d="M324 -62c37.333 -0.666992 66.167 -10.333 86.5 -29s30.5 -40 30.5 -64c0 -34.667 -13.667 -60.5 -41 -77.5s-63 -25.5 -107 -25.5c-21.333 0 -39.666 1.83301 -54.999 5.5s-25.333 5.83398 -30 6.50098l1 58c5.33301 -2 14 -3.66699 26 -5s22 -2 30 -2
c18 0 31.833 3 41.5 9s14.5 17.667 14.5 35c0 12.667 -5.16699 22.667 -15.5 30s-25.166 11 -44.499 11c-6 0 -11.167 -0.333008 -15.5 -1s-7.5 -1 -9.5 -1c0 13.333 1.66699 30 5 50s7.66602 38 12.999 54c-66 8.66699 -117.333 37.5 -154 86.5s-55 110.833 -55 185.5
c0 58.667 12.333 110.167 37 154.5s58.5 78.833 101.5 103.5s91.833 37.667 146.5 39c27.333 1.33301 55.5 -0.333984 84.5 -5.00098s50.5 -11 64.5 -19v-132h-62l-30 73c-16.667 12.667 -41.334 19 -74.001 19c-43.333 0 -78.5 -18 -105.5 -54s-40.5 -84.667 -40.5 -146
c0 -49.333 7.83301 -91.333 23.5 -126s36.5 -60.667 62.5 -78s54.333 -26 85 -26c25.333 0 51.333 2.83301 78 8.5s46.667 12.834 60 21.501l21 -49c-18 -16 -42.167 -29 -72.5 -39s-63.5 -16.333 -99.5 -19l-1 -23c0 -8.66699 0.666992 -18.334 2 -29.001h-2z" />
    <glyph glyph-name="egrave" unicode="&#xe8;" horiz-adv-x="575" 
d="M475.5 506c35.667 -38 53.5 -91.334 53.5 -160.001c0 -29.333 -2.33301 -57 -7 -83h-353c1.33301 -62 17.166 -110.333 47.499 -145s73.5 -52 129.5 -52c24.667 0 51 2.83301 79 8.5s50.667 12.834 68 21.501l21 -48c-21.333 -18.667 -52.333 -33.5 -93 -44.5
s-81 -16.5 -121 -16.5c-81.333 0.666992 -144.333 26 -189 76s-67 118 -67 204c0 56.667 12 107.5 36 152.5s57.333 80.167 100 105.5s91.334 38 146.001 38c64 0 113.833 -19 149.5 -57zM212.5 458.999c-23.667 -30 -37.833 -73.333 -42.5 -130h234
c0.666992 7.33301 1 18.333 1 33c0 49.333 -10.667 84 -32 104c-13.333 25.333 -36.666 38 -69.999 38c-36.667 0 -66.834 -15 -90.501 -45zM257.501 709.499c-42.333 29.667 -73.833 59.833 -94.5 90.5l91 82l147 -196l-32 -32c-32 7.33301 -69.167 25.833 -111.5 55.5z
" />
    <glyph glyph-name="eacute" unicode="&#xe9;" horiz-adv-x="575" 
d="M475.5 506c35.667 -38 53.5 -91.334 53.5 -160.001c0 -29.333 -2.33301 -57 -7 -83h-353c1.33301 -62 17.166 -110.333 47.499 -145s73.5 -52 129.5 -52c24.667 0 51 2.83301 79 8.5s50.667 12.834 68 21.501l21 -48c-21.333 -18.667 -52.333 -33.5 -93 -44.5
s-81 -16.5 -121 -16.5c-81.333 0.666992 -144.333 26 -189 76s-67 118 -67 204c0 56.667 12 107.5 36 152.5s57.333 80.167 100 105.5s91.334 38 146.001 38c64 0 113.833 -19 149.5 -57zM212.5 458.999c-23.667 -30 -37.833 -73.333 -42.5 -130h234
c0.666992 7.33301 1 18.333 1 33c0 49.333 -10.667 84 -32 104c-13.333 25.333 -36.666 38 -69.999 38c-36.667 0 -66.834 -15 -90.501 -45zM385.001 881.999l91.001 -82c-18.667 -29.333 -47.834 -57.333 -87.501 -84s-79.167 -47.667 -118.5 -63l-32 33z" />
    <glyph glyph-name="ecircumflex" unicode="&#xea;" horiz-adv-x="575" 
d="M475.5 506c35.667 -38 53.5 -91.334 53.5 -160.001c0 -29.333 -2.33301 -57 -7 -83h-353c1.33301 -62 17.166 -110.333 47.499 -145s73.5 -52 129.5 -52c24.667 0 51 2.83301 79 8.5s50.667 12.834 68 21.501l21 -48c-21.333 -18.667 -52.333 -33.5 -93 -44.5
s-81 -16.5 -121 -16.5c-81.333 0.666992 -144.333 26 -189 76s-67 118 -67 204c0 56.667 12 107.5 36 152.5s57.333 80.167 100 105.5s91.334 38 146.001 38c64 0 113.833 -19 149.5 -57zM212.5 458.999c-23.667 -30 -37.833 -73.333 -42.5 -130h234
c0.666992 7.33301 1 18.333 1 33c0 49.333 -10.667 84 -32 104c-13.333 25.333 -36.666 38 -69.999 38c-36.667 0 -66.834 -15 -90.501 -45zM256.001 866.999h106l130 -187l-53 -28l-130 120l-138 -120l-47 27z" />
    <glyph glyph-name="edieresis" unicode="&#xeb;" horiz-adv-x="575" 
d="M475.5 506c35.667 -38 53.5 -91.334 53.5 -160.001c0 -29.333 -2.33301 -57 -7 -83h-353c1.33301 -62 17.166 -110.333 47.499 -145s73.5 -52 129.5 -52c24.667 0 51 2.83301 79 8.5s50.667 12.834 68 21.501l21 -48c-21.333 -18.667 -52.333 -33.5 -93 -44.5
s-81 -16.5 -121 -16.5c-81.333 0.666992 -144.333 26 -189 76s-67 118 -67 204c0 56.667 12 107.5 36 152.5s57.333 80.167 100 105.5s91.334 38 146.001 38c64 0 113.833 -19 149.5 -57zM212.5 458.999c-23.667 -30 -37.833 -73.333 -42.5 -130h234
c0.666992 7.33301 1 18.333 1 33c0 49.333 -10.667 84 -32 104c-13.333 25.333 -36.666 38 -69.999 38c-36.667 0 -66.834 -15 -90.501 -45zM132.501 684.999c-13.667 11.333 -20.502 26.334 -20.502 45.001c0 21.333 8.5 39.166 25.5 53.499s36.167 21.5 57.5 21.5
c22.667 0 40.334 -5.66699 53.001 -17s19 -27 19 -47c0 -22 -8.66699 -39.667 -26 -53s-36.666 -20 -57.999 -20c-20 0 -36.833 5.66699 -50.5 17zM369.999 685c-13.333 11.333 -19.998 26.666 -19.998 45.999c0 20.667 8.66699 38.167 26 52.5s36 21.5 56 21.5
c23.333 0 41.166 -5.66699 53.499 -17s18.5 -26.666 18.5 -45.999c0 -22.667 -8.33301 -40.667 -25 -54s-36.334 -20 -59.001 -20c-20 0 -36.667 5.66699 -50 17z" />
    <glyph glyph-name="igrave" unicode="&#xec;" horiz-adv-x="344" 
d="M129 709c-42.667 29.333 -74.333 59.668 -95 91.001l91 82l147 -196l-32 -32c-31.333 7.33301 -68.333 25.666 -111 54.999zM126.001 62.002v365l-66 48v36l157 48l29 -10v-487l75 -11v-51h-272v51z" />
    <glyph glyph-name="iacute" unicode="&#xed;" horiz-adv-x="344" 
d="M126 62v365l-66 48v36l157 47l29 -10v-486l76 -11v-51h-273v51zM257 882l91.001 -82c-18.667 -29.333 -47.834 -57.333 -87.501 -84s-79.167 -47.667 -118.5 -63l-32 33z" />
    <glyph glyph-name="icircumflex" unicode="&#xee;" horiz-adv-x="344" 
d="M127 867h104l131 -187l-53 -28l-131 120l-137 -120l-47 27zM126 62v365l-66 48v36l157 48l29 -10v-487l75 -11v-51h-272v51z" />
    <glyph glyph-name="idieresis" unicode="&#xef;" horiz-adv-x="344" 
d="M126 62v365l-66 48v36l157 47l29 -10v-486l76 -11v-51h-273v51zM2.5 685c-13.667 11.333 -20.502 26.334 -20.502 45.001c0 21.333 8.5 39.166 25.5 53.499s36.167 21.5 57.5 21.5c22.667 0 40.334 -5.66699 53.001 -17s19 -27 19 -47c0 -22 -8.66699 -39.667 -26 -53
s-36.666 -20 -57.999 -20c-20 0 -36.833 5.66699 -50.5 17zM239.998 685.001c-13.333 11.333 -19.998 26.666 -19.998 45.999c0 20.667 8.66699 38.167 26 52.5s36 21.5 56 21.5c23.333 0 41.166 -5.66699 53.499 -17s18.5 -26.666 18.5 -45.999
c0 -22.667 -8.33301 -40.667 -25 -54s-36.334 -20 -59.001 -20c-20 0 -36.667 5.66699 -50 17z" />
    <glyph glyph-name="eth" unicode="&#xf0;" horiz-adv-x="617" 
d="M446 798l-78.001 -67.9971c67.333 -51.333 118 -113.833 152 -187.5s51 -151.834 51 -234.501c0 -104 -24.5 -183.5 -73.5 -238.5s-115.833 -82.5 -200.5 -82.5c-50 0 -94.167 11.167 -132.5 33.5s-68.166 53 -89.499 92s-32 83.167 -32 132.5
c0 55.333 11.5 102.833 34.5 142.5s54.333 70 94 91s84.167 31.5 133.5 31.5c26 0 52.833 -5.5 80.5 -16.5s49.167 -24.833 64.5 -41.5c-9.33301 43.333 -26.166 84.166 -50.499 122.499s-53.833 72.5 -88.5 102.5l-82 -72l-49 40l78 72
c-34.667 22 -69.334 37.333 -104.001 46l13 61c52 -12.667 100 -31.334 144 -56.001l54 47l29 27zM203.499 397.003c-21 -34 -31.498 -82.667 -31.498 -146c0 -35.333 5.66699 -68.5 17 -99.5s27.666 -56.167 48.999 -75.5s46.333 -29 75 -29c42 0 74.667 22.167 98 66.5
s35 97.5 35 159.5c0 27.333 -1 45.333 -3 54c-6.66699 29.333 -21.834 56.833 -45.501 82.5s-54.167 38.5 -91.5 38.5c-47.333 0 -81.5 -17 -102.5 -51z" />
    <glyph glyph-name="ntilde" unicode="&#xf1;" horiz-adv-x="694" 
d="M124 61l-0.000976562 370.001l-68 41v42l149 44l27 -9v-71c25.333 22.667 57.5 41.667 96.5 57s75.5 23 109.5 23c57.333 0 97.5 -18 120.5 -54s34.5 -93.333 34.5 -172v-271l74 -10v-51h-270v51l73 11v251c0 39.333 -2.66699 70.166 -8 92.499s-15.333 38.833 -30 49.5
s-36 16 -64 16c-17.333 0 -37.166 -3.33301 -59.499 -10s-42.5 -16.667 -60.5 -30v-369l68 -11v-51h-256v51zM230.499 787.001c28.333 18.667 55.167 27.998 80.5 27.998c16 0 29.5 -2.83301 40.5 -8.5s23.5 -14.167 37.5 -25.5c2 -1.33301 6.66699 -4.66602 14 -9.99902
s14.333 -9.33301 21 -12s13.334 -4 20.001 -4c16 0 30.833 3.83301 44.5 11.5s27.5 17.834 41.5 30.501l32 -40c-12 -24 -31.833 -45.333 -59.5 -64s-54.167 -28 -79.5 -28c-16.667 0 -30.834 3 -42.501 9s-24.167 14.333 -37.5 25c-10.667 8.66699 -20 15.167 -28 19.5
s-16.667 6.5 -26 6.5c-25.333 0 -54.333 -14 -87 -42l-32 41c12 23.333 32.167 44.333 60.5 63z" />
    <glyph glyph-name="ograve" unicode="&#xf2;" horiz-adv-x="619" 
d="M510 487.5c43.333 -50.333 64.999 -117.499 64.999 -201.499c0 -58.667 -11.667 -110.5 -35 -155.5s-55.333 -80 -96 -105s-86.667 -37.5 -138 -37.5c-86 0 -151 26.5 -195 79.5s-66 122.167 -66 207.5c0 58.667 12.333 109.667 37 153s57.834 76.666 99.501 99.999
s88.167 35 139.5 35c82.667 0 145.667 -25.167 189 -75.5zM175.999 289.001c0 -65.333 11.332 -121.33 33.999 -167.997s56.334 -70.334 101.001 -71.001c48.667 -0.666992 83.167 18.666 103.5 57.999s30.5 95.666 30.5 168.999c0 67.333 -10.833 121.833 -32.5 163.5
s-55.5 62.5 -101.5 62.5c-90 0 -135 -71.333 -135 -214zM266.498 709.504c-42.333 29.667 -73.833 59.833 -94.5 90.5l91 82l147 -196l-32 -32c-32 7.33301 -69.167 25.833 -111.5 55.5z" />
    <glyph glyph-name="oacute" unicode="&#xf3;" horiz-adv-x="619" 
d="M510 487.5c43.333 -50.333 64.999 -117.499 64.999 -201.499c0 -58.667 -11.667 -110.5 -35 -155.5s-55.333 -80 -96 -105s-86.667 -37.5 -138 -37.5c-86 0 -151 26.5 -195 79.5s-66 122.167 -66 207.5c0 58.667 12.333 109.667 37 153s57.834 76.666 99.501 99.999
s88.167 35 139.5 35c82.667 0 145.667 -25.167 189 -75.5zM175.999 289.001c0 -65.333 11.332 -121.33 33.999 -167.997s56.334 -70.334 101.001 -71.001c48.667 -0.666992 83.167 18.666 103.5 57.999s30.5 95.666 30.5 168.999c0 67.333 -10.833 121.833 -32.5 163.5
s-55.5 62.5 -101.5 62.5c-90 0 -135 -71.333 -135 -214zM392.998 882.004l91.001 -82c-18.667 -29.333 -47.834 -57.333 -87.501 -84s-79.167 -47.667 -118.5 -63l-32 33z" />
    <glyph glyph-name="ocircumflex" unicode="&#xf4;" horiz-adv-x="619" 
d="M510 487.5c43.333 -50.333 64.999 -117.499 64.999 -201.499c0 -58.667 -11.667 -110.5 -35 -155.5s-55.333 -80 -96 -105s-86.667 -37.5 -138 -37.5c-86 0 -151 26.5 -195 79.5s-66 122.167 -66 207.5c0 58.667 12.333 109.667 37 153s57.834 76.666 99.501 99.999
s88.167 35 139.5 35c82.667 0 145.667 -25.167 189 -75.5zM175.999 289.001c0 -65.333 11.332 -121.33 33.999 -167.997s56.334 -70.334 101.001 -71.001c48.667 -0.666992 83.167 18.666 103.5 57.999s30.5 95.666 30.5 168.999c0 67.333 -10.833 121.833 -32.5 163.5
s-55.5 62.5 -101.5 62.5c-90 0 -135 -71.333 -135 -214zM262.998 867.004h106l130 -187l-53 -28l-130 120l-138 -120l-47 27z" />
    <glyph glyph-name="otilde" unicode="&#xf5;" horiz-adv-x="619" 
d="M510 487.5c43.333 -50.333 64.999 -117.499 64.999 -201.499c0 -58.667 -11.667 -110.5 -35 -155.5s-55.333 -80 -96 -105s-86.667 -37.5 -138 -37.5c-86 0 -151 26.5 -195 79.5s-66 122.167 -66 207.5c0 58.667 12.333 109.667 37 153s57.834 76.666 99.501 99.999
s88.167 35 139.5 35c82.667 0 145.667 -25.167 189 -75.5zM175.999 289.001c0 -65.333 11.332 -121.33 33.999 -167.997s56.334 -70.334 101.001 -71.001c48.667 -0.666992 83.167 18.666 103.5 57.999s30.5 95.666 30.5 168.999c0 67.333 -10.833 121.833 -32.5 163.5
s-55.5 62.5 -101.5 62.5c-90 0 -135 -71.333 -135 -214zM176.498 787.004c28.333 18.667 55.167 27.998 80.5 27.998c16 0 29.5 -2.83301 40.5 -8.5s23.5 -14.167 37.5 -25.5c2 -1.33301 6.66699 -4.66602 14 -9.99902s14.333 -9.33301 21 -12s13.334 -4 20.001 -4
c16 0 30.833 3.83301 44.5 11.5s27.5 17.834 41.5 30.501l32 -40c-12 -24 -31.833 -45.333 -59.5 -64s-54.167 -28 -79.5 -28c-16.667 0 -30.834 3 -42.501 9s-24.167 14.333 -37.5 25c-10.667 8.66699 -20 15.167 -28 19.5s-16.667 6.5 -26 6.5
c-25.333 0 -54.333 -14 -87 -42l-32 41c12 23.333 32.167 44.333 60.5 63z" />
    <glyph glyph-name="odieresis" unicode="&#xf6;" horiz-adv-x="619" 
d="M510 487.5c43.333 -50.333 64.999 -117.499 64.999 -201.499c0 -58.667 -11.667 -110.5 -35 -155.5s-55.333 -80 -96 -105s-86.667 -37.5 -138 -37.5c-86 0 -151 26.5 -195 79.5s-66 122.167 -66 207.5c0 58.667 12.333 109.667 37 153s57.834 76.666 99.501 99.999
s88.167 35 139.5 35c82.667 0 145.667 -25.167 189 -75.5zM175.999 289.001c0 -65.333 11.332 -121.33 33.999 -167.997s56.334 -70.334 101.001 -71.001c48.667 -0.666992 83.167 18.666 103.5 57.999s30.5 95.666 30.5 168.999c0 67.333 -10.833 121.833 -32.5 163.5
s-55.5 62.5 -101.5 62.5c-90 0 -135 -71.333 -135 -214zM139.498 685.004c-13.667 11.333 -20.502 26.334 -20.502 45.001c0 21.333 8.5 39.166 25.5 53.499s36.167 21.5 57.5 21.5c22.667 0 40.334 -5.66699 53.001 -17s19 -27 19 -47c0 -22 -8.66699 -39.667 -26 -53
s-36.666 -20 -57.999 -20c-20 0 -36.833 5.66699 -50.5 17zM376.996 685.005c-13.333 11.333 -19.998 26.666 -19.998 45.999c0 20.667 8.66699 38.167 26 52.5s36 21.5 56 21.5c23.333 0 41.166 -5.66699 53.499 -17s18.5 -26.666 18.5 -45.999
c0 -22.667 -8.33301 -40.667 -25 -54s-36.334 -20 -59.001 -20c-20 0 -36.667 5.66699 -50 17z" />
    <glyph glyph-name="divide" unicode="&#xf7;" horiz-adv-x="646" 
d="M392 666.5c12.667 -13 18.999 -30.832 18.999 -53.499c0 -24 -8.83301 -44 -26.5 -60s-38.5 -24 -62.5 -24c-20.667 0 -38.167 6.66699 -52.5 20s-21.5 30.666 -21.5 51.999c0 22.667 9.16699 42.5 27.5 59.5s38.5 25.5 60.5 25.5c24.667 0 43.334 -6.5 56.001 -19.5z
M558.999 354.001h-471v88h471v-88zM391.499 245.501c13 -13 19.5 -30.5 19.5 -52.5c0 -24.667 -9.16699 -45 -27.5 -61s-39.5 -24 -63.5 -24c-20 0 -37.167 6.66699 -51.5 20s-21.5 30.333 -21.5 51c0 23.333 9.16699 43.5 27.5 60.5s38.5 25.5 60.5 25.5
c24.667 0 43.5 -6.5 56.5 -19.5z" />
    <glyph glyph-name="oslash" unicode="&#xf8;" horiz-adv-x="619" 
d="M82.5 107.5c-25 47 -37.5 101.836 -37.5 164.503c0 59.333 12 110.666 36 153.999s56.833 76.666 98.5 99.999s88.167 35.666 139.5 36.999c22 0 43 -2 63 -6l26 80l45 -14l-26 -80c48 -19.333 84.667 -51.5 110 -96.5s38 -98.167 38 -159.5
c0 -58.667 -11.667 -110.667 -35 -156s-55.5 -80.5 -96.5 -105.5s-86.833 -37.5 -137.5 -37.5c-19.333 0 -40 2.33301 -62 7l-30 -92l-47 15l30 89c-51.333 20 -89.5 53.5 -114.5 100.5zM311 503.003c-90 0 -135 -71.333 -135 -214c0 -38 4.5 -74.5 13.5 -109.5
s21.833 -63.167 38.5 -84.5l130 399c-14 6 -29.667 9 -47 9zM313 50.0029c47.333 0 81 19.5 101 58.5s30 95.167 30 168.5c0 84 -15.333 145 -46 183l-131 -400c12 -6.66699 27.333 -10 46 -10z" />
    <glyph glyph-name="ugrave" unicode="&#xf9;" horiz-adv-x="638" 
d="M257.5 709c-42.333 29.333 -74.168 59.668 -95.501 91.001l91 82l147 -196l-32 -32c-31.333 7.33301 -68.166 25.666 -110.499 54.999zM43.998 479.002v46.001l148 33l20 -9v-337c0 -52 6.5 -89.167 19.5 -111.5s37.833 -33.5 74.5 -33.5c21.333 0 43.5 4.66699 66.5 14
s39.833 19 50.5 29v342l-61 22v50l163 34l18 -8v-499h58v-44c-10 -6 -26.333 -11.333 -49 -16s-42.334 -7 -59.001 -7c-18 0 -32.167 3.83301 -42.5 11.5s-15.5 19.167 -15.5 34.5v33c-23.333 -22.667 -50.666 -40.667 -81.999 -54s-61.333 -20 -90 -20
c-48 0 -84.167 8.83301 -108.5 26.5s-40.5 42.167 -48.5 73.5s-12.333 72.666 -13 123.999v244z" />
    <glyph glyph-name="uacute" unicode="&#xfa;" horiz-adv-x="638" 
d="M384 882l91.001 -82c-18.667 -29.333 -47.834 -57.333 -87.501 -84s-79.167 -47.667 -118.5 -63l-32 33zM44.001 479v46.001l148 33l20 -9v-337c0 -52 6.5 -89.167 19.5 -111.5s37.833 -33.5 74.5 -33.5c21.333 0 43.5 4.66699 66.5 14s39.833 19 50.5 29v342l-61 22v50
l163 34l18 -8v-499h58v-44c-10 -6 -26.333 -11.333 -49 -16s-42.334 -7 -59.001 -7c-18 0 -32.167 3.83301 -42.5 11.5s-15.5 19.167 -15.5 34.5v33c-23.333 -22.667 -50.666 -40.667 -81.999 -54s-61.333 -20 -90 -20c-48 0 -84.167 8.83301 -108.5 26.5
s-40.5 42.167 -48.5 73.5s-12.333 72.666 -13 123.999v244z" />
    <glyph glyph-name="ucircumflex" unicode="&#xfb;" horiz-adv-x="638" 
d="M254 867h105l131 -187l-53 -28l-130 120l-138 -120l-47 27zM44 479v46.001l148 33l20 -9v-337c0 -52 6.5 -89.167 19.5 -111.5s37.833 -33.5 74.5 -33.5c21.333 0 43.5 4.66699 66.5 14s39.833 19 50.5 29v342l-61 22v50l163 34l18 -8v-499h58v-44
c-10 -6 -26.333 -11.333 -49 -16s-42.334 -7 -59.001 -7c-18 0 -32.167 3.83301 -42.5 11.5s-15.5 19.167 -15.5 34.5v33c-23.333 -22.667 -50.666 -40.667 -81.999 -54s-61.333 -20 -90 -20c-48 0 -84.167 8.83301 -108.5 26.5s-40.5 42.167 -48.5 73.5
s-12.333 72.666 -13 123.999v244z" />
    <glyph glyph-name="udieresis" unicode="&#xfc;" horiz-adv-x="638" 
d="M44 479v46.001l148 33l20 -9v-337c0 -52 6.5 -89.167 19.5 -111.5s37.833 -33.5 74.5 -33.5c21.333 0 43.5 4.66699 66.5 14s39.833 19 50.5 29v342l-61 22v50l163 34l18 -8v-499h58v-44c-10 -6 -26.333 -11.333 -49 -16s-42.334 -7 -59.001 -7
c-18 0 -32.167 3.83301 -42.5 11.5s-15.5 19.167 -15.5 34.5v33c-23.333 -22.667 -50.666 -40.667 -81.999 -54s-61.333 -20 -90 -20c-48 0 -84.167 8.83301 -108.5 26.5s-40.5 42.167 -48.5 73.5s-12.333 72.666 -13 123.999v244zM131.5 685.001
c-13.667 11.333 -20.502 26.334 -20.502 45.001c0 21.333 8.5 39.166 25.5 53.499s36.167 21.5 57.5 21.5c22.667 0 40.334 -5.66699 53.001 -17s19 -27 19 -47c0 -22 -8.66699 -39.667 -26 -53s-36.666 -20 -57.999 -20c-20 0 -36.833 5.66699 -50.5 17zM368.998 685.002
c-13.333 11.333 -19.998 26.666 -19.998 45.999c0 20.667 8.66699 38.167 26 52.5s36 21.5 56 21.5c23.333 0 41.166 -5.66699 53.499 -17s18.5 -26.666 18.5 -45.999c0 -22.667 -8.33301 -40.667 -25 -54s-36.334 -20 -59.001 -20c-20 0 -36.667 5.66699 -50 17z" />
    <glyph glyph-name="yacute" unicode="&#xfd;" horiz-adv-x="576" 
d="M123 -157c29.333 0 56.668 12.333 82.001 37s46 65 62 121h-24l-194 470l-48 11v64h248v-64l-65 -11l107 -304l24 -80l24 81l91 304l-73 10v64h224v-64l-51 -9l-108 -301l-74 -194c-24 -60 -47.333 -106.667 -70 -140s-49 -56.333 -79 -69
c-20.667 -16.667 -45.334 -25 -74.001 -25c-10 0 -20.5 0.666992 -31.5 2s-18.167 3 -21.5 5v98c16 -4.66699 33 -6.66699 51 -6zM385.002 882l91.001 -82c-18.667 -29.333 -47.834 -57.333 -87.501 -84s-79.167 -47.667 -118.5 -63l-32 33z" />
    <glyph glyph-name="thorn" unicode="&#xfe;" horiz-adv-x="631" 
d="M216 786l-0.00390625 -275c20.667 15.333 42.834 27.833 66.501 37.5s50.834 14.5 81.501 14.5c42.667 0 80.834 -9.83301 114.501 -29.5s60.334 -49.667 80.001 -90s29.5 -89.833 29.5 -148.5c0 -56 -12.333 -107.5 -37 -154.5s-59 -84.5 -103 -112.5
s-93.333 -42 -148 -42c-28.667 0 -58 2.66699 -88 8l4 -44v-137l98 -11v-52h-291v52l70 12v887l-75 21v52l175 20zM257.496 478.5c-17 -6.33301 -30.832 -14.167 -41.499 -23.5v-370c5.33301 -12.667 16.833 -22.5 34.5 -29.5s38.5 -10.5 62.5 -10.5
c29.333 0 55.5 9.66699 78.5 29s40.833 47.5 53.5 84.5s19 80.5 19 130.5c0 42 -6.83301 78 -20.5 108s-31.834 52.667 -54.501 68s-47.667 23 -75 23c-20.667 0 -39.5 -3.16699 -56.5 -9.5z" />
    <glyph glyph-name="ydieresis" unicode="&#xff;" horiz-adv-x="576" 
d="M123 -157c29.333 0 56.668 12.333 82.001 37s46 65 62 121h-24l-194 470l-48 11v64h248v-64l-65 -11l107 -304l24 -80l24 81l91 304l-73 10v64h224v-64l-51 -9l-108 -301l-74 -194c-24 -60 -47.333 -106.667 -70 -140s-49 -56.333 -79 -69
c-20.667 -16.667 -45.334 -25 -74.001 -25c-10 0 -20.5 0.666992 -31.5 2s-18.167 3 -21.5 5v98c16 -4.66699 33 -6.66699 51 -6zM132.502 685c-13.667 11.333 -20.502 26.334 -20.502 45.001c0 21.333 8.5 39.166 25.5 53.499s36.167 21.5 57.5 21.5
c22.667 0 40.334 -5.66699 53.001 -17s19 -27 19 -47c0 -22 -8.66699 -39.667 -26 -53s-36.666 -20 -57.999 -20c-20 0 -36.833 5.66699 -50.5 17zM370 685.001c-13.333 11.333 -19.998 26.666 -19.998 45.999c0 20.667 8.66699 38.167 26 52.5s36 21.5 56 21.5
c23.333 0 41.166 -5.66699 53.499 -17s18.5 -26.666 18.5 -45.999c0 -22.667 -8.33301 -40.667 -25 -54s-36.334 -20 -59.001 -20c-20 0 -36.667 5.66699 -50 17z" />
    <glyph glyph-name="Amacron" unicode="&#x100;" horiz-adv-x="747" 
d="M505 914v-89h-265v89h265zM69 68l249 690h112l239 -690l77 -17v-51h-286v51l75 17l-40 127h-282l-42 -126l78 -17v-52h-248v52zM399 496l-43 143l-121 -374h237z" />
    <glyph glyph-name="amacron" unicode="&#x101;" horiz-adv-x="573" 
d="M437 515c35.333 -28.667 53.0039 -76.668 53.0039 -144.001v-320h62v-40c-12 -7.33301 -27.667 -13.166 -47 -17.499s-38.333 -6.5 -57 -6.5c-24 0 -41.333 4.83301 -52 14.5s-16.334 25.5 -17.001 47.5c-36.667 -41.333 -88.334 -62 -155.001 -62
c-34 0 -64.333 6.5 -91 19.5s-47.334 31.167 -62.001 54.5s-22 49.666 -22 78.999c0 44 16.333 80.333 49 109s73.334 49.5 122.001 62.5s97.667 19.5 147 19.5v30c0 45.333 -10.333 77 -31 95s-51.334 27 -92.001 27c-22 0 -47 -3.66699 -75 -11
s-52.333 -16.666 -73 -27.999l-23 55c22.667 18.667 55.167 33.167 97.5 43.5s81.166 15.5 116.499 15.5c64.667 0 114.667 -14.333 150 -43zM232.504 243.999c-39.667 -18 -59.5 -46.667 -59.5 -86c0 -64.667 34.333 -97 103 -97c16 0 32.5 3.33301 49.5 10
s30.5 14.667 40.5 24l1 176c-50 0 -94.833 -9 -134.5 -27zM421.004 775.999v-89h-265v89h265z" />
    <glyph glyph-name="Abreve" unicode="&#x102;" horiz-adv-x="747" 
d="M519.5 882c-14.333 -24 -34.3311 -43.167 -59.998 -57.5s-54.167 -21.5 -85.5 -21.5c-32.667 0 -61.667 7 -87 21s-45 33 -59 57s-21 50.333 -21 79h64c7.33301 -20.667 18.166 -38.5 32.499 -53.5s38.166 -22.5 71.499 -22.5c32 0 55.167 7.33301 69.5 22
s25.833 32.667 34.5 54h62c0 -28 -7.16699 -54 -21.5 -78zM69.002 68l249 690h112l239 -690l77 -17v-51h-286v51l75 17l-40 127h-282l-42 -126l78 -17v-52h-248v52zM399.002 496l-43 143l-121 -374h237z" />
    <glyph glyph-name="abreve" unicode="&#x103;" horiz-adv-x="573" 
d="M437 515c35.333 -28.667 53.0039 -76.668 53.0039 -144.001v-320h62v-40c-12 -7.33301 -27.667 -13.166 -47 -17.499s-38.333 -6.5 -57 -6.5c-24 0 -41.333 4.83301 -52 14.5s-16.334 25.5 -17.001 47.5c-36.667 -41.333 -88.334 -62 -155.001 -62
c-34 0 -64.333 6.5 -91 19.5s-47.334 31.167 -62.001 54.5s-22 49.666 -22 78.999c0 44 16.333 80.333 49 109s73.334 49.5 122.001 62.5s97.667 19.5 147 19.5v30c0 45.333 -10.333 77 -31 95s-51.334 27 -92.001 27c-22 0 -47 -3.66699 -75 -11
s-52.333 -16.666 -73 -27.999l-23 55c22.667 18.667 55.167 33.167 97.5 43.5s81.166 15.5 116.499 15.5c64.667 0 114.667 -14.333 150 -43zM232.504 243.999c-39.667 -18 -59.5 -46.667 -59.5 -86c0 -64.667 34.333 -97 103 -97c16 0 32.5 3.33301 49.5 10
s30.5 14.667 40.5 24l1 176c-50 0 -94.833 -9 -134.5 -27zM440.504 749.499c-15 -25 -35.499 -45.0029 -61.499 -60.0029s-54.667 -22.5 -86 -22.5c-32.667 0 -62 7.33301 -88 22s-46.167 34.334 -60.5 59.001s-21.5 51.334 -21.5 80.001h67
c5.33301 -14 11.166 -26.167 17.499 -36.5s16.5 -20.166 30.5 -29.499s32.667 -14 56 -14c32 0 55.333 8 70 24s26 35 34 57h65c0 -28 -7.5 -54.5 -22.5 -79.5z" />
    <glyph glyph-name="Aogonek" unicode="&#x104;" horiz-adv-x="747" 
d="M69 68l249.001 690h112l239 -690l77 -17v-51h-101c-32 -12 -63.167 -31.333 -93.5 -58s-45.5 -50.667 -45.5 -72c0 -18 4.66699 -30.333 14 -37s23.666 -10 42.999 -10c14 0 28 2.33301 42 7s27 9.5 39 14.5l25 10.5l13 -51c-23.333 -17.333 -49 -31.5 -77 -42.5
s-61 -16.5 -99 -16.5c-36.667 0 -64.5 8.33301 -83.5 25s-28.5 37.667 -28.5 63c0 30 16.333 61.167 49 93.5s68.667 56.833 108 73.5h-91v51l75 17l-40 127h-282l-42 -126l78 -17v-52h-248v52zM399.001 496l-43 143l-121 -374h237z" />
    <glyph glyph-name="aogonek" unicode="&#x105;" horiz-adv-x="573" 
d="M437 515c35.333 -28.667 53.001 -76.668 53.001 -144.001l-1 -320h63v-43c-36 -20 -65.333 -41.667 -88 -65s-34 -45.666 -34 -66.999c0 -36 20.333 -54 61 -54c17.333 0 39 4.33301 65 13v-54c-14 -10.667 -31.167 -19 -51.5 -25s-40.833 -9 -61.5 -9
c-34 0 -62.333 8 -85 24s-34 39.667 -34 71c0 27.333 10.833 54.5 32.5 81.5s47.834 48.5 78.501 64.5c-20 0.666992 -34.5 6 -43.5 16s-13.5 25 -13.5 45c-36.667 -41.333 -88.334 -62 -155.001 -62c-34 0 -64.167 6.66699 -90.5 20s-46.833 31.833 -61.5 55.5
s-22 50.5 -22 80.5c0 43.333 16.5 79.166 49.5 107.499s73.833 48.833 122.5 61.5s97.334 19 146.001 19v29c0 46 -10.333 78 -31 96s-51.334 27 -92.001 27c-22 0 -47 -3.66699 -75 -11s-52.333 -16.666 -73 -27.999l-23 55c22.667 18.667 55.167 33.167 97.5 43.5
s81.166 15.5 116.499 15.5c64.667 0 114.667 -14.333 150 -43zM232.501 243.999c-39.667 -18 -59.5 -46.667 -59.5 -86c0 -64.667 34.333 -97 103 -97c16 0 32.5 3.33301 49.5 10s30.5 14.667 40.5 24l1 176c-50 0 -94.833 -9 -134.5 -27z" />
    <glyph glyph-name="Cacute" unicode="&#x106;" horiz-adv-x="699" 
d="M539 757c28 -5.33301 57.0039 -12.0049 87.0039 -20.0049l24 -6l-9 -158h-69l-30 87c-16 12.667 -33.5 21.834 -52.5 27.501s-45.833 8.5 -80.5 8.5c-44.667 0 -84.834 -12.667 -120.501 -38s-63.834 -61.166 -84.501 -107.499s-31 -100.166 -31 -161.499
c0 -60.667 9.5 -116.834 28.5 -168.501s47 -93 84 -124s81.5 -46.5 133.5 -46.5c72 0 119.333 17 142 51l32 83h58v-152c-10.667 -0.666992 -28.334 -5 -53.001 -13c-31.333 -10 -62.166 -18 -92.499 -24s-65.5 -9 -105.5 -9c-70 0 -132.333 15.333 -187 46
s-97.334 73.834 -128.001 129.501s-46 119.834 -46 192.501c0 79.333 18.333 150.333 55 213s86.167 111.334 148.5 146.001s130.166 52 203.499 52c34 0 65 -2.66699 93 -8zM508.004 937.995l81.002 -81c-26.667 -18 -60.334 -33.833 -101.001 -47.5
s-77.334 -22.5 -110.001 -26.5l-34 35z" />
    <glyph glyph-name="cacute" unicode="&#x107;" horiz-adv-x="525" 
d="M415.5 556c29 -4.66699 50.499 -11 64.499 -19v-132h-62l-30 73c-16.667 12.667 -41.334 19 -74.001 19c-43.333 0 -78.5 -18 -105.5 -54s-40.5 -84.667 -40.5 -146c0 -49.333 7.83301 -91.333 23.5 -126s36.5 -60.667 62.5 -78s54.333 -26 85 -26
c25.333 0 51.333 2.83301 78 8.5s46.667 12.834 60 21.501l21 -49c-21.333 -18.667 -50.166 -33.167 -86.499 -43.5s-75.5 -15.5 -117.5 -15.5c-51.333 0 -95.666 11.667 -132.999 35s-65.833 55.833 -85.5 97.5s-29.5 89.167 -29.5 142.5c0 58.667 12.333 110.167 37 154.5
s58.5 78.833 101.5 103.5s91.833 37.667 146.5 39c27.333 1.33301 55.5 -0.333984 84.5 -5.00098zM392.999 882l91.001 -82c-18.667 -29.333 -47.834 -57.333 -87.501 -84s-79.167 -47.667 -118.5 -63l-32 33z" />
    <glyph glyph-name="Ccaron" unicode="&#x10c;" horiz-adv-x="699" 
d="M539 757c28 -5.33301 57.0039 -12.0049 87.0039 -20.0049l24 -6l-9 -158h-69l-30 87c-16 12.667 -33.5 21.834 -52.5 27.501s-45.833 8.5 -80.5 8.5c-44.667 0 -84.834 -12.667 -120.501 -38s-63.834 -61.166 -84.501 -107.499s-31 -100.166 -31 -161.499
c0 -60.667 9.5 -116.834 28.5 -168.501s47 -93 84 -124s81.5 -46.5 133.5 -46.5c72 0 119.333 17 142 51l32 83h58v-152c-10.667 -0.666992 -28.334 -5 -53.001 -13c-31.333 -10 -62.166 -18 -92.499 -24s-65.5 -9 -105.5 -9c-70 0 -132.333 15.333 -187 46
s-97.334 73.834 -128.001 129.501s-46 119.834 -46 192.501c0 79.333 18.333 150.333 55 213s86.167 111.334 148.5 146.001s130.166 52 203.499 52c34 0 65 -2.66699 93 -8zM266.004 937.995l125 -76l129 76l44 -28l-123 -124h-100l-123 124z" />
    <glyph glyph-name="ccaron" unicode="&#x10d;" horiz-adv-x="525" 
d="M415.5 556c29 -4.66699 50.499 -11 64.499 -19v-132h-62l-30 73c-16.667 12.667 -41.334 19 -74.001 19c-43.333 0 -78.5 -18 -105.5 -54s-40.5 -84.667 -40.5 -146c0 -49.333 7.83301 -91.333 23.5 -126s36.5 -60.667 62.5 -78s54.333 -26 85 -26
c25.333 0 51.333 2.83301 78 8.5s46.667 12.834 60 21.501l21 -49c-21.333 -18.667 -50.166 -33.167 -86.499 -43.5s-75.5 -15.5 -117.5 -15.5c-51.333 0 -95.666 11.667 -132.999 35s-65.833 55.833 -85.5 97.5s-29.5 89.167 -29.5 142.5c0 58.667 12.333 110.167 37 154.5
s58.5 78.833 101.5 103.5s91.833 37.667 146.5 39c27.333 1.33301 55.5 -0.333984 84.5 -5.00098zM181.999 866l135 -118l133 119l50 -28l-131 -187h-104l-133 187z" />
    <glyph glyph-name="Dcaron" unicode="&#x10e;" horiz-adv-x="782" 
d="M127 68l-0.000976562 620.999l-76 9v60h140c26.667 0 59.334 1.33301 98.001 4c8.66699 0.666992 21.334 1.33398 38.001 2.00098s32 1 46 1c122 0 214 -31.667 276 -95s93 -153.333 93 -270c0 -82 -16.333 -153.667 -49 -215s-77.834 -108.333 -135.501 -141
s-123.5 -49 -197.5 -49c-16 0 -40.667 0.666992 -74 2c-28.667 2 -59.667 3 -93 3h-144v52zM351.999 56.999c12 0 21.334 0.331055 28.001 0.998047c44 2 83.5 15.833 118.5 41.5s62.5 61.834 82.5 108.501s30 101 30 163c0 108.667 -22.167 190.834 -66.5 246.501
s-107.5 83.5 -189.5 83.5c-42.667 0 -77.334 -3.33301 -104.001 -10v-618c27.333 -10.667 61 -16 101 -16zM237 937.997l125 -76l129 76l44 -28l-123 -124h-100l-123 124z" />
    <glyph glyph-name="dcaron" unicode="&#x10f;" horiz-adv-x="725" 
d="M541 782l-0.000976562 -730.999h67v-43c-12 -6.66699 -29 -12.334 -51 -17.001s-44.667 -7 -68 -7c-21.333 0 -36.666 4 -45.999 12s-15.333 22 -18 42c-14.667 -13.333 -36.5 -25.166 -65.5 -35.499s-60.833 -15.5 -95.5 -15.5c-40.667 0 -77.667 11 -111 33
s-59.833 53.833 -79.5 95.5s-29.5 91.167 -29.5 148.5s13.167 108.666 39.5 153.999s62 80.833 107 106.5s94.5 38.5 148.5 38.5c30 0 56.333 -3.33301 79 -10v146l-106 21v53l203 21zM249.999 480.001c-24 -16.667 -43.5 -41.3311 -58.5 -73.998
s-22.5 -72.334 -22.5 -119.001c0 -45.333 6.33301 -85.333 19 -120s30.167 -61.334 52.5 -80.001s47.5 -28 75.5 -28c20 0 39.167 2.66699 57.5 8s33.5 13 45.5 23v384c-23.333 20.667 -54.333 31 -93 31c-26.667 0 -52 -8.33301 -76 -25zM598.999 528.004
c8.66699 40.667 13 85.666 13 134.999c0 25.333 -2.66699 49.5 -8 72.5s-11 38.5 -17 46.5l7 21l95 24c9.33301 -10 17 -27.167 23 -51.5s9 -49.166 9 -74.499c0 -38.667 -6.16699 -77.667 -18.5 -117s-26.833 -68 -43.5 -86l-56 17z" />
    <glyph glyph-name="Dcroat" unicode="&#x110;" horiz-adv-x="781" 
d="M127 68v281.999h-87v82h87v257l-75 9v60h139c27.333 0 60.333 1.33301 99 4c8.66699 0.666992 21.334 1.33398 38.001 2.00098s31.667 1 45 1c122.667 0 215 -31.667 277 -95s93 -153.333 93 -270c0 -82 -16.333 -153.667 -49 -215s-77.834 -108.333 -135.501 -141
s-123.5 -49 -197.5 -49c-15.333 0 -40.333 0.666992 -75 2c-28 2 -58.667 3 -92 3h-144v52zM352 56.999c12 0 21.334 0.331055 28.001 0.998047c44 2 83.5 15.833 118.5 41.5s62.5 61.834 82.5 108.501s30 101 30 163c0 108.667 -22.333 190.834 -67 246.501
s-108.334 83.5 -191.001 83.5c-42 0 -76 -3.33301 -102 -10v-259h128v-82h-128v-277c27.333 -10.667 61 -16 101 -16z" />
    <glyph glyph-name="dcroat" unicode="&#x111;" horiz-adv-x="639" 
d="M541 585v-534h67v-43c-12 -6.66699 -29 -12.334 -51 -17.001s-44.667 -7 -68 -7c-21.333 0 -36.666 4 -45.999 12s-15.333 22 -18 42c-14.667 -13.333 -36.5 -25.166 -65.5 -35.499s-60.833 -15.5 -95.5 -15.5c-40 0 -76.833 10.667 -110.5 32s-60.334 51 -80.001 89
s-29.5 81 -29.5 129c0 96.667 27.167 168.5 81.5 215.5s125.5 70.5 213.5 70.5c30 0 56.333 -3.33301 79 -10v72h-186v59h186v55l-106 21v53l203 21l26 -12v-138h80v-59h-80zM418 434c-22 20.667 -52.666 31 -91.999 31c-27.333 0 -52.833 -7 -76.5 -21s-43 -36.5 -58 -67.5
s-22.5 -70.167 -22.5 -117.5c0 -38.667 6.33301 -73.167 19 -103.5s30.167 -54 52.5 -71s47.5 -25.5 75.5 -25.5c20 0 39.167 2.66699 57.5 8s33.166 13 44.499 23v344z" />
    <glyph glyph-name="Emacron" unicode="&#x112;" horiz-adv-x="662" 
d="M128 68v621l-76 9v60h524l14 -149h-70l-31 80l-237 8v-274l161 5l19 75h64v-220h-64l-19 75l-161 3v-299l262 11l54 99l66 -14l-23 -158h-561v52zM494 914v-89h-265v89h265z" />
    <glyph glyph-name="emacron" unicode="&#x113;" horiz-adv-x="575" 
d="M475.5 506c35.667 -38 53.5 -91.334 53.5 -160.001c0 -29.333 -2.33301 -57 -7 -83h-353c1.33301 -62 17.166 -110.333 47.499 -145s73.5 -52 129.5 -52c24.667 0 51 2.83301 79 8.5s50.667 12.834 68 21.501l21 -48c-21.333 -18.667 -52.333 -33.5 -93 -44.5
s-81 -16.5 -121 -16.5c-81.333 0.666992 -144.333 26 -189 76s-67 118 -67 204c0 56.667 12 107.5 36 152.5s57.333 80.167 100 105.5s91.334 38 146.001 38c64 0 113.833 -19 149.5 -57zM212.5 458.999c-23.667 -30 -37.833 -73.333 -42.5 -130h234
c0.666992 7.33301 1 18.333 1 33c0 49.333 -10.667 84 -32 104c-13.333 25.333 -36.666 38 -69.999 38c-36.667 0 -66.834 -15 -90.501 -45zM437.001 775.999v-89h-265v89h265z" />
    <glyph glyph-name="Edotaccent" unicode="&#x116;" horiz-adv-x="662" 
d="M128 68v621l-76 9v60h524l14 -149h-70l-31 80l-237 8v-274l161 5l19 75h64v-220h-64l-19 75l-161 3v-299l262 11l54 99l66 -14l-23 -158h-561v52zM420.5 924.5c13.667 -12.333 20.499 -29.168 20.499 -50.501c0 -23.333 -9.16699 -42.333 -27.5 -57
s-39.166 -22 -62.499 -22c-20 0 -37.5 6 -52.5 18s-22.5 28.333 -22.5 49c0 22.667 9 41.834 27 57.501s38.333 23.5 61 23.5c24 0 42.833 -6.16699 56.5 -18.5z" />
    <glyph glyph-name="edotaccent" unicode="&#x117;" horiz-adv-x="575" 
d="M475.5 506c35.667 -38 53.5 -91.334 53.5 -160.001c0 -29.333 -2.33301 -57 -7 -83h-353c1.33301 -62 17.166 -110.333 47.499 -145s73.5 -52 129.5 -52c24.667 0 51 2.83301 79 8.5s50.667 12.834 68 21.501l21 -48c-21.333 -18.667 -52.333 -33.5 -93 -44.5
s-81 -16.5 -121 -16.5c-81.333 0.666992 -144.333 26 -189 76s-67 118 -67 204c0 56.667 12 107.5 36 152.5s57.333 80.167 100 105.5s91.334 38 146.001 38c64 0 113.833 -19 149.5 -57zM212.5 458.999c-23.667 -30 -37.833 -73.333 -42.5 -130h234
c0.666992 7.33301 1 18.333 1 33c0 49.333 -10.667 84 -32 104c-13.333 25.333 -36.666 38 -69.999 38c-36.667 0 -66.834 -15 -90.501 -45zM366.501 778.499c13 -11.667 19.5 -27.166 19.5 -46.499c0 -22 -8.66699 -40 -26 -54s-37 -21 -59 -21
c-19.333 0 -36 5.83301 -50 17.5s-21 27.167 -21 46.5c0 21.333 8.66699 39.166 26 53.499s36.333 21.5 57 21.5c22.667 0 40.5 -5.83301 53.5 -17.5z" />
    <glyph glyph-name="Eogonek" unicode="&#x118;" horiz-adv-x="662" 
d="M128 68l0.000976562 620.999l-76 9v60h524l14 -149h-70l-31 80l-237 8v-274l161 5l19 75h64v-220h-64l-19 75l-161 3v-299l262 11l54 99l66 -14l-23 -158h-8c-32.667 -13.333 -63.667 -33 -93 -59s-44 -49.667 -44 -71c0 -17.333 4.16699 -29.166 12.5 -35.499
s21.5 -10.166 39.5 -11.499c15.333 -0.666992 30.333 1.33301 45 6s28 9.66699 40 15l25 11l13 -51c-23.333 -17.333 -49 -31.5 -77 -42.5s-61.333 -16.5 -100 -16.5c-36 0 -63.333 8.33301 -82 25s-28 38 -28 64c0 29.333 16.167 60.166 48.5 92.499
s68.166 56.833 107.499 73.5h-460v52z" />
    <glyph glyph-name="eogonek" unicode="&#x119;" horiz-adv-x="575" 
d="M476 506c35.333 -38 53.002 -91.668 53.002 -161.001c0 -28.667 -2.33301 -56 -7 -82h-353c1.33301 -62 17.166 -110.333 47.499 -145s73.5 -52 129.5 -52c24.667 0 51 2.83301 79 8.5s50.667 12.834 68 21.501l21 -48c-46.667 -37.333 -80 -69 -100 -95
s-30 -48.667 -30 -68c0 -20.667 7.66699 -35.834 23 -45.501s35 -14.5 59 -14.5c21.333 0 40.666 3.33301 57.999 10v-52c-13.333 -10 -31 -18 -53 -24s-43.333 -9 -64 -9c-36 0 -65.833 7.83301 -89.5 23.5s-35.5 39.834 -35.5 72.501c0 26.667 8.66699 53 26 79
s41.666 49.333 72.999 70c-28.667 -5.33301 -55.667 -8 -81 -8c-81.333 0.666992 -144.333 26 -189 76s-67 118 -67 204c0 56.667 12 107.5 36 152.5s57.333 80.167 100 105.5s91.334 38 146.001 38c64.667 0 114.667 -19 150 -57zM212.502 458.999
c-23.667 -30 -37.832 -73.333 -42.499 -130h234c1.33301 17.333 2 31.666 2 42.999c0 42.667 -8 75.334 -24 98.001s-42.333 34 -79 34s-66.834 -15 -90.501 -45z" />
    <glyph glyph-name="Ecaron" unicode="&#x11a;" horiz-adv-x="662" 
d="M128 68v621l-76 9v60h524l14 -149h-70l-31 80l-237 8v-274l161 5l19 75h64v-220h-64l-19 75l-161 3v-299l262 11l54 99l66 -14l-23 -158h-561v52zM209 938l125 -76l129 76l44 -28l-123 -124h-100l-123 124z" />
    <glyph glyph-name="ecaron" unicode="&#x11b;" horiz-adv-x="575" 
d="M475.5 506c35.667 -38 53.5 -91.334 53.5 -160.001c0 -29.333 -2.33301 -57 -7 -83h-353c1.33301 -62 17.166 -110.333 47.499 -145s73.5 -52 129.5 -52c24.667 0 51 2.83301 79 8.5s50.667 12.834 68 21.501l21 -48c-21.333 -18.667 -52.333 -33.5 -93 -44.5
s-81 -16.5 -121 -16.5c-81.333 0.666992 -144.333 26 -189 76s-67 118 -67 204c0 56.667 12 107.5 36 152.5s57.333 80.167 100 105.5s91.334 38 146.001 38c64 0 113.833 -19 149.5 -57zM212.5 458.999c-23.667 -30 -37.833 -73.333 -42.5 -130h234
c0.666992 7.33301 1 18.333 1 33c0 49.333 -10.667 84 -32 104c-13.333 25.333 -36.666 38 -69.999 38c-36.667 0 -66.834 -15 -90.501 -45zM172.001 865.999l135 -118l133 119l50 -28l-131 -187h-104l-133 187z" />
    <glyph glyph-name="Gbreve" unicode="&#x11e;" horiz-adv-x="758" 
d="M564.5 756c40.333 -6 74.501 -12.668 102.501 -20.001l-9 -152h-65l-32 84c-6.66699 8 -23.334 15.5 -50.001 22.5s-60.334 10.167 -101.001 9.5c-46 0 -87.167 -13.167 -123.5 -39.5s-64.833 -62.833 -85.5 -109.5s-31 -100 -31 -160c0 -61.333 8.5 -118 25.5 -170
s43.333 -93.833 79 -125.5s79.834 -47.5 132.501 -47.5c30.667 0 59.834 4.5 87.501 13.5s47.5 22.833 59.5 41.5v173l-112 10v60h284v-60l-55 -10v-241c-10 0.666992 -24.167 -1 -42.5 -5l-57.5 -13c-38.667 -10 -72.834 -17.667 -102.501 -23s-59.167 -8 -88.5 -8
c-66.667 0 -126 16 -178 48s-92.333 76.333 -121 133s-43 120.334 -43 191.001c0 81.333 17.333 152.833 52 214.5s82 109.167 142 142.5s127.333 50 202 50c46.667 0 90.167 -3 130.5 -9zM558.501 859.999c-14.333 -24 -34.3311 -43.167 -59.998 -57.5
s-54.167 -21.5 -85.5 -21.5c-32.667 0 -61.667 7 -87 21s-45 33 -59 57s-21 50.333 -21 79h64c7.33301 -20.667 18.166 -38.5 32.499 -53.5s38.166 -22.5 71.499 -22.5c32 0 55.167 7.33301 69.5 22s25.833 32.667 34.5 54h62c0 -28 -7.16699 -54 -21.5 -78z" />
    <glyph glyph-name="gbreve" unicode="&#x11f;" horiz-adv-x="600" 
d="M450 524c13.333 21.333 43.001 32 89.001 32h53v-90h-97c11.333 -22.667 17 -49.667 17 -81c0 -42 -10.333 -78 -31 -108s-48.334 -52.5 -83.001 -67.5s-73.334 -22.5 -116.001 -22.5c-34.667 0 -67 4.66699 -97 14c-4 -10.667 -6 -21.667 -6 -33v-19
c0 -18.667 5.16699 -32.667 15.5 -42s26.833 -14.333 49.5 -15c22 -1.33301 62.667 -2 122 -2c80 0 134.667 -13.667 164 -41s44 -65.666 44 -114.999c0 -40 -12 -74.5 -36 -103.5s-57.167 -51.167 -99.5 -66.5s-90.833 -23 -145.5 -23c-70 0 -127.667 11.333 -173 34
s-68 59.667 -68 111c0 27.333 8.16699 52.833 24.5 76.5s35.833 42.167 58.5 55.5c-17.333 6 -30 13.5 -38 22.5s-12.833 18.333 -14.5 28s-2.5 22.167 -2.5 37.5c0 14 6 32.5 18 55.5s26.667 42.167 44 57.5c-56 32 -84 81.667 -84 149c0 43.333 11.333 79.666 34 108.999
s52.334 51.333 89.001 66s76.667 22 120 22c62 0 111.667 -13.667 149 -41zM207.001 480c-18.667 -18.667 -27.999 -47.332 -27.999 -85.999c0 -43.333 9.33301 -78.333 28 -105s48 -40 88 -40c35.333 0 60.666 10.667 75.999 32s23 52.666 23 93.999
c0 88.667 -37.333 133 -112 133c-31.333 0 -56.333 -9.33301 -75 -28zM164.002 -76.998c0 -40 14.001 -69.833 42.001 -89.5s63.667 -29.5 107 -29.5c50.667 0 89.167 8 115.5 24s39.5 41.333 39.5 76c0 23.333 -3.66699 42 -11 56s-20.333 24.333 -39 31
s-45.334 10 -80.001 10l-70 1c-34.667 0 -61.667 1.33301 -81 4c-15.333 -22 -23 -49.667 -23 -83zM436.503 749.502c-15 -25 -35.499 -45.0029 -61.499 -60.0029s-54.667 -22.5 -86 -22.5c-32.667 0 -62 7.33301 -88 22s-46.167 34.334 -60.5 59.001
s-21.5 51.334 -21.5 80.001h67c5.33301 -14 11.166 -26.167 17.499 -36.5s16.5 -20.166 30.5 -29.499s32.667 -14 56 -14c32 0 55.333 8 70 24s26 35 34 57h65c0 -28 -7.5 -54.5 -22.5 -79.5z" />
    <glyph glyph-name="Gcommaaccent" unicode="&#x122;" horiz-adv-x="758" 
d="M564.5 756c40.333 -6 74.501 -12.668 102.501 -20.001l-9 -152h-65l-32 84c-6.66699 8 -23.334 15.5 -50.001 22.5s-60.334 10.167 -101.001 9.5c-46 0 -87.167 -13.167 -123.5 -39.5s-64.833 -62.833 -85.5 -109.5s-31 -100 -31 -160c0 -61.333 8.5 -118 25.5 -170
s43.333 -93.833 79 -125.5s79.834 -47.5 132.501 -47.5c30.667 0 59.834 4.5 87.501 13.5s47.5 22.833 59.5 41.5v173l-112 10v60h284v-60l-55 -10v-241c-10 0.666992 -24.167 -1 -42.5 -5l-57.5 -13c-38.667 -10 -72.834 -17.667 -102.501 -23s-59.167 -8 -88.5 -8
c-66.667 0 -126 16 -178 48s-92.333 76.333 -121 133s-43 120.334 -43 191.001c0 81.333 17.333 152.833 52 214.5s82 109.167 142 142.5s127.333 50 202 50c46.667 0 90.167 -3 130.5 -9zM469.501 -64.501c19.667 -24.333 29.499 -52.167 29.499 -83.5
c0 -26 -6.5 -50.667 -19.5 -74s-29.167 -43 -48.5 -59s-37.666 -26.667 -54.999 -32l-39 25v13c16 9.33301 28 22.833 36 40.5s12 36.834 12 57.501c0 17.333 -6 32.666 -18 45.999s-24 20 -36 20v30l58 62c34 -6 60.833 -21.167 80.5 -45.5z" />
    <glyph glyph-name="gcommaaccent" unicode="&#x123;" horiz-adv-x="600" 
d="M450 524c13.333 21.333 43.001 32 89.001 32h53v-90h-97c11.333 -22.667 17 -49.667 17 -81c0 -42 -10.333 -78 -31 -108s-48.334 -52.5 -83.001 -67.5s-73.334 -22.5 -116.001 -22.5c-34.667 0 -67 4.66699 -97 14c-4 -10.667 -6 -21.667 -6 -33v-19
c0 -18.667 5.16699 -32.667 15.5 -42s26.833 -14.333 49.5 -15c22 -1.33301 62.667 -2 122 -2c80 0 134.667 -13.667 164 -41s44 -65.666 44 -114.999c0 -40 -12 -74.5 -36 -103.5s-57.167 -51.167 -99.5 -66.5s-90.833 -23 -145.5 -23c-70 0 -127.667 11.333 -173 34
s-68 59.667 -68 111c0 27.333 8.16699 52.833 24.5 76.5s35.833 42.167 58.5 55.5c-17.333 6 -30 13.5 -38 22.5s-12.833 18.333 -14.5 28s-2.5 22.167 -2.5 37.5c0 14 6 32.5 18 55.5s26.667 42.167 44 57.5c-56 32 -84 81.667 -84 149c0 43.333 11.333 79.666 34 108.999
s52.334 51.333 89.001 66s76.667 22 120 22c62 0 111.667 -13.667 149 -41zM207.001 480c-18.667 -18.667 -27.999 -47.332 -27.999 -85.999c0 -43.333 9.33301 -78.333 28 -105s48 -40 88 -40c35.333 0 60.666 10.667 75.999 32s23 52.666 23 93.999
c0 88.667 -37.333 133 -112 133c-31.333 0 -56.333 -9.33301 -75 -28zM164.002 -76.998c0 -40 14.001 -69.833 42.001 -89.5s63.667 -29.5 107 -29.5c50.667 0 89.167 8 115.5 24s39.5 41.333 39.5 76c0 23.333 -3.66699 42 -11 56s-20.333 24.333 -39 31
s-45.334 10 -80.001 10l-70 1c-34.667 0 -61.667 1.33301 -81 4c-15.333 -22 -23 -49.667 -23 -83zM225.503 697.502c-19.667 24.333 -29.499 52.167 -29.499 83.5c0 26 6.5 50.667 19.5 74s29.167 43 48.5 59s37.666 26.667 54.999 32l39 -25v-13
c-16 -9.33301 -28 -22.833 -36 -40.5s-12 -36.834 -12 -57.501c0 -17.333 6 -32.666 18 -45.999s24 -20 36 -20v-30l-58 -62c-34 6 -60.833 21.167 -80.5 45.5z" />
    <glyph glyph-name="hbar" unicode="&#x127;" horiz-adv-x="690" 
d="M122 62l-0.00292969 523.001h-80v59h80v55l-78 21v53l176 21l25 -10l-1 -140h86v-59h-86v-25l-5 -73c26.667 22.667 57 40.167 91 52.5s66 18.5 96 18.5c44.667 0 78.834 -9.33301 102.501 -28s39.834 -46.334 48.501 -83.001s12.667 -85.667 12 -147v-238l70 -11v-51
h-271v51l78 11v202c0 52 -2 92.167 -6 120.5s-13.667 50.333 -29 66s-39 23.5 -71 23.5c-45.333 0 -83.666 -11.333 -114.999 -34v-378l62 -11v-51h-257v51z" />
    <glyph glyph-name="Itilde" unicode="&#x128;" horiz-adv-x="388" 
d="M53.5 910.5c28.333 18.333 55.501 27.5 81.501 27.5c14.667 0 27.667 -2.66699 39 -8s24.333 -13.333 39 -24c11.333 -8.66699 20.833 -15 28.5 -19s16.167 -6 25.5 -6c32.667 0 61.667 12.667 87 38l33 -41c-12 -24 -32 -44.5 -60 -61.5s-55 -25.5 -81 -25.5
c-15.333 0 -28.666 2.83301 -39.999 8.5s-24 13.834 -38 24.501c-11.333 8.66699 -21 15.167 -29 19.5s-16.667 6.5 -26 6.5c-14.667 0 -29.834 -3.83301 -45.501 -11.5s-29.5 -16.834 -41.5 -27.501l-32 36c11.333 24 31.166 45.167 59.499 63.5zM132.001 68v621l-89 9v60
h298v-60l-85 -9v-621l91 -16v-52h-305v52z" />
    <glyph glyph-name="itilde" unicode="&#x129;" horiz-adv-x="344" 
d="M126 62v365l-66 48v36l157 47l29 -10v-486l76 -11v-51h-273v51zM39.5 787c28.333 18.667 55.167 27.998 80.5 27.998c16 0 29.5 -2.83301 40.5 -8.5s23.5 -14.167 37.5 -25.5c2 -1.33301 6.66699 -4.66602 14 -9.99902s14.333 -9.33301 21 -12s13.334 -4 20.001 -4
c16 0 30.833 3.83301 44.5 11.5s27.5 17.834 41.5 30.501l32 -40c-12 -24 -31.833 -45.333 -59.5 -64s-54.167 -28 -79.5 -28c-16.667 0 -30.834 3 -42.501 9s-24.167 14.333 -37.5 25c-10.667 8.66699 -20 15.167 -28 19.5s-16.667 6.5 -26 6.5
c-25.333 0 -54.333 -14 -87 -42l-32 41c12 23.333 32.167 44.333 60.5 63z" />
    <glyph glyph-name="Imacron" unicode="&#x12a;" horiz-adv-x="380" 
d="M322 927v-89h-265v89h265zM132 68v621l-89 9v60h298v-60l-85 -9v-621l91 -16v-52h-305v52z" />
    <glyph glyph-name="imacron" unicode="&#x12b;" horiz-adv-x="344" 
d="M126 62v365l-66 48v36l157 47l29 -10v-486l76 -11v-51h-273v51zM303 776v-89h-265v89h265z" />
    <glyph glyph-name="Iogonek" unicode="&#x12e;" horiz-adv-x="388" 
d="M246 -31.5c-21.333 -15 -39.168 -31.333 -53.501 -49s-21.5 -33.5 -21.5 -47.5c0 -32.667 17 -49 51 -49c19.333 0 44.333 6.33301 75 19l12 -52c-18 -14.667 -40.5 -25.834 -67.5 -33.501s-55.5 -11.5 -85.5 -11.5c-28.667 0 -52.334 8.33301 -71.001 25
s-28 38.334 -28 65.001c0 18.667 7.83301 39 23.5 61s35.834 42.333 60.501 61s50.334 33 77.001 43h-176v52l90 16v621l-89 9v60h298v-60l-85 -9v-621l91 -16v-52h-39c-20 -6 -40.667 -16.5 -62 -31.5z" />
    <glyph glyph-name="iogonek" unicode="&#x12f;" horiz-adv-x="344" 
d="M113.5 682c-15 13.333 -22.501 30.667 -22.501 52c0 23.333 9.33301 43.333 28 60s39.334 25 62.001 25c24.667 0 43.5 -6.5 56.5 -19.5s19.5 -30.5 19.5 -52.5c0 -24.667 -9 -45 -27 -61s-39 -24 -63 -24c-20.667 0 -38.5 6.66699 -53.5 20zM323.999 -195.999
c-23.333 -17.333 -49 -31.502 -77 -42.502s-61.333 -16.5 -100 -16.5c-36 0 -63.333 8.33301 -82 25s-28 38 -28 64c0 30 16.167 61 48.5 93s68.166 56.333 107.499 73h-144v51l77 11v365l-66 48v36l157 47l29 -10v-486l76 -11v-51h-35c-32 -12 -63 -31.167 -93 -57.5
s-45 -50.5 -45 -72.5c0 -17.333 4.33301 -29.166 13 -35.499s22 -10.166 40 -11.499c14.667 -0.666992 29.334 1.5 44.001 6.5s28 10 40 15l25 10.5z" />
    <glyph glyph-name="Idotaccent" unicode="&#x130;" horiz-adv-x="388" 
d="M132 68v621l-89 9v60h298v-60l-85 -9v-621l91 -16v-52h-305v52zM254.5 924.5c13.667 -12.333 20.499 -29.168 20.499 -50.501c0 -23.333 -9.16699 -42.333 -27.5 -57s-39.166 -22 -62.499 -22c-20 0 -37.5 6 -52.5 18s-22.5 28.333 -22.5 49c0 22.667 9 41.834 27 57.501
s38.333 23.5 61 23.5c24 0 42.833 -6.16699 56.5 -18.5z" />
    <glyph glyph-name="dotlessi" unicode="&#x131;" horiz-adv-x="344" 
d="M126 62v365l-66 48v36l157 47l29 -10v-486l76 -11v-51h-273v51z" />
    <glyph glyph-name="IJ" unicode="&#x132;" horiz-adv-x="750" 
d="M132 68v621l-89 9v60h298v-60l-85 -9v-621l91 -16v-52h-305v52zM494 -27c9.33301 28 15.498 59 18.498 93s4.5 77.667 4.5 131v492l-77 9v60h277v-60l-75 -9v-421c0 -62.667 -1 -114.5 -3 -155.5s-6.66699 -75.5 -14 -103.5c-10 -38.667 -28.667 -72.5 -56 -101.5
s-58.666 -51.833 -93.999 -68.5s-70.666 -26.667 -105.999 -30l-28 39c78.667 28 129.667 69.667 153 125z" />
    <glyph glyph-name="ij" unicode="&#x133;" horiz-adv-x="667" 
d="M237.5 799.5c13 -13 19.499 -30.499 19.499 -52.499c0 -24.667 -9 -45 -27 -61s-39 -24 -63 -24c-20.667 0 -38.5 6.66699 -53.5 20s-22.5 30.666 -22.5 51.999c0 23.333 9.33301 43.333 28 60s39.334 25 62.001 25c24.667 0 43.5 -6.5 56.5 -19.5zM245.999 548.001v-486
l76 -11v-51h-273v51l77 11v365l-66 48v36l157 47zM571.499 809.501c13 -13 19.502 -30.499 19.502 -52.499c0 -24.667 -8.83301 -45 -26.5 -61s-38.834 -24 -63.501 -24c-20.667 0 -38.334 6.66699 -53.001 20s-22 30.666 -22 51.999c0 23.333 9.33301 43.333 28 60
s39 25 61 25c24.667 0 43.5 -6.5 56.5 -19.5zM585.001 547.002v-559.999c0 -74.667 -16 -133.834 -48 -177.501s-76 -65.5 -132 -65.5c-11.333 0 -24.833 1.16699 -40.5 3.5s-25.5 4.83301 -29.5 7.5v76c4 -1.33301 12.167 -2.5 24.5 -3.5s22.5 -1.5 30.5 -1.5
c28.667 0 48.167 13.167 58.5 39.5s15.5 70.5 15.5 132.5v429l-63 49v34l156 48z" />
    <glyph glyph-name="Jcircumflex" unicode="&#x134;" horiz-adv-x="363" 
d="M369 814l-47 -28l-130 74l-134 -74l-44 27l128 125h100zM330 698l-75.002 -8.99609v-421c0 -62.667 -1 -114.334 -3 -155.001s-6.33301 -75.334 -13 -104.001c-10.667 -38.667 -29.667 -72.5 -57 -101.5s-58.666 -51.833 -93.999 -68.5s-70.666 -26.667 -105.999 -30
l-28 39c78 27.333 129 69 153 125c9.33301 27.333 15.5 57.666 18.5 90.999s4.5 77.666 4.5 132.999v492l-78 9v60h278v-60z" />
    <glyph glyph-name="jcircumflex" unicode="&#x135;" horiz-adv-x="323" 
d="M127 877h104l131 -187l-52 -28l-131 120l-138 -120l-47 27zM57 476v34.001l156 48l28 -11v-560c0 -74.667 -16 -133.834 -48 -177.501s-76 -65.5 -132 -65.5c-11.333 0 -24.833 1.16699 -40.5 3.5s-25.5 4.83301 -29.5 7.5v76c4 -1.33301 12.167 -2.5 24.5 -3.5
s22.5 -1.5 30.5 -1.5c28.667 0 48.167 13.167 58.5 39.5s15.5 70.5 15.5 132.5v429z" />
    <glyph glyph-name="Kcommaaccent" unicode="&#x136;" horiz-adv-x="713" 
d="M127 68l0.000976562 620.999l-85 9v60h291v-60l-82 -9v-315l257 315l-76 9l-1 60h265v-60l-84 -9l-221 -252c16 -16 34.667 -40 56 -72s46.666 -72.333 75.999 -121c34.667 -56 62 -98.5 82 -127.5s34.667 -44.5 44 -46.5l73 -18v-52h-171
c-10 0.666992 -23.333 14.334 -40 41.001s-39 67 -67 121c-27.333 52 -50.333 93.833 -69 125.5s-36 55.5 -52 71.5l-72 -82v-209l93 -16v-52h-303v52zM466.501 -64.501c19.667 -24.333 29.499 -52.167 29.499 -83.5c0 -26 -6.5 -50.667 -19.5 -74s-29.167 -43 -48.5 -59
s-37.666 -26.667 -54.999 -32l-39 25v13c16 9.33301 28 22.833 36 40.5s12 36.834 12 57.501c0 17.333 -6 32.666 -18 45.999s-24 20 -36 20v30l58 62c34 -6 60.833 -21.167 80.5 -45.5z" />
    <glyph glyph-name="kcommaaccent" unicode="&#x137;" horiz-adv-x="637" 
d="M122 63v630l-85 24v53l184 24l24 -12v-438l-5 -72l196 205l-79 8v64h259v-64l-83 -8l-148 -148l192 -268l61 -10v-51h-257v51l59 12l-132 199l-67 -70l3 -75v-56l66 -10v-51h-263v51zM408.5 -64.5c19.667 -24.333 29.499 -52.167 29.499 -83.5
c0 -26 -6.5 -50.667 -19.5 -74s-29.167 -43 -48.5 -59s-37.666 -26.667 -54.999 -32l-39 25v13c16 9.33301 28 22.833 36 40.5s12 36.834 12 57.501c0 17.333 -6 32.666 -18 45.999s-24 20 -36 20v30l58 62c34 -6 60.833 -21.167 80.5 -45.5z" />
    <glyph glyph-name="kgreenlandic" unicode="&#x138;" horiz-adv-x="637" 
d="M121 63v387l-80 29v50l170 32l33 -13v-203l-4 -73l195 205l-79 8v64h260v-64l-83 -8l-148 -148l192 -268l60 -10v-51h-256v51l59 12l-133 199l-66 -70l3 -75v-56l65 -10v-51h-262v51z" />
    <glyph glyph-name="Lacute" unicode="&#x139;" horiz-adv-x="615" 
d="M127 67v616l-75 8v67h287v-67l-86 -9l-1 -618l229 14l68 117l55 -24l-33 -171h-521v52zM307 938l81.002 -81c-26.667 -18 -60.334 -33.833 -101.001 -47.5s-77.334 -22.5 -110.001 -26.5l-34 35z" />
    <glyph glyph-name="lacute" unicode="&#x13a;" horiz-adv-x="347" 
d="M120 62v637l-73 21v53l173 21l23 -10v-721l87 -12v-51h-284v51zM260 1063l91.001 -82c-18.667 -29.333 -47.834 -57.333 -87.501 -84s-79.167 -47.667 -118.5 -63l-32 33z" />
    <glyph glyph-name="Lcommaaccent" unicode="&#x13b;" horiz-adv-x="615" 
d="M127 67v616l-75 8v67h287v-67l-86 -9l-1 -618l229 14l68 117l55 -24l-33 -171h-521v52zM370.5 -64.5c19.667 -24.333 29.499 -52.167 29.499 -83.5c0 -26 -6.5 -50.667 -19.5 -74s-29.167 -43 -48.5 -59s-37.666 -26.667 -54.999 -32l-39 25v13
c16 9.33301 28 22.833 36 40.5s12 36.834 12 57.501c0 17.333 -6 32.666 -18 45.999s-24 20 -36 20v30l58 62c34 -6 60.833 -21.167 80.5 -45.5z" />
    <glyph glyph-name="lcommaaccent" unicode="&#x13c;" horiz-adv-x="347" 
d="M120 62v637l-73 21v53l173 21l23 -10v-721l87 -12v-51h-284v51zM237.5 -64.5c19.667 -24.333 29.499 -52.167 29.499 -83.5c0 -26 -6.5 -50.667 -19.5 -74s-29.167 -43 -48.5 -59s-37.666 -26.667 -54.999 -32l-39 25v13c16 9.33301 28 22.833 36 40.5
s12 36.834 12 57.501c0 17.333 -6 32.666 -18 45.999s-24 20 -36 20v30l58 62c34 -6 60.833 -21.167 80.5 -45.5z" />
    <glyph glyph-name="Lcaron" unicode="&#x13d;" horiz-adv-x="615" 
d="M127 67v616l-75 8v67h287v-67l-86 -9l-1 -618l229 14l68 117l55 -24l-33 -171h-521v52zM425 528c8.66699 40.667 13 85.666 13 134.999c0 25.333 -2.66699 49.5 -8 72.5s-11 38.5 -17 46.5l7 21l95 24c9.33301 -10 17 -27.167 23 -51.5s9 -49.166 9 -74.499
c0 -38.667 -6.16699 -77.667 -18.5 -117s-26.833 -68 -43.5 -86l-56 17z" />
    <glyph glyph-name="lcaron" unicode="&#x13e;" horiz-adv-x="347" 
d="M120 62v637l-73 21v53l173 21l23 -10v-721l87 -12v-51h-284v51zM301 528c8.66699 40.667 13 85.666 13 134.999c0 25.333 -2.66699 49.5 -8 72.5s-11 38.5 -17 46.5l7 21l95 24c9.33301 -10 17 -27.167 23 -51.5s9 -49.166 9 -74.499
c0 -38.667 -6.16699 -77.667 -18.5 -117s-26.833 -68 -43.5 -86l-56 17z" />
    <glyph glyph-name="Ldot" unicode="&#x13f;" horiz-adv-x="686" 
d="M339 691l-86 -9l-1 -618l229 14l68 117l55 -24l-33 -171h-521v52l77 15v616l-75 8v67h287v-67zM653.5 473c13 -13.333 19.833 -31.3311 20.5 -53.998c0 -24.667 -9 -44.834 -27 -60.501s-39 -23.5 -63 -23.5c-20.667 0 -38.667 6.5 -54 19.5s-23 30.167 -23 51.5
c0 23.333 9.5 43.666 28.5 60.999s39.5 26 61.5 26c24.667 0 43.5 -6.66699 56.5 -20z" />
    <glyph glyph-name="ldot" unicode="&#x140;" horiz-adv-x="537" 
d="M242 784v-721l87 -12v-51h-284v51l74 11v637l-74 21v53l174 21zM501.5 454c13 -13.333 19.499 -30.999 19.499 -52.999c0 -24.667 -9.16699 -45 -27.5 -61s-39.166 -24 -62.499 -24c-20.667 0 -38.5 6.5 -53.5 19.5s-22.5 30.167 -22.5 51.5
c0 23.333 9.33301 43.666 28 60.999s39 26 61 26c25.333 0 44.5 -6.66699 57.5 -20z" />
    <glyph glyph-name="Lslash" unicode="&#x141;" horiz-adv-x="615" 
d="M338 691l-86 -9l-1 -270l143 59l101 41v-99l-244 -94v-255l230 14l67 117l55 -24l-33 -171h-521v52l78 15v204l-85 -33v44v45l85 34v322l-75 8v67h286v-67z" />
    <glyph glyph-name="lslash" unicode="&#x142;" horiz-adv-x="347" 
d="M120 62v290l-69 -25v86l69 28v258l-73 21v53l173 21l23 -10v-296l92 37v-93l-92 -35v-334l87 -12v-51h-284v51z" />
    <glyph glyph-name="Nacute" unicode="&#x143;" horiz-adv-x="819" 
d="M785 692l-76 -9v-683h-134l-301 485l-62 135l1 -551l96 -17v-52h-263v52l81 17v613l-78 9v67h201l314 -525l59 -127v576l-82 10v66h244v-66zM531 938l81.002 -81c-26.667 -18 -60.334 -33.833 -101.001 -47.5s-77.334 -22.5 -110.001 -26.5l-34 35z" />
    <glyph glyph-name="nacute" unicode="&#x144;" horiz-adv-x="694" 
d="M447 882l91.001 -82c-18.667 -29.333 -47.834 -57.333 -87.501 -84s-79.167 -47.667 -118.5 -63l-32 33zM124.001 61l-0.000976562 370.001l-68 41v42l149 44l27 -9v-71c25.333 22.667 57.5 41.667 96.5 57s75.5 23 109.5 23c57.333 0 97.5 -18 120.5 -54
s34.5 -93.333 34.5 -172v-271l74 -10v-51h-270v51l73 11v251c0 39.333 -2.66699 70.166 -8 92.499s-15.333 38.833 -30 49.5s-36 16 -64 16c-17.333 0 -37.166 -3.33301 -59.499 -10s-42.5 -16.667 -60.5 -30v-369l68 -11v-51h-256v51z" />
    <glyph glyph-name="Ncommaaccent" unicode="&#x145;" horiz-adv-x="819" 
d="M785 692l-76 -9v-683h-134l-301 485l-62 135l1 -551l96 -17v-52h-263v52l81 17v613l-78 9v67h201l314 -525l59 -127v576l-82 10v66h244v-66zM489.5 -64.5c19.667 -24.333 29.499 -52.167 29.499 -83.5c0 -26 -6.5 -50.667 -19.5 -74s-29.167 -43 -48.5 -59
s-37.666 -26.667 -54.999 -32l-39 25v13c16 9.33301 28 22.833 36 40.5s12 36.834 12 57.501c0 17.333 -6 32.666 -18 45.999s-24 20 -36 20v30l58 62c34 -6 60.833 -21.167 80.5 -45.5z" />
    <glyph glyph-name="ncommaaccent" unicode="&#x146;" horiz-adv-x="694" 
d="M124 61l-0.000976562 370.001l-68 41v42l149 44l27 -9v-71c25.333 22.667 57.5 41.667 96.5 57s75.5 23 109.5 23c57.333 0 97.5 -18 120.5 -54s34.5 -93.333 34.5 -172v-271l74 -10v-51h-270v51l73 11v251c0 39.333 -2.66699 70.166 -8 92.499s-15.333 38.833 -30 49.5
s-36 16 -64 16c-17.333 0 -37.166 -3.33301 -59.499 -10s-42.5 -16.667 -60.5 -30v-369l68 -11v-51h-256v51zM418.499 -64.499c19.667 -24.333 29.499 -52.167 29.499 -83.5c0 -26 -6.5 -50.667 -19.5 -74s-29.167 -43 -48.5 -59s-37.666 -26.667 -54.999 -32l-39 25v13
c16 9.33301 28 22.833 36 40.5s12 36.834 12 57.501c0 17.333 -6 32.666 -18 45.999s-24 20 -36 20v30l58 62c34 -6 60.833 -21.167 80.5 -45.5z" />
    <glyph glyph-name="Ncaron" unicode="&#x147;" horiz-adv-x="819" 
d="M785 692l-76 -9v-683h-134l-301 485l-62 135l1 -551l96 -17v-52h-263v52l81 17v613l-78 9v67h201l314 -525l59 -127v576l-82 10v66h244v-66zM298 938l125 -76l129 76l44 -28l-123 -124h-100l-123 124z" />
    <glyph glyph-name="ncaron" unicode="&#x148;" horiz-adv-x="694" 
d="M124 61l-0.000976562 370.001l-68 41v42l149 44l27 -9v-71c25.333 22.667 57.5 41.667 96.5 57s75.5 23 109.5 23c57.333 0 97.5 -18 120.5 -54s34.5 -93.333 34.5 -172v-271l74 -10v-51h-270v51l73 11v251c0 39.333 -2.66699 70.166 -8 92.499s-15.333 38.833 -30 49.5
s-36 16 -64 16c-17.333 0 -37.166 -3.33301 -59.499 -10s-42.5 -16.667 -60.5 -30v-369l68 -11v-51h-256v51zM225.999 866.001l135 -118l133 119l50 -28l-131 -187h-104l-133 187z" />
    <glyph glyph-name="Omacron" unicode="&#x14c;" horiz-adv-x="769" 
d="M517 927v-89h-265v89h265zM575 717c49.333 -32 87.333 -75.998 114 -131.998s40 -119.333 40 -190c0 -82 -15.167 -153.833 -45.5 -215.5s-72.166 -109.334 -125.499 -143.001s-113.333 -50.5 -180 -50.5s-125.667 16 -177 48s-91 76.167 -119 132.5
s-42 120.166 -42 191.499c0 80 16.167 151 48.5 213s75.5 109.333 129.5 142c57.333 34.667 119 52 185 52c65.333 0 122.666 -16 171.999 -48zM230.5 613.502c-35.667 -59.667 -53.5 -141.501 -53.5 -245.501c0 -54.667 8.5 -106.5 25.5 -155.5s41.5 -88.667 73.5 -119
s70 -45.5 114 -45.5c68.667 0 119.5 29.5 152.5 88.5s49.5 141.5 49.5 247.5c0 58 -8.16699 111.333 -24.5 160s-40 87.334 -71 116.001s-67.167 43 -108.5 43c-69.333 0 -121.833 -29.833 -157.5 -89.5z" />
    <glyph glyph-name="omacron" unicode="&#x14d;" horiz-adv-x="618" 
d="M433 776v-89h-265v89h265zM510 487.5c43.333 -50.333 64.999 -117.499 64.999 -201.499c0 -58.667 -11.667 -110.5 -35 -155.5s-55.333 -80 -96 -105s-86.667 -37.5 -138 -37.5c-86 0 -151 26.5 -195 79.5s-66 122.167 -66 207.5c0 58.667 12.333 109.667 37 153
s57.834 76.666 99.501 99.999s88.167 35 139.5 35c82.667 0 145.667 -25.167 189 -75.5zM175.999 289.001c0 -65.333 11.332 -121.33 33.999 -167.997s56.334 -70.334 101.001 -71.001c48.667 -0.666992 83.167 18.666 103.5 57.999s30.5 95.666 30.5 168.999
c0 67.333 -10.833 121.833 -32.5 163.5s-55.5 62.5 -101.5 62.5c-90 0 -135 -71.333 -135 -214z" />
    <glyph glyph-name="Ohungarumlaut" unicode="&#x150;" horiz-adv-x="767" 
d="M575 717c49.333 -32 87.333 -75.998 114 -131.998s40 -119.333 40 -190c0 -82 -15.167 -153.833 -45.5 -215.5s-72.166 -109.334 -125.499 -143.001s-113.333 -50.5 -180 -50.5s-125.667 16 -177 48s-91 76.167 -119 132.5s-42 120.166 -42 191.499
c0 80 16.167 151 48.5 213s75.5 109.333 129.5 142c57.333 34.667 119 52 185 52c65.333 0 122.666 -16 171.999 -48zM230.5 613.502c-35.667 -59.667 -53.5 -141.501 -53.5 -245.501c0 -54.667 8.5 -106.5 25.5 -155.5s41.5 -88.667 73.5 -119s70 -45.5 114 -45.5
c68.667 0 119.5 29.5 152.5 88.5s49.5 141.5 49.5 247.5c0 58 -8.16699 111.333 -24.5 160s-40 87.334 -71 116.001s-67.167 43 -108.5 43c-69.333 0 -121.833 -29.833 -157.5 -89.5zM368 1010l78 -67c-21.333 -28.667 -51.5 -60.667 -90.5 -96s-71.5 -60.333 -97.5 -75
l-42 35zM620 1010l81 -67c-24 -30.667 -55.5 -63.5 -94.5 -98.5s-71.167 -59.167 -96.5 -72.5l-41 35z" />
    <glyph glyph-name="ohungarumlaut" unicode="&#x151;" horiz-adv-x="619" 
d="M510 487.5c43.333 -50.333 64.999 -117.499 64.999 -201.499c0 -58.667 -11.667 -110.5 -35 -155.5s-55.333 -80 -96 -105s-86.667 -37.5 -138 -37.5c-86 0 -151 26.5 -195 79.5s-66 122.167 -66 207.5c0 58.667 12.333 109.667 37 153s57.834 76.666 99.501 99.999
s88.167 35 139.5 35c82.667 0 145.667 -25.167 189 -75.5zM175.999 289.001c0 -65.333 11.332 -121.33 33.999 -167.997s56.334 -70.334 101.001 -71.001c48.667 -0.666992 83.167 18.666 103.5 57.999s30.5 95.666 30.5 168.999c0 67.333 -10.833 121.833 -32.5 163.5
s-55.5 62.5 -101.5 62.5c-90 0 -135 -71.333 -135 -214zM264.998 889.004l78 -67c-21.333 -28.667 -51.5 -60.667 -90.5 -96s-71.5 -60.333 -97.5 -75l-42 35zM516.998 889.004l81 -67c-24 -30.667 -55.5 -63.5 -94.5 -98.5s-71.167 -59.167 -96.5 -72.5l-41 35z" />
    <glyph glyph-name="OE" unicode="&#x152;" horiz-adv-x="1036" 
d="M471 758l480.001 -0.000976562l15 -149h-65l-31 80l-230 8v-274l161 4l17 74h60v-220h-60l-17 76l-161 3v-298l255 11l54 99l61 -14l-23 -158h-512c-37.333 -9.33301 -70.333 -14 -99 -14c-66.667 0 -125.334 16 -176.001 48s-90 76.167 -118 132.5
s-42 119.833 -42 190.5c0 80 15.667 150.667 47 212s74 109 128 143s114 51.667 180 53c22.667 0.666992 48 -1.66602 76 -6.99902zM230.501 613.499c-35.667 -59.667 -53.5 -141.5 -53.5 -245.5c0 -54.667 8.5 -106.5 25.5 -155.5s41.5 -88.667 73.5 -119
s70 -45.5 114 -45.5c52 0 94.333 18 127 54v532c-36 46 -79 69 -129 69c-69.333 0 -121.833 -29.833 -157.5 -89.5z" />
    <glyph glyph-name="oe" unicode="&#x153;" horiz-adv-x="1014" 
d="M917 506c35.333 -38 53 -91.3369 53 -160.004c0 -26 -2 -53.667 -6 -83h-354c1.33301 -62 17.333 -110.333 48 -145s73.667 -52 129 -52c24.667 0 51 2.83301 79 8.5s51 12.834 69 21.501l21 -48c-21.333 -18.667 -52.5 -33.5 -93.5 -44.5s-81.167 -16.5 -120.5 -16.5
c-50.667 0.666992 -94.5 11 -131.5 31s-65.833 48.667 -86.5 86c-24 -36.667 -55.333 -65.167 -94 -85.5s-80 -30.5 -124 -30.5c-58 0 -106.5 12.5 -145.5 37.5s-68 59 -87 102s-28.5 91.833 -28.5 146.5c0 58.667 12.333 109.834 37 153.501s58 77.167 100 100.5
s88.667 35 140 35c50.667 0 94 -10.167 130 -30.5s64.667 -49.166 86 -86.499c24.667 36.667 56.667 65.334 96 86.001s84 31 134 31c64 0 113.667 -19 149 -57zM176 288.996c0 -65.333 11.332 -121.33 33.999 -167.997s56.334 -70.334 101.001 -71.001
c48.667 -0.666992 83.167 18.666 103.5 57.999s30.5 95.666 30.5 168.999c0 67.333 -10.833 121.833 -32.5 163.5s-55.5 62.5 -101.5 62.5c-90 0 -135 -71.333 -135 -214zM652.499 458.999c-23.667 -30 -37.5 -73.333 -41.5 -130h234c0.666992 6.66699 1 16.667 1 30
c0 51.333 -11 87 -33 107c-12 25.333 -35 38 -69 38c-37.333 0 -67.833 -15 -91.5 -45z" />
    <glyph glyph-name="Racute" unicode="&#x154;" horiz-adv-x="711" 
d="M542.5 719c47.667 -30.667 71.498 -82.0029 71.498 -154.003c0 -53.333 -14.333 -99.166 -43 -137.499s-68.667 -66.166 -120 -83.499c2 -0.666992 7.33301 -3.66699 16 -9c20 -12.667 38.5 -31.667 55.5 -57s38.167 -60.333 63.5 -105
c18.667 -33.333 33.667 -58.5 45 -75.5s22 -27.167 32 -30.5l57 -15v-52h-165c-10.667 0 -22 10.167 -34 30.5s-28 52.5 -48 96.5c-28 62 -53.167 110.333 -75.5 145s-46.5 52 -72.5 52l-74 -1v-255l99 -16v-52h-312v52l89 16v616l-78 9v65h122c14 0 27.333 0.333008 40 1
s24.334 1.33398 35.001 2.00098c41.333 2.66699 74 4 98 4c84.667 0 150.834 -15.333 198.501 -46zM304.998 701.997c-26.667 -1.33301 -44.667 -3.66797 -54 -7.00098v-308c15.333 -2 39.666 -3 72.999 -3c54.667 0 96 13.167 124 39.5s42 68.833 42 127.5
c0 49.333 -13.167 87.333 -39.5 114s-67.5 39.334 -123.5 38.001c-5.33301 -0.666992 -12.666 -1 -21.999 -1zM464.998 937.995l81.002 -81c-26.667 -18 -60.334 -33.833 -101.001 -47.5s-77.334 -22.5 -110.001 -26.5l-34 35z" />
    <glyph glyph-name="racute" unicode="&#x155;" horiz-adv-x="458" 
d="M125 62v369l-69 41v42l148 44l28 -9v-83c10.667 22 32.5 42.833 65.5 62.5s63.5 29.5 91.5 29.5c25.333 0 41.666 -1.33301 48.999 -4v-120c-24 12 -52.667 18 -86 18c-41.333 0 -75.666 -9 -102.999 -27v-361l129 -13v-51h-325v51zM292 882l91.001 -82
c-18.667 -29.333 -47.834 -57.333 -87.501 -84s-79.167 -47.667 -118.5 -63l-32 33z" />
    <glyph glyph-name="Rcommaaccent" unicode="&#x156;" horiz-adv-x="711" 
d="M542.5 719c47.667 -30.667 71.498 -82.0029 71.498 -154.003c0 -53.333 -14.333 -99.166 -43 -137.499s-68.667 -66.166 -120 -83.499c2 -0.666992 7.33301 -3.66699 16 -9c20 -12.667 38.5 -31.667 55.5 -57s38.167 -60.333 63.5 -105
c18.667 -33.333 33.667 -58.5 45 -75.5s22 -27.167 32 -30.5l57 -15v-52h-165c-10.667 0 -22 10.167 -34 30.5s-28 52.5 -48 96.5c-28 62 -53.167 110.333 -75.5 145s-46.5 52 -72.5 52l-74 -1v-255l99 -16v-52h-312v52l89 16v616l-78 9v65h122c14 0 27.333 0.333008 40 1
s24.334 1.33398 35.001 2.00098c41.333 2.66699 74 4 98 4c84.667 0 150.834 -15.333 198.501 -46zM304.998 701.997c-26.667 -1.33301 -44.667 -3.66797 -54 -7.00098v-308c15.333 -2 39.666 -3 72.999 -3c54.667 0 96 13.167 124 39.5s42 68.833 42 127.5
c0 49.333 -13.167 87.333 -39.5 114s-67.5 39.334 -123.5 38.001c-5.33301 -0.666992 -12.666 -1 -21.999 -1zM464.498 -64.5049c19.667 -24.333 29.499 -52.167 29.499 -83.5c0 -26 -6.5 -50.667 -19.5 -74s-29.167 -43 -48.5 -59s-37.666 -26.667 -54.999 -32l-39 25v13
c16 9.33301 28 22.833 36 40.5s12 36.834 12 57.501c0 17.333 -6 32.666 -18 45.999s-24 20 -36 20v30l58 62c34 -6 60.833 -21.167 80.5 -45.5z" />
    <glyph glyph-name="rcommaaccent" unicode="&#x157;" horiz-adv-x="458" 
d="M125 62v369l-69 41v42l148 44l28 -9v-83c10.667 22 32.5 42.833 65.5 62.5s63.5 29.5 91.5 29.5c25.333 0 41.666 -1.33301 48.999 -4v-120c-24 12 -52.667 18 -86 18c-41.333 0 -75.666 -9 -102.999 -27v-361l129 -13v-51h-325v51zM261.5 -64.5
c19.667 -24.333 29.499 -52.167 29.499 -83.5c0 -26 -6.5 -50.667 -19.5 -74s-29.167 -43 -48.5 -59s-37.666 -26.667 -54.999 -32l-39 25v13c16 9.33301 28 22.833 36 40.5s12 36.834 12 57.501c0 17.333 -6 32.666 -18 45.999s-24 20 -36 20v30l58 62
c34 -6 60.833 -21.167 80.5 -45.5z" />
    <glyph glyph-name="Rcaron" unicode="&#x158;" horiz-adv-x="711" 
d="M542.5 719c47.667 -30.667 71.498 -82.0029 71.498 -154.003c0 -53.333 -14.333 -99.166 -43 -137.499s-68.667 -66.166 -120 -83.499c2 -0.666992 7.33301 -3.66699 16 -9c20 -12.667 38.5 -31.667 55.5 -57s38.167 -60.333 63.5 -105
c18.667 -33.333 33.667 -58.5 45 -75.5s22 -27.167 32 -30.5l57 -15v-52h-165c-10.667 0 -22 10.167 -34 30.5s-28 52.5 -48 96.5c-28 62 -53.167 110.333 -75.5 145s-46.5 52 -72.5 52l-74 -1v-255l99 -16v-52h-312v52l89 16v616l-78 9v65h122c14 0 27.333 0.333008 40 1
s24.334 1.33398 35.001 2.00098c41.333 2.66699 74 4 98 4c84.667 0 150.834 -15.333 198.501 -46zM304.998 701.997c-26.667 -1.33301 -44.667 -3.66797 -54 -7.00098v-308c15.333 -2 39.666 -3 72.999 -3c54.667 0 96 13.167 124 39.5s42 68.833 42 127.5
c0 49.333 -13.167 87.333 -39.5 114s-67.5 39.334 -123.5 38.001c-5.33301 -0.666992 -12.666 -1 -21.999 -1zM222.998 937.995l125 -76l129 76l44 -28l-123 -124h-100l-123 124z" />
    <glyph glyph-name="rcaron" unicode="&#x159;" horiz-adv-x="458" 
d="M125 62v369l-69 41v42l148 44l28 -9v-83c10.667 22 32.5 42.833 65.5 62.5s63.5 29.5 91.5 29.5c25.333 0 41.666 -1.33301 48.999 -4v-120c-24 12 -52.667 18 -86 18c-41.333 0 -75.666 -9 -102.999 -27v-361l129 -13v-51h-325v51zM119 866l135 -118l133 119l50 -28
l-131 -187h-104l-133 187z" />
    <glyph glyph-name="Sacute" unicode="&#x15a;" horiz-adv-x="615" 
d="M170.5 1c-46.333 8.66699 -79.1709 18.3281 -98.5039 28.9951v172h54l37 -104c16.667 -19.333 37.834 -32.666 63.501 -39.999s55.167 -11 88.5 -11c38 0 70.167 10.333 96.5 31s39.5 50.667 39.5 90c0 31.333 -13.167 59.166 -39.5 83.499s-64.5 50.5 -114.5 78.5
c-50 26.667 -90 50.334 -120 71.001s-54.667 44.834 -74 72.501s-29 59.834 -29 96.501c0 42 12.167 77.667 36.5 107s55.333 51.333 93 66s76.167 22 115.5 22c40 0 79.833 -3.66699 119.5 -11s68.5 -15.666 86.5 -24.999v-146h-57l-40 97
c-10 8.66699 -25.167 15.5 -45.5 20.5s-41.166 7.5 -62.499 7.5c-33.333 0 -63.333 -8.83301 -90 -26.5s-40 -44.5 -40 -80.5c0 -35.333 14.5 -65.666 43.5 -90.999s73.167 -53.666 132.5 -84.999c42.667 -22.667 78.334 -44 107.001 -64s52.334 -43.5 71.001 -70.5
s28 -57.833 28 -92.5c0 -68.667 -25.167 -120.834 -75.5 -156.501s-113.833 -53.5 -190.5 -53.5c-44 0 -89.167 4.33301 -135.5 13zM381.995 937.994l81.002 -81c-26.667 -18 -60.334 -33.833 -101.001 -47.5s-77.334 -22.5 -110.001 -26.5l-34 35z" />
    <glyph glyph-name="Scedilla" unicode="&#x15e;" horiz-adv-x="615" 
d="M571 199c0 -65.333 -23.0059 -115.84 -69.0059 -151.507s-105 -55.167 -177 -58.5l-1 -22c0 -8.66699 0.666992 -18.334 2 -29.001c37.333 -0.666992 66.166 -10.334 86.499 -29.001s30.5 -40 30.5 -64c0 -34.667 -13.667 -60.5 -41 -77.5s-63 -25.5 -107 -25.5
c-21.333 0 -39.666 1.83301 -54.999 5.5s-25.333 5.83398 -30 6.50098l1 58c5.33301 -2 14 -3.66699 26 -5s22 -2 30 -2c18 0 31.833 3 41.5 9s14.5 17.667 14.5 35c0 12.667 -5.16699 22.667 -15.5 30s-25.166 11 -44.499 11c-6 0 -11.167 -0.333008 -15.5 -1
s-7.5 -1 -9.5 -1c0 12.667 1.66699 28.667 5 48s7.33301 37.333 12 54c-38 2.66699 -74.167 7.83398 -108.5 15.501s-59.166 15.834 -74.499 24.501v172h54l37 -104c16.667 -19.333 37.834 -32.666 63.501 -39.999s55.167 -11 88.5 -11c38 0 70.167 10.333 96.5 31
s39.5 50.667 39.5 90c0 31.333 -13.167 59.166 -39.5 83.499s-64.5 50.5 -114.5 78.5c-50 26.667 -90 50.334 -120 71.001s-54.667 44.834 -74 72.501s-29 59.834 -29 96.501c0 42 12.167 77.667 36.5 107s55.333 51.333 93 66s76.167 22 115.5 22
c40 0 79.833 -3.66699 119.5 -11s68.5 -15.666 86.5 -24.999v-146h-57l-40 97c-10 8.66699 -25.167 15.5 -45.5 20.5s-41.166 7.5 -62.499 7.5c-33.333 0 -63.333 -8.83301 -90 -26.5s-40 -44.5 -40 -80.5c0 -35.333 14.5 -65.666 43.5 -90.999
s73.167 -53.666 132.5 -84.999c42.667 -22.667 78.334 -44 107.001 -64s52.334 -43.5 71.001 -70.5s28 -57.833 28 -92.5z" />
    <glyph glyph-name="scedilla" unicode="&#x15f;" horiz-adv-x="520" 
d="M479 158c0 -52.667 -19.332 -93.3311 -57.999 -121.998s-89 -44.667 -151 -48l-1 -22c0 -8.66699 0.666992 -18.334 2 -29.001c37.333 -0.666992 66.166 -10.334 86.499 -29.001s30.5 -40 30.5 -64c0 -34.667 -13.667 -60.5 -41 -77.5s-63 -25.5 -107 -25.5
c-21.333 0 -39.666 1.83301 -54.999 5.5s-25.333 5.83398 -30 6.50098l1 58c5.33301 -2 14 -3.66699 26 -5s22 -2 30 -2c18 0 31.833 3 41.5 9s14.5 17.667 14.5 35c0 12.667 -5.16699 22.667 -15.5 30s-25.166 11 -44.499 11c-6 0 -11.167 -0.333008 -15.5 -1
s-7.5 -1 -9.5 -1c0 13.333 1.66699 29.833 5 49.5s7.66602 37.5 12.999 53.5c-52 6.66699 -95.667 20.334 -131 41.001v118h56l25 -58c18 -16 34.667 -27.5 50 -34.5s34.333 -10.5 57 -10.5c32.667 0 58.334 6.83301 77.001 20.5s28 33.834 28 60.501
c-0.666992 20 -9.83398 36.333 -27.501 49s-45.167 27.334 -82.5 44.001l-25 11c-50 24 -89 49.667 -117 77s-42 61 -42 101c0 33.333 10.667 61.666 32 84.999s48.5 40.666 81.5 51.999s66.833 17 101.5 17c29.333 0 59 -3.16699 89 -9.5s54 -13.833 72 -22.5v-116h-57
l-23 57c-23.333 24.667 -50 37 -80 37c-28.667 0 -51.834 -5.83301 -69.501 -17.5s-26.5 -29.167 -26.5 -52.5c0 -17.333 5.83301 -32.5 17.5 -45.5s25 -23.5 40 -31.5s41.167 -21 78.5 -39c34.667 -16 62.167 -30.333 82.5 -43s37.5 -28.834 51.5 -48.501
s21 -43.834 21 -72.501z" />
    <glyph glyph-name="Scaron" unicode="&#x160;" horiz-adv-x="615" 
d="M170.5 1c-46.333 8.66699 -79.1709 18.3281 -98.5039 28.9951v172h54l37 -104c16.667 -19.333 37.834 -32.666 63.501 -39.999s55.167 -11 88.5 -11c38 0 70.167 10.333 96.5 31s39.5 50.667 39.5 90c0 31.333 -13.167 59.166 -39.5 83.499s-64.5 50.5 -114.5 78.5
c-50 26.667 -90 50.334 -120 71.001s-54.667 44.834 -74 72.501s-29 59.834 -29 96.501c0 42 12.167 77.667 36.5 107s55.333 51.333 93 66s76.167 22 115.5 22c40 0 79.833 -3.66699 119.5 -11s68.5 -15.666 86.5 -24.999v-146h-57l-40 97
c-10 8.66699 -25.167 15.5 -45.5 20.5s-41.166 7.5 -62.499 7.5c-33.333 0 -63.333 -8.83301 -90 -26.5s-40 -44.5 -40 -80.5c0 -35.333 14.5 -65.666 43.5 -90.999s73.167 -53.666 132.5 -84.999c42.667 -22.667 78.334 -44 107.001 -64s52.334 -43.5 71.001 -70.5
s28 -57.833 28 -92.5c0 -68.667 -25.167 -120.834 -75.5 -156.501s-113.833 -53.5 -190.5 -53.5c-44 0 -89.167 4.33301 -135.5 13zM189.995 937.994l125 -76l129 76l44 -28l-123 -124h-100l-123 124z" />
    <glyph glyph-name="scaron" unicode="&#x161;" horiz-adv-x="510" 
d="M128 866l134 -118l134 119l50 -28l-132 -187h-104l-132 187zM126 149l23 -58c18.667 -16 35.667 -27.5 51 -34.5s34.333 -10.5 57 -10.5c32.667 0 58.334 6.83301 77.001 20.5s28 33.834 28 60.501c-0.666992 20 -9.83398 36.333 -27.501 49s-45.167 27.334 -82.5 44.001
l-25 11c-50 24 -89 49.667 -117 77s-42 61 -42 101c0 34 10.667 62.5 32 85.5s48.5 40.167 81.5 51.5s66.833 17 101.5 17c29.333 0 58.833 -3.16699 88.5 -9.5s53.834 -13.833 72.501 -22.5v-116h-58l-23 57c-22 24.667 -48.333 37 -79 37
c-28.667 0 -51.834 -6 -69.501 -18s-26.5 -30 -26.5 -54c0 -17.333 5.83301 -32.333 17.5 -45s25.5 -23.334 41.5 -32.001s41.667 -21 77 -37c34.667 -16.667 62.167 -31.167 82.5 -43.5s37.333 -28.333 51 -48s20.5 -43.834 20.5 -72.501c0 -56 -21.5 -98.5 -64.5 -127.5
s-98.167 -43.5 -165.5 -43.5c-30.667 0 -62.167 3.83301 -94.5 11.5s-60.5 18.167 -84.5 31.5v118h57z" />
    <glyph glyph-name="Tcaron" unicode="&#x164;" horiz-adv-x="638" 
d="M209 938l125 -76l129 76l44 -28l-123 -124h-100l-123 124zM274 67v627l-162 -12l-34 -90l-60 -2l12 168h606v-167l-51 -6l-30 98l-158 11v-626l121 -16v-52h-361v52z" />
    <glyph glyph-name="tcaron" unicode="&#x165;" horiz-adv-x="432" 
d="M231 546l164.001 0.00195312v-71h-161v-223c0 -51.333 1.16699 -89 3.5 -113s7.33301 -41.833 15 -53.5s20.5 -17.5 38.5 -17.5c14 0 31.167 2.33301 51.5 7s34.5 9.66699 42.5 15l20 -48c-16.667 -16.667 -41.5 -29.834 -74.5 -39.501s-64.5 -14.5 -94.5 -14.5
c-42.667 0 -73.667 12.333 -93 37s-29 63.667 -29 117v333h-74v43c31.333 8 52.166 14.167 62.499 18.5s19.5 12.833 27.5 25.5c10 17.333 23.667 55.666 41 114.999h60v-131zM307.001 663.002c8.66699 40.667 13 85.666 13 134.999c0 25.333 -2.66699 49.5 -8 72.5
s-11 38.5 -17 46.5l7 21l95 24c9.33301 -10 17 -27.167 23 -51.5s9 -49.166 9 -74.499c0 -38.667 -6.16699 -77.667 -18.5 -117s-26.833 -68 -43.5 -86l-56 17z" />
    <glyph glyph-name="Umacron" unicode="&#x16a;" horiz-adv-x="776" 
d="M761 698l-75 -10v-356c0 -114.667 -24.667 -201 -74 -259s-119.333 -87 -210 -87c-108 0 -186.5 27.333 -235.5 82s-73.5 137.667 -73.5 249l2 372l-78 9v60h287v-60l-86 -10v-375c0 -92.667 17.333 -159.667 52 -201s84.667 -62 150 -62c120 0 180 94 180 282l-1 356
l-86 10v60h248v-60zM546 907v-89h-265v89h265z" />
    <glyph glyph-name="umacron" unicode="&#x16b;" horiz-adv-x="638" 
d="M44 479v46.001l148 33l20 -9v-337c0 -52 6.5 -89.167 19.5 -111.5s37.833 -33.5 74.5 -33.5c21.333 0 43.5 4.66699 66.5 14s39.833 19 50.5 29v342l-61 22v50l163 34l18 -8v-499h58v-44c-10 -6 -26.333 -11.333 -49 -16s-42.334 -7 -59.001 -7
c-18 0 -32.167 3.83301 -42.5 11.5s-15.5 19.167 -15.5 34.5v33c-23.333 -22.667 -50.666 -40.667 -81.999 -54s-61.333 -20 -90 -20c-48 0 -84.167 8.83301 -108.5 26.5s-40.5 42.167 -48.5 73.5s-12.333 72.666 -13 123.999v244zM450 776.001v-89h-265v89h265z" />
    <glyph glyph-name="Uring" unicode="&#x16e;" horiz-adv-x="776" 
d="M761 758v-60l-75 -10v-356c0 -114.667 -24.667 -201 -74 -259s-119.333 -87 -210 -87c-108 0 -186.5 27.333 -235.5 82s-73.5 137.667 -73.5 249l2 372l-78 9v60h279c-12.667 19.333 -19 40 -19 62c0 34 12.667 62.167 38 84.5s56.333 33.5 93 33.5
s67.667 -11.167 93 -33.5s38 -50.5 38 -84.5c0 -23.333 -6.33301 -44 -19 -62h241zM363 862.5c-12 -11.667 -18 -26.167 -18 -43.5s6 -31.666 18 -42.999s27 -17 45 -17c17.333 0 32.166 5.66699 44.499 17s18.5 25.666 18.5 42.999s-6.16699 31.833 -18.5 43.5
s-27.166 17.5 -44.499 17.5c-18 0 -33 -5.83301 -45 -17.5zM600 332l-1.00098 356l-86 10v51c-12 -14.667 -27.167 -26 -45.5 -34s-38.166 -12 -59.499 -12c-20.667 0 -40.167 4 -58.5 12s-33.5 19 -45.5 33v-50l-86 -10v-375c0 -92.667 17.333 -159.667 52 -201
s84.667 -62 150 -62c120 0 180 94 180 282z" />
    <glyph glyph-name="uring" unicode="&#x16f;" horiz-adv-x="638" 
d="M44 479v46.001l148 33l20 -9v-337c0 -52 6.5 -89.167 19.5 -111.5s37.833 -33.5 74.5 -33.5c21.333 0 43.5 4.66699 66.5 14s39.833 19 50.5 29v342l-61 22v50l163 34l18 -8v-499h58v-44c-10 -6 -26.333 -11.333 -49 -16s-42.334 -7 -59.001 -7
c-18 0 -32.167 3.83301 -42.5 11.5s-15.5 19.167 -15.5 34.5v33c-23.333 -22.667 -50.666 -40.667 -81.999 -54s-61.333 -20 -90 -20c-48 0 -84.167 8.83301 -108.5 26.5s-40.5 42.167 -48.5 73.5s-12.333 72.666 -13 123.999v244zM380.5 869.001
c20.333 -11.333 36.334 -26.501 48.001 -45.501s17.5 -39.5 17.5 -61.5c0 -22.667 -6 -43.5 -18 -62.5s-28 -33.833 -48 -44.5s-41.667 -16 -65 -16s-44.833 5.5 -64.5 16.5s-35.5 25.833 -47.5 44.5s-18 39.334 -18 62.001s6 43.5 18 62.5s27.833 34 47.5 45
s41.167 16.5 64.5 16.5s45.166 -5.66699 65.499 -17zM269.501 807c-12.333 -12.667 -18.5 -28 -18.5 -46s6.16699 -33.167 18.5 -45.5s27.833 -18.5 46.5 -18.5c18 0 33.167 6.16699 45.5 18.5s18.5 27.5 18.5 45.5c0 17.333 -6.33301 32.5 -19 45.5s-27.667 19.5 -45 19.5
c-18.667 0 -34.167 -6.33301 -46.5 -19z" />
    <glyph glyph-name="Uhungarumlaut" unicode="&#x170;" horiz-adv-x="776" 
d="M761 698l-75 -10v-356c0 -114.667 -24.667 -201 -74 -259s-119.333 -87 -210 -87c-108 0 -186.5 27.333 -235.5 82s-73.5 137.667 -73.5 249l2 372l-78 9v60h287v-60l-86 -10v-375c0 -92.667 17.333 -159.667 52 -201s84.667 -62 150 -62c120 0 180 94 180 282l-1 356
l-86 10v60h248v-60zM368 1010l78 -67c-21.333 -28.667 -51.5 -60.667 -90.5 -96s-71.5 -60.333 -97.5 -75l-42 35zM620 1010l81 -67c-24 -30.667 -55.5 -63.5 -94.5 -98.5s-71.167 -59.167 -96.5 -72.5l-41 35z" />
    <glyph glyph-name="uhungarumlaut" unicode="&#x171;" horiz-adv-x="638" 
d="M44 479v46.001l148 33l20 -9v-337c0 -52 6.5 -89.167 19.5 -111.5s37.833 -33.5 74.5 -33.5c21.333 0 43.5 4.66699 66.5 14s39.833 19 50.5 29v342l-61 22v50l163 34l18 -8v-499h58v-44c-10 -6 -26.333 -11.333 -49 -16s-42.334 -7 -59.001 -7
c-18 0 -32.167 3.83301 -42.5 11.5s-15.5 19.167 -15.5 34.5v33c-23.333 -22.667 -50.666 -40.667 -81.999 -54s-61.333 -20 -90 -20c-48 0 -84.167 8.83301 -108.5 26.5s-40.5 42.167 -48.5 73.5s-12.333 72.666 -13 123.999v244zM293 889.001l78 -67
c-21.333 -28.667 -51.5 -60.667 -90.5 -96s-71.5 -60.333 -97.5 -75l-42 35zM545 889.001l81 -67c-24 -30.667 -55.5 -63.5 -94.5 -98.5s-71.167 -59.167 -96.5 -72.5l-41 35z" />
    <glyph glyph-name="Uogonek" unicode="&#x172;" horiz-adv-x="776" 
d="M762 758l0.000976562 -59.999l-75 -10v-356c0 -101.333 -19.5 -180.5 -58.5 -237.5s-94.5 -91.5 -166.5 -103.5c-28.667 -13.333 -54.834 -32 -78.501 -56s-35.5 -45 -35.5 -63c0 -32.667 17 -49 51 -49c19.333 0 44.333 6.33301 75 19l12 -52
c-18 -14.667 -40.5 -25.834 -67.5 -33.501s-55.5 -11.5 -85.5 -11.5c-28.667 0 -52.334 8.33301 -71.001 25s-28 38.334 -28 65.001c0 25.333 13 52.5 39 81.5s57 52.5 93 70.5c-95.333 6 -164.666 36.167 -207.999 90.5s-65 134.166 -65 239.499l2 372l-78 9v60h287v-60
l-86 -10v-375c0 -92.667 17.333 -159.667 52 -201s84.667 -62 150 -62c120 0 180 94 180 282l-1 356l-86 10v60h249z" />
    <glyph glyph-name="uogonek" unicode="&#x173;" horiz-adv-x="638" 
d="M452 -69c-22 -22 -33.002 -42.333 -33.002 -61c0 -17.333 4.33301 -29.166 13 -35.499s22 -10.166 40 -11.499c14.667 -0.666992 29.334 1.5 44.001 6.5s28 10 40 15l25 10.5l13 -51c-23.333 -17.333 -49 -31.5 -77 -42.5s-61.333 -16.5 -100 -16.5
c-36 0 -63.333 8.33301 -82 25s-28 38 -28 64c0 28 14.667 57.333 44 88s63 55 101 73c-10.667 7.33301 -16 19 -16 35v33c-23.333 -22.667 -50.666 -40.667 -81.999 -54s-61.333 -20 -90 -20c-48 0 -84.167 8.83301 -108.5 26.5s-40.5 42.167 -48.5 73.5
s-12.333 72.666 -13 123.999v244l-49 22v46l148 33l20 -9v-337c0 -52 6.5 -89.167 19.5 -111.5s37.833 -33.5 74.5 -33.5c21.333 0 43.5 4.66699 66.5 14s39.833 19 50.5 29v342l-61 22v50l163 34l18 -8v-499h58v-44c-16 -8.66699 -40.667 -15.334 -74 -20.001
c-28.667 -15.333 -54 -34 -76 -56z" />
    <glyph glyph-name="Ydieresis" unicode="&#x178;" horiz-adv-x="682" 
d="M293 69v221l-232 400l-55 8v60h265v-59l-67 -9l143 -277l21 -49l20 51l126 273l-81 10v60h243v-60l-64 -15l-196 -388v-225l115 -18v-52h-345v52zM284.5 921c13 -12 19.5 -27.666 19.5 -46.999c0 -21.333 -8.66699 -39 -26 -53s-37 -21 -59 -21
c-19.333 0 -36 5.66699 -50 17s-21 26.666 -21 45.999c0 21.333 8.66699 39.333 26 54s36.333 22 57 22c22.667 0 40.5 -6 53.5 -18zM544.5 921.501c12.333 -11.667 18.5 -27.501 18.5 -47.501c0 -21.333 -8 -39 -24 -53s-35.667 -21 -59 -21
c-20 0 -36.833 5.83301 -50.5 17.5s-20.5 26.834 -20.5 45.501c0 21.333 8.66699 39.333 26 54s36.333 22 57 22c22.667 0 40.167 -5.83301 52.5 -17.5z" />
    <glyph glyph-name="Zacute" unicode="&#x179;" horiz-adv-x="666" 
d="M637 704l-398 -574l-55 -66l331 20l75 127l58 -15l-42 -196h-552l-16 52l401 574l61 70l-323 -16l-52 -114l-60 11l17 181h537zM472 938l81.002 -81c-26.667 -18 -60.334 -33.833 -101.001 -47.5s-77.334 -22.5 -110.001 -26.5l-34 35z" />
    <glyph glyph-name="zacute" unicode="&#x17a;" horiz-adv-x="539" 
d="M510 499l-266 -374l-53 -67l228 13l31 82h64l-7 -153h-451l-19 43l42 62l244 339l41 46l-212 -8l-31 -93h-61v157h433zM331 882l91.001 -82c-18.667 -29.333 -47.834 -57.333 -87.501 -84s-79.167 -47.667 -118.5 -63l-32 33z" />
    <glyph glyph-name="Zdotaccent" unicode="&#x17b;" horiz-adv-x="666" 
d="M637 704l-398 -574l-55 -66l331 20l75 127l58 -15l-42 -196h-552l-16 52l401 574l61 70l-323 -16l-52 -114l-60 11l17 181h537zM413.5 924.5c13.667 -12.333 20.499 -29.168 20.499 -50.501c0 -23.333 -9.16699 -42.333 -27.5 -57s-39.166 -22 -62.499 -22
c-20 0 -37.5 6 -52.5 18s-22.5 28.333 -22.5 49c0 22.667 9 41.834 27 57.501s38.333 23.5 61 23.5c24 0 42.833 -6.16699 56.5 -18.5z" />
    <glyph glyph-name="zdotaccent" unicode="&#x17c;" horiz-adv-x="539" 
d="M510 499l-266 -374l-53 -67l228 13l31 82h64l-7 -153h-451l-19 43l42 62l244 339l41 46l-212 -8l-31 -93h-61v157h433zM332.5 778.5c13 -11.667 19.5 -27.166 19.5 -46.499c0 -22 -8.66699 -40 -26 -54s-37 -21 -59 -21c-19.333 0 -36 5.83301 -50 17.5
s-21 27.167 -21 46.5c0 21.333 8.66699 39.166 26 53.499s36.333 21.5 57 21.5c22.667 0 40.5 -5.83301 53.5 -17.5z" />
    <glyph glyph-name="Zcaron" unicode="&#x17d;" horiz-adv-x="666" 
d="M637 704l-398 -574l-55 -66l331 20l75 127l58 -15l-42 -196h-552l-16 52l401 574l61 70l-323 -16l-52 -114l-60 11l17 181h537zM230 938l125 -76l129 76l44 -28l-123 -124h-100l-123 124z" />
    <glyph glyph-name="zcaron" unicode="&#x17e;" horiz-adv-x="539" 
d="M510 499l-266 -374l-53 -67l228 13l31 82h64l-7 -153h-451l-19 43l42 62l244 339l41 46l-212 -8l-31 -93h-61v157h433zM146 866l135 -118l133 119l50 -28l-131 -187h-104l-133 187z" />
    <glyph glyph-name="florin" unicode="&#x192;" horiz-adv-x="506" 
d="M74 468l3 42.999l104 32l4 44c3.33301 44.667 17 85.834 41 123.501s53.167 67.5 87.5 89.5s68.166 33 101.499 33c38 0 64 -4 78 -12l-7 -99c-9.33301 5.33301 -22.166 10 -38.499 14s-34.166 6 -53.499 6s-34.833 -2.66699 -46.5 -8s-20.834 -15.833 -27.501 -31.5
s-11 -39.167 -13 -70.5l-7 -86h140l-3 -78h-143l-49 -642h-119l50 642h-102z" />
    <glyph glyph-name="Scommaaccent" unicode="&#x218;" horiz-adv-x="615" 
d="M170.5 1c-46.333 8.66699 -79.1709 18.3281 -98.5039 28.9951v172h54l37 -104c16.667 -19.333 37.834 -32.666 63.501 -39.999s55.167 -11 88.5 -11c38 0 70.167 10.333 96.5 31s39.5 50.667 39.5 90c0 31.333 -13.167 59.166 -39.5 83.499s-64.5 50.5 -114.5 78.5
c-50 26.667 -90 50.334 -120 71.001s-54.667 44.834 -74 72.501s-29 59.834 -29 96.501c0 42 12.167 77.667 36.5 107s55.333 51.333 93 66s76.167 22 115.5 22c40 0 79.833 -3.66699 119.5 -11s68.5 -15.666 86.5 -24.999v-146h-57l-40 97
c-10 8.66699 -25.167 15.5 -45.5 20.5s-41.166 7.5 -62.499 7.5c-33.333 0 -63.333 -8.83301 -90 -26.5s-40 -44.5 -40 -80.5c0 -35.333 14.5 -65.666 43.5 -90.999s73.167 -53.666 132.5 -84.999c42.667 -22.667 78.334 -44 107.001 -64s52.334 -43.5 71.001 -70.5
s28 -57.833 28 -92.5c0 -68.667 -25.167 -120.834 -75.5 -156.501s-113.833 -53.5 -190.5 -53.5c-44 0 -89.167 4.33301 -135.5 13zM368.495 -71.5059c19.667 -24.333 29.499 -52.167 29.499 -83.5c0 -26 -6.5 -50.667 -19.5 -74s-29.167 -43 -48.5 -59
s-37.666 -26.667 -54.999 -32l-39 25v13c16 9.33301 28 22.833 36 40.5s12 36.834 12 57.501c0 17.333 -6 32.666 -18 45.999s-24 20 -36 20v30l58 62c34 -6 60.833 -21.167 80.5 -45.5z" />
    <glyph glyph-name="scommaaccent" unicode="&#x219;" horiz-adv-x="520" 
d="M126 149l25 -57.998c18 -16 34.667 -27.5 50 -34.5s34.333 -10.5 57 -10.5c32.667 0 58.334 6.83301 77.001 20.5s28 33.834 28 60.501c-0.666992 20 -9.83398 36.333 -27.501 49s-45.167 27.334 -82.5 44.001l-25 11c-50 24 -89 49.667 -117 77s-42 61 -42 101
c0 33.333 10.667 61.666 32 84.999s48.5 40.666 81.5 51.999s66.833 17 101.5 17c29.333 0 59 -3.16699 89 -9.5s54 -13.833 72 -22.5v-116h-57l-23 57c-23.333 24.667 -50 37 -80 37c-28.667 0 -51.834 -5.83301 -69.501 -17.5s-26.5 -29.167 -26.5 -52.5
c0 -17.333 5.83301 -32.5 17.5 -45.5s25 -23.5 40 -31.5s41.167 -21 78.5 -39c34.667 -16 62.167 -30.333 82.5 -43s37.5 -28.834 51.5 -48.501s21 -43.834 21 -72.501c0 -56 -21.667 -98.5 -65 -127.5s-98.666 -43.5 -165.999 -43.5c-30.667 0 -62.167 3.83301 -94.5 11.5
s-60.5 18.167 -84.5 31.5v118h56zM320.5 -72.498c19.667 -24.333 29.499 -52.167 29.499 -83.5c0 -26 -6.5 -50.667 -19.5 -74s-29.167 -43 -48.5 -59s-37.666 -26.667 -54.999 -32l-39 25v13c16 9.33301 28 22.833 36 40.5s12 36.834 12 57.501
c0 17.333 -6 32.666 -18 45.999s-24 20 -36 20v30l58 62c34 -6 60.833 -21.167 80.5 -45.5z" />
    <glyph glyph-name="uni021A" unicode="&#x21a;" horiz-adv-x="652" 
d="M274 67v627l-162 -12l-34 -90l-60 -2l12 168h606v-167l-51 -6l-30 98l-158 11v-626l121 -16v-52h-361v52zM399.5 -64.5c19.667 -24.333 29.499 -52.167 29.499 -83.5c0 -26 -6.5 -50.667 -19.5 -74s-29.167 -43 -48.5 -59s-37.666 -26.667 -54.999 -32l-39 25v13
c16 9.33301 28 22.833 36 40.5s12 36.834 12 57.501c0 17.333 -6 32.666 -18 45.999s-24 20 -36 20v30l58 62c34 -6 60.833 -21.167 80.5 -45.5z" />
    <glyph glyph-name="uni021B" unicode="&#x21b;" horiz-adv-x="432" 
d="M231 546l164.001 0.00195312v-71h-161v-223c0 -51.333 1.16699 -89 3.5 -113s7.33301 -41.833 15 -53.5s20.5 -17.5 38.5 -17.5c14 0 31.167 2.33301 51.5 7s34.5 9.66699 42.5 15l20 -48c-16.667 -16.667 -41.5 -29.834 -74.5 -39.501s-64.5 -14.5 -94.5 -14.5
c-42.667 0 -73.667 12.333 -93 37s-29 63.667 -29 117v333h-74v43c31.333 8 52.166 14.167 62.499 18.5s19.5 12.833 27.5 25.5c10 17.333 23.667 55.666 41 114.999h60v-131zM291.501 -64.498c19.667 -24.333 29.499 -52.167 29.499 -83.5c0 -26 -6.5 -50.667 -19.5 -74
s-29.167 -43 -48.5 -59s-37.666 -26.667 -54.999 -32l-39 25v13c16 9.33301 28 22.833 36 40.5s12 36.834 12 57.501c0 17.333 -6 32.666 -18 45.999s-24 20 -36 20v30l58 62c34 -6 60.833 -21.167 80.5 -45.5z" />
    <glyph glyph-name="uni0237" unicode="&#x237;" horiz-adv-x="323" 
d="M57 476v34.001l156 48l28 -11v-560c0 -74.667 -16 -133.834 -48 -177.501s-76 -65.5 -132 -65.5c-11.333 0 -24.833 1.16699 -40.5 3.5s-25.5 4.83301 -29.5 7.5v76c4 -1.33301 12.167 -2.5 24.5 -3.5s22.5 -1.5 30.5 -1.5c28.667 0 48.167 13.167 58.5 39.5
s15.5 70.5 15.5 132.5v429z" />
    <glyph glyph-name="circumflex" unicode="&#x2c6;" horiz-adv-x="519" 
d="M206 867h106l130 -187l-53 -28l-130 120l-138 -120l-47 27z" />
    <glyph glyph-name="caron" unicode="&#x2c7;" horiz-adv-x="519" 
d="M125 866l135 -118l133 119l50 -28l-131 -187h-104l-133 187z" />
    <glyph glyph-name="breve" unicode="&#x2d8;" horiz-adv-x="583" 
d="M438.5 749.5c-15 -25 -35.499 -45.0029 -61.499 -60.0029s-54.667 -22.5 -86 -22.5c-32.667 0 -62 7.33301 -88 22s-46.167 34.334 -60.5 59.001s-21.5 51.334 -21.5 80.001h67c5.33301 -14 11.166 -26.167 17.499 -36.5s16.5 -20.166 30.5 -29.499s32.667 -14 56 -14
c32 0 55.333 8 70 24s26 35 34 57h65c0 -28 -7.5 -54.5 -22.5 -79.5z" />
    <glyph glyph-name="dotaccent" unicode="&#x2d9;" horiz-adv-x="306" 
d="M210.5 778.5c13 -11.667 19.5 -27.166 19.5 -46.499c0 -22 -8.66699 -40 -26 -54s-37 -21 -59 -21c-19.333 0 -36 5.83301 -50 17.5s-21 27.167 -21 46.5c0 21.333 8.66699 39.166 26 53.499s36.333 21.5 57 21.5c22.667 0 40.5 -5.83301 53.5 -17.5z" />
    <glyph glyph-name="ring" unicode="&#x2da;" horiz-adv-x="292" 
d="M210.5 869c20.333 -11.333 36.334 -26.501 48.001 -45.501s17.5 -39.5 17.5 -61.5c0 -22.667 -6 -43.5 -18 -62.5s-28 -33.833 -48 -44.5s-41.667 -16 -65 -16s-44.833 5.5 -64.5 16.5s-35.5 25.833 -47.5 44.5s-18 39.334 -18 62.001s6 43.5 18 62.5s27.833 34 47.5 45
s41.167 16.5 64.5 16.5s45.166 -5.66699 65.499 -17zM99.501 806.999c-12.333 -12.667 -18.5 -28 -18.5 -46s6.16699 -33.167 18.5 -45.5s27.833 -18.5 46.5 -18.5c18 0 33.167 6.16699 45.5 18.5s18.5 27.5 18.5 45.5c0 17.333 -6.33301 32.5 -19 45.5
s-27.667 19.5 -45 19.5c-18.667 0 -34.167 -6.33301 -46.5 -19z" />
    <glyph glyph-name="ogonek" unicode="&#x2db;" horiz-adv-x="356" 
d="M194 0c-32 -12 -63 -31.1689 -93 -57.502s-45 -50.5 -45 -72.5c0 -17.333 4.33301 -29.166 13 -35.499s22 -10.166 40 -11.499c14.667 -0.666992 29.334 1.5 44.001 6.5s28 10 40 15l25 10.5l13 -51c-23.333 -17.333 -49 -31.5 -77 -42.5s-61.333 -16.5 -100 -16.5
c-36 0 -63.333 8.33301 -82 25s-28 38 -28 64c0 30 16.167 61 48.5 93s68.166 56.333 107.499 73l44 4z" />
    <glyph glyph-name="tilde" unicode="&#x2dc;" horiz-adv-x="467" 
d="M97.5 787c28.333 18.667 55.167 27.998 80.5 27.998c16 0 29.5 -2.83301 40.5 -8.5s23.5 -14.167 37.5 -25.5c2 -1.33301 6.66699 -4.66602 14 -9.99902s14.333 -9.33301 21 -12s13.334 -4 20.001 -4c16 0 30.833 3.83301 44.5 11.5s27.5 17.834 41.5 30.501l32 -40
c-12 -24 -31.833 -45.333 -59.5 -64s-54.167 -28 -79.5 -28c-16.667 0 -30.834 3 -42.501 9s-24.167 14.333 -37.5 25c-10.667 8.66699 -20 15.167 -28 19.5s-16.667 6.5 -26 6.5c-25.333 0 -54.333 -14 -87 -42l-32 41c12 23.333 32.167 44.333 60.5 63z" />
    <glyph glyph-name="hungarumlaut" unicode="&#x2dd;" horiz-adv-x="459" 
d="M212 889l78 -67c-21.333 -28.667 -51.5 -60.667 -90.5 -96s-71.5 -60.333 -97.5 -75l-42 35zM464 889l81 -67c-24 -30.667 -55.5 -63.5 -94.5 -98.5s-71.167 -59.167 -96.5 -72.5l-41 35z" />
    <glyph glyph-name="uni0326" unicode="&#x326;" horiz-adv-x="356" 
d="M-104.5 -64.5c19.667 -24.333 29.499 -52.167 29.499 -83.5c0 -26 -6.5 -50.667 -19.5 -74s-29.167 -43 -48.5 -59s-37.666 -26.667 -54.999 -32l-39 25v13c16 9.33301 28 22.833 36 40.5s12 36.834 12 57.501c0 17.333 -6 32.666 -18 45.999s-24 20 -36 20v30l58 62
c34 -6 60.833 -21.167 80.5 -45.5z" />
    <glyph glyph-name="Omega" unicode="&#x3a9;" horiz-adv-x="983" 
d="M133 210l17.999 -100.998h167c-30 17.333 -59.167 41.666 -87.5 72.999s-51.333 67 -69 107s-26.5 80.667 -26.5 122c0 75.333 16.167 139.333 48.5 192s75.666 92.167 129.999 118.5s113.833 39.5 178.5 39.5c65.333 0 123.5 -12.333 174.5 -37s90.833 -61 119.5 -109
s43 -105.667 43 -173c0 -38 -8.66699 -78 -26 -120s-39.833 -81.833 -67.5 -119.5s-56.5 -68.834 -86.5 -93.501h165l40 113l56 -4l-25 -218h-334v95c42.667 28 77.334 74.667 104.001 140s40 134 40 206c0 58 -9.16699 107 -27.5 147s-43.166 70 -74.499 90s-67 30 -107 30
c-69.333 0 -123 -24.167 -161 -72.5s-57 -118.5 -57 -210.5c0 -45.333 7.83301 -89.833 23.5 -133.5s35.667 -82.5 60 -116.5s49.5 -60.667 75.5 -80v-95h-355v207z" />
    <glyph glyph-name="mu" unicode="&#x3bc;" horiz-adv-x="668" 
d="M118 -179l-0.000976562 636l-49 22v46l147 33l21 -9v-337c0 -52 6.5 -89.167 19.5 -111.5s37.833 -33.5 74.5 -33.5c21.333 0 43.5 4.66699 66.5 14s39.5 19 49.5 29v342l-61 22v50l164 34l18 -8v-499h58v-44c-10 -6 -26.5 -11.333 -49.5 -16s-42.833 -7 -59.5 -7
c-18 0 -32 3.83301 -42 11.5s-15 19.167 -15 34.5v33c-23.333 -23.333 -50.666 -41.5 -81.999 -54.5s-61.333 -19.5 -90 -19.5c-22 0 -39 1.66699 -51 5v-173h-119z" />
    <glyph glyph-name="pi" unicode="&#x3c0;" horiz-adv-x="785" 
d="M671.5 482c-27.667 -30 -63.4951 -45.999 -107.495 -47.999l-13 -289c-0.666992 -19.333 1.33301 -34 6 -44s11 -15 19 -15c15.333 0 30.166 5.5 44.499 16.5s24.166 24.833 29.499 41.5h66c-6 -23.333 -17 -47 -33 -71s-35.5 -43.833 -58.5 -59.5
s-47.167 -23.5 -72.5 -23.5c-33.333 0 -56.833 10.5 -70.5 31.5s-20.5 49.5 -20.5 85.5c0 10.667 0.333008 19 1 25l17 217c2 20 4.33301 48.333 7 85h-172l-7 -224c-3.33301 -53.333 -9.33301 -92.166 -18 -116.499s-24.667 -47.166 -48 -68.499
c-16.667 -15.333 -40.667 -27.666 -72 -36.999l-89 69c4.66699 0 15.667 3.66699 33 11s31 14.666 41 21.999c26.667 17.333 44.667 37.166 54 59.499s15 52.166 17 89.499l8 135c1.33301 13.333 2.66602 33.333 3.99902 60h-36c-18.667 0 -35.834 -4.5 -51.501 -13.5
s-26.167 -20.833 -31.5 -35.5l-58 9c-0.666992 2 -1 5.66699 -1 11c0 13.333 2.66699 25.666 8 36.999c12.667 32 32.5 57.333 59.5 76s57.5 28 91.5 28h345c22.667 0 42.167 4 58.5 12s29.166 21.667 38.499 41h58c-3.33301 -48 -18.833 -87 -46.5 -117z" />
    <glyph glyph-name="uni0901" unicode="&#x901;" 
d="M-62 989l-90 -91l-91 91l90 90zM-168 825c39.333 0 73.999 10.499 103.999 31.499s54 45.5 72 73.5l77 -72c-27.333 -35.333 -57.166 -62.666 -89.499 -81.999s-72.166 -29 -119.499 -29c-50.667 0 -96.334 17 -137.001 51s-73.667 73.667 -99 119l33 15
c48.667 -71.333 101.667 -107 159 -107z" />
    <glyph glyph-name="uni0902" unicode="&#x902;" 
d="M-63 813l-90 -91l-90 91l90 91z" />
    <glyph glyph-name="uni0903" unicode="&#x903;" horiz-adv-x="307" 
d="M241 434l-89 -92l-91 91l90 91zM241 98l-89 -92l-91 91l90 91z" />
    <glyph glyph-name="uni0904" unicode="&#x904;" horiz-adv-x="858" 
d="M858 568l-101.999 0.00195312v-610h-18l-87 50v211h-1c-15.333 -6.66699 -32.666 -10 -51.999 -10c-21.333 0 -41.333 3.83301 -60 11.5s-38.667 20.167 -60 37.5l-4 -1c12.667 -24.667 19 -52.667 19 -84c0 -49.333 -15.167 -88.833 -45.5 -118.5
s-70.166 -44.5 -119.499 -44.5c-70 0 -130.167 24.667 -180.5 74s-95.5 108.666 -135.5 177.999l34 25c33.333 -51.333 71 -94.166 113 -128.499s84 -51.5 126 -51.5c34 0 62 10.333 84 31s33 45.334 33 74.001c0 39.333 -13 72.333 -39 99c-38 -12 -84 -21.667 -138 -29
l-42 76l11 25c68.667 4.66699 116.667 14.667 144 30c33.333 19.333 50 48.333 50 87c0 20.667 -8.83301 39 -26.5 55s-39.167 24 -64.5 24c-27.333 0 -53.166 -6.33301 -77.499 -19s-49.5 -31 -75.5 -55l-51 98c23.333 17.333 51.666 32.666 84.999 45.999s61.333 20 84 20
c27.333 0 56.833 -11.167 88.5 -33.5s58.167 -49.833 79.5 -82.5s32 -64.334 32 -95.001c0 -45.333 -17 -85.333 -51 -120c20.667 -10.667 43.667 -19.667 69 -27s48.666 -11 69.999 -11c38 0 71.667 10.333 101 31v237h-139l-38 71v18h195c3.33301 8.66699 5 17.667 5 27
c0 26.667 -8.66699 49.667 -26 69s-45.333 29 -84 29c-19.333 0 -48.333 -2.33301 -87 -7c-49.333 -5.33301 -84.666 -8 -105.999 -8c-38 0 -75.667 6.33301 -113 19s-67.833 28.667 -91.5 48s-35.5 39 -35.5 59c0 28 7.66699 61 23 99l53 -7c-12 -29.333 -18 -53 -18 -71
c0 -15.333 7.16699 -27.333 21.5 -36s35.166 -13 62.499 -13c15.333 0 40.166 1.33301 74.499 4s58.166 4.33398 71.499 5.00098c69.333 5.33301 111 8 125 8c27.333 0 53 -6.5 77 -19.5s45 -30.167 63 -51.5c14 -17.333 25.333 -35.333 34 -54s13 -36.334 13 -53.001
c0 -12.667 -2 -28.334 -6 -47.001h94l39 -72v-17z" />
    <glyph glyph-name="uni0905" unicode="&#x905;" horiz-adv-x="858" 
d="M857 568l-101.001 0.000976562v-610h-18l-87 50v211h-1c-15.333 -6.66699 -32.666 -10 -51.999 -10c-21.333 0 -41.333 3.83301 -60 11.5s-38.667 20.167 -60 37.5l-4 -1c12.667 -24.667 19 -52.667 19 -84c0 -49.333 -15.167 -88.833 -45.5 -118.5
s-70.166 -44.5 -119.499 -44.5c-70 0 -130.167 24.667 -180.5 74s-95.5 108.666 -135.5 177.999l34 25c33.333 -51.333 71 -94.166 113 -128.499s84 -51.5 126 -51.5c34 0 62 10.333 84 31s33 45.334 33 74.001c0 39.333 -13 72.333 -39 99c-38 -12 -84 -21.667 -138 -29
l-42 76l11 25c68.667 4.66699 116.667 14.667 144 30c33.333 19.333 50 48.333 50 87c0 20.667 -8.83301 39 -26.5 55s-39.167 24 -64.5 24c-27.333 0 -53.166 -6.33301 -77.499 -19s-49.5 -31 -75.5 -55l-51 98c23.333 17.333 51.666 32.666 84.999 45.999s61.333 20 84 20
c27.333 0 56.833 -11.167 88.5 -33.5s58.167 -49.833 79.5 -82.5s32 -64.334 32 -95.001c0 -45.333 -17 -85.333 -51 -120c20.667 -10.667 43.667 -19.667 69 -27s48.666 -11 69.999 -11c38 0 71.667 10.333 101 31v237h-139l-38 71v18h345l38 -72v-17z" />
    <glyph glyph-name="uni0906" unicode="&#x906;" horiz-adv-x="1167" 
d="M1167 568l-103.001 0.000976562v-610h-18l-88 50v560h-202v-610h-18l-87 50v211h-1c-15.333 -6.66699 -32.666 -10 -51.999 -10c-21.333 0 -41.333 3.83301 -60 11.5s-38.667 20.167 -60 37.5l-4 -1c12.667 -24.667 19 -52.667 19 -84
c0 -49.333 -15.167 -88.833 -45.5 -118.5s-70.166 -44.5 -119.499 -44.5c-70 0 -130.167 24.667 -180.5 74s-95.5 108.666 -135.5 177.999l34 25c33.333 -51.333 71 -94.166 113 -128.499s84 -51.5 126 -51.5c34 0 62 10.333 84 31s33 45.334 33 74.001
c0 39.333 -13 72.333 -39 99c-38 -12 -84 -21.667 -138 -29l-42 76l11 25c68.667 4.66699 116.667 14.667 144 30c33.333 19.333 50 48.333 50 87c0 20.667 -8.83301 39 -26.5 55s-39.167 24 -64.5 24c-27.333 0 -53.166 -6.33301 -77.499 -19s-49.5 -31 -75.5 -55l-51 98
c23.333 17.333 51.666 32.666 84.999 45.999s61.333 20 84 20c27.333 0 56.833 -11.167 88.5 -33.5s58.167 -49.833 79.5 -82.5s32 -64.334 32 -95.001c0 -45.333 -17 -85.333 -51 -120c20.667 -10.667 43.667 -19.667 69 -27s48.666 -11 69.999 -11
c38 0 71.667 10.333 101 31v237h-139l-38 71v18h654l39 -72v-17z" />
    <glyph glyph-name="uni0907" unicode="&#x907;" horiz-adv-x="525" 
d="M159 380.5c-9.33301 -13 -14.001 -27.834 -14.001 -44.501c0 -12 3.33301 -23.167 10 -33.5s14 -15.5 22 -15.5c23.333 0 58 7 104 21c30.667 8.66699 51 13 61 13c18 0 35.667 -8.83301 53 -26.5s31.333 -40.167 42 -67.5s16 -54 16 -80
c0 -29.333 -10 -56.666 -30 -81.999s-46.167 -45.833 -78.5 -61.5s-65.833 -23.834 -100.5 -24.501l33 -29l34 -119l-64 61l-33 88c-41.333 3.33301 -77.5 14 -108.5 32s-46.5 39.667 -46.5 65c0 14 3.83301 26.5 11.5 37.5s17.167 19.667 28.5 26s21.666 9.5 30.999 9.5
c5.33301 0 11.333 -0.666992 18 -2l50 -79c34.667 0.666992 68 5.5 100 14.5s58.167 21.167 78.5 36.5s30.5 33 30.5 53c0 11.333 -2.16699 23 -6.5 35s-9.5 19.667 -15.5 23c-11.333 0 -33.333 -5 -66 -15c-41.333 -12 -70.333 -18 -87 -18
c-15.333 0 -35.166 8.83301 -59.499 26.5s-45.5 39.334 -63.5 65.001s-27 50.167 -27 73.5c0 42.667 9 75 27 97s42.333 33 73 33h128v75h-313l-37 71v18h525l39 -72v-17h-108v-168h-208c-23.333 0 -39.666 -6.5 -48.999 -19.5z" />
    <glyph glyph-name="uni0908" unicode="&#x908;" horiz-adv-x="525" 
d="M484 658l38.999 -72.001v-17h-108v-168h-207c-23.333 0 -39.666 -6.5 -48.999 -19.5s-14 -27.833 -14 -44.5c0 -12 3.33301 -23.167 10 -33.5s14 -15.5 22 -15.5c23.333 0 58 7 104 21c30.667 8.66699 51 13 61 13c18 0 35.667 -8.83301 53 -26.5
s31.333 -40.167 42 -67.5s16 -54 16 -80c0 -29.333 -10 -56.666 -30 -81.999s-46.167 -45.833 -78.5 -61.5s-65.833 -23.834 -100.5 -24.501l33 -29l34 -119l-64 61l-33 88c-41.333 3.33301 -77.5 14 -108.5 32s-46.5 39.667 -46.5 65c0 14 3.83301 26.5 11.5 37.5
s17.167 19.667 28.5 26s21.666 9.5 30.999 9.5c5.33301 0 11.333 -0.666992 18 -2l50 -79c34.667 0.666992 68 5.5 100 14.5s58.167 21.167 78.5 36.5s30.5 33 30.5 53c0 11.333 -2.16699 23 -6.5 35s-9.5 19.667 -15.5 23c-11.333 0 -33.333 -5 -66 -15
c-41.333 -12 -70.333 -18 -87 -18c-15.333 0 -35.166 8.83301 -59.499 26.5s-45.5 39.334 -63.5 65.001s-27 50.167 -27 73.5c0 42.667 9 75 27 97s42.333 33 73 33h128v75h-313l-37 71v18h354c-35.333 27.333 -64.166 58 -86.499 92s-33.5 67 -33.5 99
c0 29.333 8 54.833 24 76.5s36.667 38.334 62 50.001s52 17.5 80 17.5c32.667 0 64.667 -8.66699 96 -26s59.666 -41 84.999 -71l-27 -41c-14 10.667 -33.167 21.167 -57.5 31.5s-46.833 15.5 -67.5 15.5c-23.333 0 -42.833 -7.66699 -58.5 -23s-23.5 -37.333 -23.5 -66
c0 -26.667 7.16699 -53.834 21.5 -81.501s31.5 -52.5 51.5 -74.5z" />
    <glyph glyph-name="uni0909" unicode="&#x909;" horiz-adv-x="609" 
d="M609 569l-191 0.000976562c20 -25.333 36.833 -50.333 50.5 -75s20.5 -45.667 20.5 -63c0 -42.667 -17 -78.667 -51 -108c37.333 -30.667 66 -59.667 86 -87s30 -57 30 -89c0 -26.667 -6.83301 -52.834 -20.5 -78.501s-32.834 -46.667 -57.501 -63
s-52.667 -24.5 -84 -24.5c-76.667 0 -146.334 28.667 -209.001 86s-114.334 120.333 -155.001 189l35 28c34.667 -54.667 78.334 -102.667 131.001 -144s103.667 -62 153 -62c23.333 0 43.833 5 61.5 15s31.334 23 41.001 39s14.5 32.333 14.5 49
c0 38 -24.667 75.667 -74 113c-25.333 -10.667 -52 -16 -80 -16c-29.333 0 -56 4.33301 -80 13l-40 88l9 18l32 -4.5c16.667 -2.33301 32 -3.5 46 -3.5c42 0 74.5 7.5 97.5 22.5s34.5 35.5 34.5 61.5c0 15.333 -6.16699 31.5 -18.5 48.5s-27.166 32.5 -44.499 46.5h-349
l-37 71v18h611l38 -72v-16z" />
    <glyph glyph-name="uni090A" unicode="&#x90a;" horiz-adv-x="871" 
d="M872 568h-452.999c20 -25.333 36.833 -50.333 50.5 -75s20.5 -45.667 20.5 -63c0 -42.667 -17 -78.667 -51 -108c15.333 -12 28.333 -23.333 39 -34c38 30.667 73.167 55.5 105.5 74.5s62.833 28.5 91.5 28.5c21.333 0 43.5 -8.16699 66.5 -24.5s42 -38.333 57 -66
s22.5 -57.167 22.5 -88.5c0 -26 -4.66699 -57.167 -14 -93.5s-21.333 -69.833 -36 -100.5l-115 51c25.333 28.667 48.666 59.667 69.999 93s32 62 32 86c0 18.667 -5.83301 33 -17.5 43s-27.167 15 -46.5 15c-24 0 -48.5 -9 -73.5 -27s-51.5 -42.667 -79.5 -74
c8.66699 -19.333 13 -38.666 13 -57.999c0 -26.667 -6.83301 -52.834 -20.5 -78.501s-32.834 -46.667 -57.501 -63s-52.667 -24.5 -84 -24.5c-76.667 0 -146.334 28.667 -209.001 86s-114.334 120.333 -155.001 189l35 28c34.667 -54.667 78.334 -102.667 131.001 -144
s103.667 -62 153 -62c23.333 0 43.833 5 61.5 15s31.334 23 41.001 39s14.5 32.333 14.5 49c0 38 -24.667 75.667 -74 113c-25.333 -10.667 -52 -16 -80 -16c-29.333 0 -56 4.33301 -80 13l-40 88l9 18l32 -4.5c16.667 -2.33301 32 -3.5 46 -3.5c42 0 74.5 7.5 97.5 22.5
s34.5 35.5 34.5 61.5c0 15.333 -6.16699 31.5 -18.5 48.5s-27.166 32.5 -44.499 46.5h-349l-37 71v18h872l39 -72z" />
    <glyph glyph-name="uni090B" unicode="&#x90b;" horiz-adv-x="884" 
d="M884 585l0.00292969 -17.001h-378v-227c44 0 83.333 11.667 118 35l-29 76c6 5.33301 14.833 10.5 26.5 15.5s22.834 7.5 33.501 7.5c24 0 44 -7 60 -21s24 -32 24 -54c0 -21.333 -8.33301 -41 -25 -59l74 -182c-38.667 -17.333 -67.334 -33.666 -86.001 -48.999
s-28 -32 -28 -50c0 -11.333 5.5 -21.333 16.5 -30s26.833 -13 47.5 -13c15.333 0 32.166 2.83301 50.499 8.5s34.166 12.834 47.499 21.501l51 -85c-14.667 -8 -31.834 -15 -51.501 -21s-36.834 -9 -51.501 -9c-24 0 -50 8 -78 24s-51.5 36.167 -70.5 60.5
s-28.5 48.166 -28.5 71.499c0.666992 22 8.33398 43.667 23.001 65s35.667 41 63 59l-34 86c-44.667 -24 -90 -36 -136 -36l-17 1v-305h-19l-88 51l2 201v4l-249 -179l-67 75l314 203c-30 22.667 -58.5 38.667 -85.5 48s-54.167 14 -81.5 14c-22 0 -44 -3.16699 -66 -9.5
s-47.333 -14.833 -76 -25.5l-56 99c16.667 6 41 13.167 73 21.5s58.333 12.5 79 12.5c54 0 125.333 -36 214 -108v203h-403l-37 71v18h885z" />
    <glyph glyph-name="uni090C" unicode="&#x90c;" horiz-adv-x="783" 
d="M783 585v-17.0049h-198v-137c37.333 -14.667 70.833 -37 100.5 -67s44.5 -61.667 44.5 -95c0 -28.667 -8.5 -55.334 -25.5 -80.001s-41.5 -53 -73.5 -85c-24 -24 -42 -44 -54 -60s-18 -31.667 -18 -47c0 -14 5.16699 -25.667 15.5 -35s23.5 -14 39.5 -14
c37.333 0 80 32.333 128 97l69 -67c-33.333 -30 -62.333 -51.667 -87 -65s-52 -19.666 -82 -18.999c-22.667 0 -48 6.83301 -76 20.5s-51.667 31.5 -71 53.5s-29 44.667 -29 68c0 16.667 6 32.834 18 48.501s30.667 35.5 56 59.5c32 30 56.5 56.833 73.5 80.5
s25.833 50.5 26.5 80.5c0 14.667 -4.33301 27.334 -13 38.001s-19.167 18.834 -31.5 24.501s-23.166 8.5 -32.499 8.5c-42.667 0 -77.5 -23 -104.5 -69s-46.167 -96.667 -57.5 -152l-97 45c8.66699 42 23.667 81.667 45 119c-16.667 14.667 -35.334 26.334 -56.001 35.001
s-38.667 13 -54 13c-28 0 -51.833 -10.5 -71.5 -31.5s-29.5 -48.167 -29.5 -81.5c0 -48.667 8.66699 -92.667 26 -132s42 -82 74 -128l-35 -23c-41.333 44.667 -78.666 96 -111.999 154s-50 115 -50 171c0 30.667 6.66699 58.334 20 83.001s31.666 44 54.999 58
s49.333 21 78 21c59.333 0 119.666 -33.333 180.999 -100c30.667 40.667 65.334 66 104.001 76v134h-482l-37 71v18h785z" />
    <glyph glyph-name="uni090D" unicode="&#x90d;" horiz-adv-x="608" 
d="M625.5 -79.5c16.333 -18.333 24.502 -37.166 24.502 -56.499c0 -22.667 -7.5 -40.834 -22.5 -54.501s-34.833 -20.5 -59.5 -20.5c-36.667 0 -66 16.667 -88 50v2l64 71l-340 228c-36.667 24.667 -63.334 44 -80.001 58s-27.834 26.833 -33.501 38.5
s-8.5 26.167 -8.5 43.5v288h-85l-37 71v18h609l39 -72v-17h-106v-224c0 -46.667 -10.167 -82.5 -30.5 -107.5s-44.833 -42.833 -73.5 -53.5l-82 55v12c27.333 10.667 47.5 21 60.5 31s19.5 24.333 19.5 43v244h-208v-301c0 -16.667 2.83301 -29.834 8.5 -39.501
s17.167 -20.5 34.5 -32.5l298 -200c48 -31.333 80.167 -56.166 96.5 -74.499zM417.502 776c-32.333 -19.333 -72.167 -29.001 -119.5 -29.001c-50.667 0 -96.334 17 -137.001 51s-73.667 73.667 -99 119l33 15c48.667 -71.333 101.667 -107 159 -107
c39.333 0 74 10.5 104 31.5s54 45.5 72 73.5l77 -72c-27.333 -35.333 -57.166 -62.666 -89.499 -81.999z" />
    <glyph glyph-name="uni090E" unicode="&#x90e;" horiz-adv-x="608" 
d="M-40 985c-11.333 -31.333 -16.998 -55 -16.998 -71c0 -15.333 7 -27.333 21 -36s34.667 -13 62 -13c16 0 41.667 1.33301 77 4s59 4.33398 71 5.00098c69.333 5.33301 110.333 8 123 8c27.333 0 53 -6.5 77 -19.5s44.667 -30.167 62 -51.5
c14.667 -16.667 26.5 -34.5 35.5 -53.5s13.5 -36.833 13.5 -53.5c0 -11.333 -2.33301 -27 -7 -47h91l39 -72v-17h-106v-224c0 -46.667 -10.167 -82.5 -30.5 -107.5s-44.5 -42.833 -72.5 -53.5l-83 55v12c27.333 10.667 47.666 21 60.999 31s20 24.333 20 43v244h-208v-301
c0 -16.667 2.83301 -29.834 8.5 -39.501s17.167 -20.5 34.5 -32.5l297 -200c48 -31.333 80.333 -56.166 97 -74.499s25 -37.166 25 -56.499c0 -22.667 -7.5 -40.834 -22.5 -54.501s-34.833 -20.5 -59.5 -20.5c-35.333 0 -65 16.667 -89 50v2l64 71l-339 228
c-36.667 24.667 -63.334 44 -80.001 58s-27.834 26.833 -33.501 38.5s-8.5 26.167 -8.5 43.5v288h-85l-38 71v18h461c4 8 6 17 6 27c0 27.333 -8.66699 50.5 -26 69.5s-45.666 28.5 -84.999 28.5c-18 0 -46.333 -2.33301 -85 -7c-48 -5.33301 -83.667 -8 -107 -8
c-38 0 -75.667 6.33301 -113 19s-67.833 28.667 -91.5 48s-35.5 39 -35.5 59c0 23.333 3.66699 45.166 11 65.499s11.333 31.5 12 33.5z" />
    <glyph glyph-name="uni090F" unicode="&#x90f;" horiz-adv-x="608" 
d="M625.5 -79.5c16.333 -18.333 24.502 -37.166 24.502 -56.499c0 -22.667 -7.5 -40.834 -22.5 -54.501s-34.833 -20.5 -59.5 -20.5c-36.667 0 -66 16.667 -88 50v2l64 71l-340 228c-36.667 24.667 -63.334 44 -80.001 58s-27.834 26.833 -33.501 38.5
s-8.5 26.167 -8.5 43.5v288h-85l-37 71v18h609l39 -72v-17h-106v-224c0 -46.667 -10.167 -82.5 -30.5 -107.5s-44.833 -42.833 -73.5 -53.5l-82 55v12c27.333 10.667 47.5 21 60.5 31s19.5 24.333 19.5 43v244h-208v-301c0 -16.667 2.83301 -29.834 8.5 -39.501
s17.167 -20.5 34.5 -32.5l298 -200c48 -31.333 80.167 -56.166 96.5 -74.499z" />
    <glyph glyph-name="uni0910" unicode="&#x910;" horiz-adv-x="608" 
d="M625.5 -79.5c16.333 -18.333 24.502 -37.166 24.502 -56.499c0 -22.667 -7.5 -40.834 -22.5 -54.501s-34.833 -20.5 -59.5 -20.5c-36.667 0 -66 16.667 -88 50v2l64 71l-340 228c-36.667 24.667 -63.334 44 -80.001 58s-27.834 26.833 -33.501 38.5
s-8.5 26.167 -8.5 43.5v288h-85l-37 71v18h609l39 -72v-17h-106v-224c0 -46.667 -10.167 -82.5 -30.5 -107.5s-44.833 -42.833 -73.5 -53.5l-82 55v12c27.333 10.667 47.5 21 60.5 31s19.5 24.333 19.5 43v244h-208v-301c0 -16.667 2.83301 -29.834 8.5 -39.501
s17.167 -20.5 34.5 -32.5l298 -200c48 -31.333 80.167 -56.166 96.5 -74.499zM293.002 953c34.667 -36.667 70.3311 -90.3311 106.998 -160.998c30.667 -58.667 57 -111.334 79 -158.001h-55c-7.33301 15.333 -17.833 35.166 -31.5 59.499s-23.167 39.833 -28.5 46.5
c-51.333 86 -86.666 135.667 -105.999 149l-125 -39c-11.333 9.33301 -20.666 21.333 -27.999 36s-11 30.334 -11 47.001c0 23.333 7.5 41.666 22.5 54.999s33.833 20 56.5 20c45.333 0 85.333 -18.333 120 -55z" />
    <glyph glyph-name="uni0911" unicode="&#x911;" horiz-adv-x="1167" 
d="M1167 568l-103.001 0.000976562v-610h-18l-88 50v560h-202v-610h-18l-87 50v211h-1c-15.333 -6.66699 -32.666 -10 -51.999 -10c-21.333 0 -41.333 3.83301 -60 11.5s-38.667 20.167 -60 37.5l-4 -1c12.667 -24.667 19 -52.667 19 -84
c0 -49.333 -15.167 -88.833 -45.5 -118.5s-70.166 -44.5 -119.499 -44.5c-70 0 -130.167 24.667 -180.5 74s-95.5 108.666 -135.5 177.999l34 25c33.333 -51.333 71 -94.166 113 -128.499s84 -51.5 126 -51.5c34 0 62 10.333 84 31s33 45.334 33 74.001
c0 39.333 -13 72.333 -39 99c-38 -12 -84 -21.667 -138 -29l-42 76l11 25c68.667 4.66699 116.667 14.667 144 30c33.333 19.333 50 48.333 50 87c0 20.667 -8.83301 39 -26.5 55s-39.167 24 -64.5 24c-27.333 0 -53.166 -6.33301 -77.499 -19s-49.5 -31 -75.5 -55l-51 98
c23.333 17.333 51.666 32.666 84.999 45.999s61.333 20 84 20c27.333 0 56.833 -11.167 88.5 -33.5s58.167 -49.833 79.5 -82.5s32 -64.334 32 -95.001c0 -45.333 -17 -85.333 -51 -120c20.667 -10.667 43.667 -19.667 69 -27s48.666 -11 69.999 -11
c38 0 71.667 10.333 101 31v237h-139l-38 71v18h654l39 -72v-17zM1150.5 776.001c-32.333 -19.333 -72.167 -29.001 -119.5 -29.001c-50.667 0 -96.334 17 -137.001 51s-73.667 73.667 -99 119l33 15c48.667 -71.333 101.667 -107 159 -107c39.333 0 74 10.5 104 31.5
s54 45.5 72 73.5l77 -72c-27.333 -35.333 -57.166 -62.666 -89.499 -81.999z" />
    <glyph glyph-name="uni0912" unicode="&#x912;" horiz-adv-x="1167" 
d="M518 985c-10.667 -29.333 -16.001 -52.9941 -16.001 -70.9941c0 -15.333 7 -27.333 21 -36s34.667 -13 62 -13c16 0 41.667 1.33301 77 4s59 4.33398 71 5.00098c68 5.33301 108.667 8 122 8c28 0 54 -6.5 78 -19.5s44.667 -30.167 62 -51.5
c14.667 -16.667 26.334 -34.5 35.001 -53.5s13 -36.833 13 -53.5c0 -16 -2.33301 -31.667 -7 -47h93l38 -72v-17h-102v-610h-18l-87 50v560h-204v-610h-18l-87 50v211h-2c-14.667 -6.66699 -31.667 -10 -51 -10c-20.667 0 -40.334 3.83301 -59.001 11.5
s-38.667 20.167 -60 37.5l-4 -2c12 -27.333 18 -55 18 -83c0 -49.333 -15.167 -88.833 -45.5 -118.5s-70.166 -44.5 -119.499 -44.5c-70 0 -130.167 24.667 -180.5 74s-95.5 108.666 -135.5 177.999l34 25c33.333 -51.333 71 -94.166 113 -128.499s84 -51.5 126 -51.5
c34 0 62 10.333 84 31s33 45.334 33 74.001c0 41.333 -13 74 -39 98c-19.333 -6.66699 -41.833 -12.334 -67.5 -17.001s-48.834 -8.33398 -69.501 -11.001l-41 76l10 25c69.333 4.66699 117.333 14.667 144 30c34 19.333 51 47.666 51 84.999
c0 21.333 -8.83301 40.166 -26.5 56.499s-39.167 24.5 -64.5 24.5c-27.333 0 -53.333 -6.33301 -78 -19s-50 -31 -76 -55l-50 98c22.667 17.333 50.667 32.666 84 45.999s61.666 20 84.999 20c27.333 0 56.666 -11.167 87.999 -33.5s57.833 -49.833 79.5 -82.5
s32.5 -64.334 32.5 -95.001c0 -23.333 -4.66699 -45.333 -14 -66s-22 -38.667 -38 -54c20 -10.667 42.833 -19.834 68.5 -27.501s49.167 -11.5 70.5 -11.5c20.667 0 38.834 2.5 54.501 7.5s30.834 12.5 45.501 22.5v239h-139l-37 71v18h505c3.33301 8.66699 5 17.667 5 27
c0 27.333 -8.66699 50.5 -26 69.5s-45.333 28.5 -84 28.5c-19.333 0 -47.666 -2.33301 -84.999 -7c-49.333 -5.33301 -85 -8 -107 -8c-38 0 -75.667 6.33301 -113 19s-67.833 28.667 -91.5 48s-35.5 39 -35.5 59c0 23.333 3.66699 45.166 11 65.499s11.333 31.5 12 33.5z
" />
    <glyph glyph-name="uni0913" unicode="&#x913;" horiz-adv-x="1167" 
d="M1167 568l-103.001 0.000976562v-610h-18l-88 50v560h-202v-610h-18l-87 50v211h-1c-15.333 -6.66699 -32.666 -10 -51.999 -10c-21.333 0 -41.333 3.83301 -60 11.5s-38.667 20.167 -60 37.5l-4 -1c12.667 -24.667 19 -52.667 19 -84
c0 -49.333 -15.167 -88.833 -45.5 -118.5s-70.166 -44.5 -119.499 -44.5c-70 0 -130.167 24.667 -180.5 74s-95.5 108.666 -135.5 177.999l34 25c33.333 -51.333 71 -94.166 113 -128.499s84 -51.5 126 -51.5c34 0 62 10.333 84 31s33 45.334 33 74.001
c0 39.333 -13 72.333 -39 99c-38 -12 -84 -21.667 -138 -29l-42 76l11 25c68.667 4.66699 116.667 14.667 144 30c33.333 19.333 50 48.333 50 87c0 20.667 -8.83301 39 -26.5 55s-39.167 24 -64.5 24c-27.333 0 -53.166 -6.33301 -77.499 -19s-49.5 -31 -75.5 -55l-51 98
c23.333 17.333 51.666 32.666 84.999 45.999s61.333 20 84 20c27.333 0 56.833 -11.167 88.5 -33.5s58.167 -49.833 79.5 -82.5s32 -64.334 32 -95.001c0 -45.333 -17 -85.333 -51 -120c20.667 -10.667 43.667 -19.667 69 -27s48.666 -11 69.999 -11
c38 0 71.667 10.333 101 31v237h-139l-38 71v18h654l39 -72v-17zM846.999 958.001c34.667 -36.667 70.3311 -90.3311 106.998 -160.998c30.667 -58.667 57 -111.334 79 -158.001h-55c-7.33301 15.333 -17.833 35.166 -31.5 59.499s-23.167 39.833 -28.5 46.5
c-51.333 86 -86.666 135.667 -105.999 149l-125 -39c-11.333 9.33301 -20.666 21.333 -27.999 36s-11 30.334 -11 47.001c0 23.333 7.5 41.666 22.5 54.999s33.833 20 56.5 20c45.333 0 85.333 -18.333 120 -55z" />
    </font>
</defs>
</svg>
